<mxfile host="app.diagrams.net" agent="Mozilla/5.0 (Windows NT 10.0; Win64; x64; rv:131.0) Gecko/20100101 Firefox/131.0" version="24.8.3">
  <diagram id="f106602c-feb2-e66a-4537-3a34d633f6aa" name="Page-1">
    <mxGraphModel dx="1545" dy="747" grid="1" gridSize="10" guides="1" tooltips="1" connect="0" arrows="0" fold="1" page="1" pageScale="1" pageWidth="1169" pageHeight="827" background="none" math="0" shadow="0">
      <root>
        <mxCell id="0" />
        <mxCell id="1" parent="0" />
        <mxCell id="14" value="&lt;b&gt;Google &lt;/b&gt;Cloud Platform" style="fillColor=#F6F6F6;strokeColor=none;shadow=1;gradientColor=none;fontSize=14;align=left;spacing=10;fontColor=#717171;9E9E9E;verticalAlign=top;spacingTop=-4;fontStyle=0;spacingLeft=40;html=1;container=0;" parent="1" vertex="1">
          <mxGeometry x="331.54" y="130" width="620.5" height="477.63" as="geometry" />
        </mxCell>
        <mxCell id="2" value="" style="fillColor=#4DA1F5;strokeColor=none;shadow=1;gradientColor=none;fontSize=14;align=left;spacingLeft=50;fontColor=#ffffff;html=1;" parent="1" vertex="1">
          <mxGeometry x="110" y="70" width="849.5" height="40" as="geometry" />
        </mxCell>
        <mxCell id="584" style="edgeStyle=elbowEdgeStyle;rounded=0;elbow=vertical;html=1;labelBackgroundColor=none;startArrow=blockThin;startFill=1;startSize=4;endArrow=blockThin;endFill=1;endSize=4;jettySize=auto;orthogonalLoop=1;strokeColor=#4284F3;strokeWidth=2;fontSize=12;fontColor=#000000;align=center;dashed=0;entryX=0.016;entryY=0.6;entryDx=0;entryDy=0;entryPerimeter=0;" parent="1" source="uoHBkqAiXrJTnw-RRtxm-612" edge="1">
          <mxGeometry relative="1" as="geometry">
            <mxPoint x="562.068" y="361" as="targetPoint" />
          </mxGeometry>
        </mxCell>
        <mxCell id="uoHBkqAiXrJTnw-RRtxm-620" value="" style="strokeColor=#dddddd;shadow=1;strokeWidth=1;rounded=1;absoluteArcSize=1;arcSize=2;" parent="1" vertex="1">
          <mxGeometry x="559.5" y="450" width="160.5" height="60" as="geometry" />
        </mxCell>
        <mxCell id="uoHBkqAiXrJTnw-RRtxm-622" value="" style="strokeColor=#dddddd;shadow=1;strokeWidth=1;rounded=1;absoluteArcSize=1;arcSize=2;" parent="1" vertex="1">
          <mxGeometry x="780" y="260" width="160.5" height="60" as="geometry" />
        </mxCell>
        <mxCell id="15" value="" style="shape=mxgraph.gcp2.google_cloud_platform;fillColor=#F6F6F6;strokeColor=none;shadow=0;gradientColor=none;" parent="1" vertex="1">
          <mxGeometry x="347" y="140" width="23" height="20" as="geometry">
            <mxPoint x="20" y="10" as="offset" />
          </mxGeometry>
        </mxCell>
        <mxCell id="uoHBkqAiXrJTnw-RRtxm-612" value="" style="strokeColor=#dddddd;shadow=1;strokeWidth=1;rounded=1;absoluteArcSize=1;arcSize=2;" parent="1" vertex="1">
          <mxGeometry x="360" y="322.5" width="150" height="85" as="geometry" />
        </mxCell>
        <mxCell id="uoHBkqAiXrJTnw-RRtxm-616" value="" style="strokeColor=#dddddd;shadow=1;strokeWidth=1;rounded=1;absoluteArcSize=1;arcSize=2;" parent="1" vertex="1">
          <mxGeometry x="561.54" y="335" width="160.5" height="60" as="geometry" />
        </mxCell>
        <mxCell id="f3wMCokSAhAHXj3sc1L6-588" value="" style="pointerEvents=1;shadow=0;dashed=0;html=1;strokeColor=#6c8ebf;fillColor=#dae8fc;labelPosition=center;verticalLabelPosition=bottom;verticalAlign=top;outlineConnect=0;align=center;shape=mxgraph.office.users.call_center_agent;" parent="1" vertex="1">
          <mxGeometry x="170" y="140" width="46" height="55" as="geometry" />
        </mxCell>
        <mxCell id="f3wMCokSAhAHXj3sc1L6-589" value="" style="pointerEvents=1;shadow=0;dashed=0;html=1;strokeColor=#6c8ebf;fillColor=#dae8fc;labelPosition=center;verticalLabelPosition=bottom;verticalAlign=top;outlineConnect=0;align=center;shape=mxgraph.office.users.administrator;" parent="1" vertex="1">
          <mxGeometry x="170" y="320" width="58" height="56" as="geometry" />
        </mxCell>
        <mxCell id="f3wMCokSAhAHXj3sc1L6-590" value="" style="pointerEvents=1;shadow=0;dashed=0;html=1;strokeColor=#6c8ebf;fillColor=#dae8fc;labelPosition=center;verticalLabelPosition=bottom;verticalAlign=top;outlineConnect=0;align=center;shape=mxgraph.office.users.user;" parent="1" vertex="1">
          <mxGeometry x="170" y="485" width="46" height="50" as="geometry" />
        </mxCell>
        <mxCell id="dvIQoBZ7N12mjhmRUmld-588" value="" style="edgeStyle=orthogonalEdgeStyle;fontSize=12;html=1;endArrow=blockThin;endFill=1;rounded=0;strokeWidth=2;endSize=4;startSize=4;dashed=0;strokeColor=#4284F3;" edge="1" parent="1">
          <mxGeometry width="100" relative="1" as="geometry">
            <mxPoint x="280" y="360" as="sourcePoint" />
            <mxPoint x="230" y="170" as="targetPoint" />
            <Array as="points">
              <mxPoint x="280" y="180" />
              <mxPoint x="280" y="180" />
            </Array>
          </mxGeometry>
        </mxCell>
        <mxCell id="dvIQoBZ7N12mjhmRUmld-589" value="" style="edgeStyle=orthogonalEdgeStyle;fontSize=12;html=1;endArrow=blockThin;endFill=1;rounded=0;strokeWidth=2;endSize=4;startSize=4;dashed=0;strokeColor=#4284F3;" edge="1" parent="1">
          <mxGeometry width="100" relative="1" as="geometry">
            <mxPoint x="280" y="350" as="sourcePoint" />
            <mxPoint x="240" y="520" as="targetPoint" />
            <Array as="points">
              <mxPoint x="280" y="520" />
            </Array>
          </mxGeometry>
        </mxCell>
        <mxCell id="dvIQoBZ7N12mjhmRUmld-591" value="" style="edgeStyle=orthogonalEdgeStyle;fontSize=12;html=1;endArrow=blockThin;endFill=1;rounded=0;strokeWidth=2;endSize=4;startSize=4;dashed=0;strokeColor=#4284F3;" edge="1" parent="1">
          <mxGeometry width="100" relative="1" as="geometry">
            <mxPoint x="280" y="360" as="sourcePoint" />
            <mxPoint x="240" y="360" as="targetPoint" />
          </mxGeometry>
        </mxCell>
        <mxCell id="dvIQoBZ7N12mjhmRUmld-592" value="Driver" style="text;strokeColor=none;align=center;fillColor=none;html=1;verticalAlign=middle;whiteSpace=wrap;rounded=0;fontFamily=Architects Daughter;fontSource=https%3A%2F%2Ffonts.googleapis.com%2Fcss%3Ffamily%3DArchitects%2BDaughter;" vertex="1" parent="1">
          <mxGeometry x="163" y="195" width="60" height="30" as="geometry" />
        </mxCell>
        <mxCell id="dvIQoBZ7N12mjhmRUmld-593" value="Admin" style="text;strokeColor=none;align=center;fillColor=none;html=1;verticalAlign=middle;whiteSpace=wrap;rounded=0;fontFamily=Architects Daughter;fontSource=https%3A%2F%2Ffonts.googleapis.com%2Fcss%3Ffamily%3DArchitects%2BDaughter;" vertex="1" parent="1">
          <mxGeometry x="163" y="370" width="60" height="30" as="geometry" />
        </mxCell>
        <mxCell id="dvIQoBZ7N12mjhmRUmld-594" value="User" style="text;strokeColor=none;align=center;fillColor=none;html=1;verticalAlign=middle;whiteSpace=wrap;rounded=0;fontFamily=Architects Daughter;fontSource=https%3A%2F%2Ffonts.googleapis.com%2Fcss%3Ffamily%3DArchitects%2BDaughter;" vertex="1" parent="1">
          <mxGeometry x="168" y="535" width="60" height="30" as="geometry" />
        </mxCell>
        <mxCell id="dvIQoBZ7N12mjhmRUmld-595" style="edgeStyle=elbowEdgeStyle;rounded=0;elbow=vertical;html=1;labelBackgroundColor=none;startArrow=blockThin;startFill=1;startSize=4;endArrow=blockThin;endFill=1;endSize=4;jettySize=auto;orthogonalLoop=1;strokeColor=#4284F3;strokeWidth=2;fontSize=12;fontColor=#000000;align=center;dashed=1;entryX=0.931;entryY=0.128;entryDx=0;entryDy=0;entryPerimeter=0;" edge="1" parent="1" source="dvIQoBZ7N12mjhmRUmld-610" target="dvIQoBZ7N12mjhmRUmld-642">
          <mxGeometry relative="1" as="geometry">
            <mxPoint x="640" y="240" as="sourcePoint" />
            <mxPoint x="749" y="520" as="targetPoint" />
            <Array as="points">
              <mxPoint x="750" y="180" />
            </Array>
          </mxGeometry>
        </mxCell>
        <mxCell id="dvIQoBZ7N12mjhmRUmld-598" value="" style="edgeStyle=orthogonalEdgeStyle;fontSize=12;html=1;endArrow=blockThin;endFill=1;rounded=0;strokeWidth=2;endSize=4;startSize=4;dashed=0;strokeColor=#4284F3;entryX=1.003;entryY=0.5;entryDx=0;entryDy=0;entryPerimeter=0;" edge="1" parent="1" target="uoHBkqAiXrJTnw-RRtxm-620">
          <mxGeometry width="100" relative="1" as="geometry">
            <mxPoint x="750" y="480" as="sourcePoint" />
            <mxPoint x="250" y="370" as="targetPoint" />
          </mxGeometry>
        </mxCell>
        <mxCell id="dvIQoBZ7N12mjhmRUmld-600" value="" style="edgeStyle=orthogonalEdgeStyle;fontSize=12;html=1;endArrow=blockThin;endFill=1;rounded=0;strokeWidth=2;endSize=4;startSize=4;dashed=1;strokeColor=#4284F3;entryX=0.997;entryY=0.483;entryDx=0;entryDy=0;entryPerimeter=0;" edge="1" parent="1">
          <mxGeometry width="100" relative="1" as="geometry">
            <mxPoint x="750" y="354" as="sourcePoint" />
            <mxPoint x="719.5184999999999" y="353.98" as="targetPoint" />
          </mxGeometry>
        </mxCell>
        <mxCell id="dvIQoBZ7N12mjhmRUmld-601" style="edgeStyle=elbowEdgeStyle;rounded=0;elbow=vertical;html=1;labelBackgroundColor=none;startArrow=blockThin;startFill=1;startSize=4;endArrow=blockThin;endFill=1;endSize=4;jettySize=auto;orthogonalLoop=1;strokeColor=#4284F3;strokeWidth=2;fontSize=12;fontColor=#000000;align=center;dashed=0;exitX=0.003;exitY=0.817;exitDx=0;exitDy=0;exitPerimeter=0;entryX=0.013;entryY=0.494;entryDx=0;entryDy=0;entryPerimeter=0;" edge="1" parent="1" source="uoHBkqAiXrJTnw-RRtxm-620" target="dvIQoBZ7N12mjhmRUmld-610">
          <mxGeometry relative="1" as="geometry">
            <mxPoint x="530" y="357" as="sourcePoint" />
            <mxPoint x="530" y="240" as="targetPoint" />
            <Array as="points">
              <mxPoint x="530" y="380" />
            </Array>
          </mxGeometry>
        </mxCell>
        <mxCell id="dvIQoBZ7N12mjhmRUmld-607" value="" style="whiteSpace=normal;&#xa;html=1;&#xa;sketch=0;&#xa;hachureGap=10;&#xa;jiggle=0;&#xa;curveFitting=0;&#xa;fontFamily=Architects Daughter;&#xa;fontSource=https://fonts.googleapis.com/css?family=Architects+Daughter;fillColor=#29FF54;" vertex="1" parent="1">
          <mxGeometry x="139" y="618" width="120" height="60" as="geometry" />
        </mxCell>
        <mxCell id="dvIQoBZ7N12mjhmRUmld-603" value="Client tier" style="text;html=1;align=center;verticalAlign=middle;resizable=0;points=[];autosize=1;strokeColor=none;fillColor=none;fontFamily=Architects Daughter;fontSource=https%3A%2F%2Ffonts.googleapis.com%2Fcss%3Ffamily%3DArchitects%2BDaughter;shadow=0;rotation=0;" vertex="1" parent="1">
          <mxGeometry x="159" y="633" width="80" height="30" as="geometry" />
        </mxCell>
        <mxCell id="dvIQoBZ7N12mjhmRUmld-608" value="" style="whiteSpace=normal;&#xa;html=1;&#xa;sketch=0;&#xa;hachureGap=10;&#xa;jiggle=0;&#xa;curveFitting=0;&#xa;fontFamily=Architects Daughter;&#xa;fontSource=https://fonts.googleapis.com/css?family=Architects+Daughter;fillColor=#0080FF;" vertex="1" parent="1">
          <mxGeometry x="330" y="618" width="450" height="60" as="geometry" />
        </mxCell>
        <mxCell id="dvIQoBZ7N12mjhmRUmld-604" value="&lt;div&gt;Web tier&lt;/div&gt;" style="text;html=1;align=center;verticalAlign=middle;resizable=0;points=[];autosize=1;strokeColor=none;fillColor=none;fontFamily=Architects Daughter;fontSource=https%3A%2F%2Ffonts.googleapis.com%2Fcss%3Ffamily%3DArchitects%2BDaughter;" vertex="1" parent="1">
          <mxGeometry x="520" y="633" width="70" height="30" as="geometry" />
        </mxCell>
        <mxCell id="dvIQoBZ7N12mjhmRUmld-609" value="" style="whiteSpace=normal;&#xa;html=1;&#xa;sketch=0;&#xa;hachureGap=10;&#xa;jiggle=0;&#xa;curveFitting=0;&#xa;fontFamily=Architects Daughter;&#xa;fontSource=https://fonts.googleapis.com/css?family=Architects+Daughter;fillColor=#ADE9FF;" vertex="1" parent="1">
          <mxGeometry x="800.75" y="618" width="139.75" height="60" as="geometry" />
        </mxCell>
        <mxCell id="dvIQoBZ7N12mjhmRUmld-605" value="Data tier" style="text;html=1;align=center;verticalAlign=middle;resizable=0;points=[];autosize=1;strokeColor=none;fillColor=none;fontFamily=Architects Daughter;fontSource=https%3A%2F%2Ffonts.googleapis.com%2Fcss%3Ffamily%3DArchitects%2BDaughter;" vertex="1" parent="1">
          <mxGeometry x="835.63" y="633" width="70" height="30" as="geometry" />
        </mxCell>
        <mxCell id="dvIQoBZ7N12mjhmRUmld-612" value="" style="edgeStyle=elbowEdgeStyle;rounded=0;elbow=vertical;html=1;labelBackgroundColor=none;startArrow=blockThin;startFill=1;startSize=4;endArrow=blockThin;endFill=1;endSize=4;jettySize=auto;orthogonalLoop=1;strokeColor=#4284F3;strokeWidth=2;fontSize=12;fontColor=#000000;align=center;dashed=0;" edge="1" parent="1" target="dvIQoBZ7N12mjhmRUmld-610">
          <mxGeometry relative="1" as="geometry">
            <mxPoint x="640" y="240" as="sourcePoint" />
            <mxPoint x="750.52" y="527.5" as="targetPoint" />
            <Array as="points" />
          </mxGeometry>
        </mxCell>
        <mxCell id="dvIQoBZ7N12mjhmRUmld-610" value="" style="strokeColor=#dddddd;shadow=1;strokeWidth=1;rounded=1;absoluteArcSize=1;arcSize=2;" vertex="1" parent="1">
          <mxGeometry x="559.5" y="230" width="160.5" height="60" as="geometry" />
        </mxCell>
        <mxCell id="dvIQoBZ7N12mjhmRUmld-615" value="&lt;font color=&quot;#000000&quot;&gt;Users&lt;/font&gt;&lt;br&gt;Micro Service" style="text;html=1;align=center;verticalAlign=middle;resizable=0;points=[];autosize=1;strokeColor=none;fillColor=none;fontFamily=Architects Daughter;fontSource=https%3A%2F%2Ffonts.googleapis.com%2Fcss%3Ffamily%3DArchitects%2BDaughter;" vertex="1" parent="1">
          <mxGeometry x="570" y="460" width="100" height="40" as="geometry" />
        </mxCell>
        <mxCell id="dvIQoBZ7N12mjhmRUmld-617" value="&lt;font color=&quot;#000000&quot;&gt;Journeys&lt;/font&gt;&lt;br&gt;Micro Service" style="text;html=1;align=center;verticalAlign=middle;resizable=0;points=[];autosize=1;strokeColor=none;fillColor=none;fontFamily=Architects Daughter;fontSource=https%3A%2F%2Ffonts.googleapis.com%2Fcss%3Ffamily%3DArchitects%2BDaughter;" vertex="1" parent="1">
          <mxGeometry x="570" y="240" width="100" height="40" as="geometry" />
        </mxCell>
        <mxCell id="dvIQoBZ7N12mjhmRUmld-619" value="&lt;div&gt;&lt;font color=&quot;#000000&quot;&gt;Frontend&lt;/font&gt;&lt;/div&gt;Micro Service" style="text;html=1;align=center;verticalAlign=middle;resizable=0;points=[];autosize=1;strokeColor=none;fillColor=none;fontFamily=Architects Daughter;fontSource=https%3A%2F%2Ffonts.googleapis.com%2Fcss%3Ffamily%3DArchitects%2BDaughter;" vertex="1" parent="1">
          <mxGeometry x="370" y="355" width="100" height="40" as="geometry" />
        </mxCell>
        <mxCell id="dvIQoBZ7N12mjhmRUmld-620" value="Architecture: Bus Management System" style="text;html=1;align=center;verticalAlign=middle;resizable=0;points=[];autosize=1;strokeColor=none;fillColor=none;fontFamily=Architects Daughter;fontSource=https%3A%2F%2Ffonts.googleapis.com%2Fcss%3Ffamily%3DArchitects%2BDaughter;" vertex="1" parent="1">
          <mxGeometry x="120" y="75" width="240" height="30" as="geometry" />
        </mxCell>
        <mxCell id="dvIQoBZ7N12mjhmRUmld-621" value="" style="shape=image;verticalLabelPosition=bottom;labelBackgroundColor=default;verticalAlign=top;aspect=fixed;imageAspect=0;image=data:image/png,iVBORw0KGgoAAAANSUhEUgAAAOEAAADhCAMAAAAJbSJIAAAAhFBMVEX///8AAAABAQH8/Pzr6+v4+Pjj4+Py8vLU1NT29vbu7u7n5+fExMSQkJCamprw8PBZWVmzs7N7e3tpaWm/v79GRka7u7txcXHW1tY8PDypqakoKCjd3d2NjY2Hh4eqqqo0NDRQUFAaGhojIyMQEBBgYGA3NzeYmJhSUlJ3d3cXFxcmJiZWrq4IAAATG0lEQVR4nO1dCZuiOBOm5BAVkPsSEVQ8uv////tSFcKl9szsTrewH+/zjNra7qa6kqq3jiSSNGPGjBkzZsyYMWPGjBkzZsyYMWPG2LCKtXcP4VthHaEKIFq/exzfhgtE7FE5QvbukXwTrhDQcwzFW8fxfSjB4C92sHnvSL4LHmjX3EoPFoD+7rF8D0I4QI3/qA6lk+3BggE+3j2S74IGCy7h9d0j+TYYwCU03j2Q74McoIgQvnsc34gVahFu7x7Gd6IkJdqGpmiZ7jjhf86qyuQsFtDiv2Z1IiaTRSJWNpkdAPXdY/qrYP4QTmf2sJOQn5KEq3cP6i9ic+EysX8nz9txHSbvHtVfxIF7QwJfjvjCfPew/h6ijoC1KunpP+MchwIeay0CeP+NSGPdF5Axt+3hJmSEyDI28ruH+G9hDyVk78lhQHaHI4kmPmEHszTn7+rN2yTlpCds1BNFePqD0ZUcYPvmUf4bmCDEu6WxtAGb3j3CuatbSN88yn8Dl1sVO1RXmyX7GVx8NxcstZbQffMo/w12aFOKWC/5JD0xN8HMp4WvA+8uNMl+sCbK4wxolmD9gj24HhR7A/1Eb5Va7x7sP4FWk7Rm0ZGsgVWXMbK+vdlNLisupz1fQdKVe0METivJGFK6/VvH+2dQQ9OGge4SkyejMof/jsXWY58QwG4y6apDx1Iu+MzUt9vYMDSmwXu95PYBT2/0tHzOwymU4tJ+yJQbmp8Htc+/6Ux8WnEmFF5L3zjOZ/ZwGT2RWzdBEgb2+iYNWpWy5wqgwF8TMp9ukRXGmdKw8BWzt+Nmco5wDR/47wJDg8LkLmUpxKWZO/FKWkJA0m2EETLZR8friLmcQ4yl8uOauyyGILtTWkJPV2ZjmeYScHr/AahGa3e2aFr0zH0mnDA8cScyzJlAmeQ5TSHcFWz2MlYZZd/Kd6+UB144YGjMMEFmtJxGbggrU67yw2P/LWxNeCXe2UWtGOY9SIKqsSZyrEhyq1S39aN2O3VHBOuJeJyuXWP2seqCnaYnFk69SAtbHcubSqtobIR1exkmZwiX3OBK0lLr68YTZp6SouHq5UaKxqVF7VG+hWcZS/H58hfc09jBnelWztKkdpd6PKoawKbHRTG4jfkHSxbH5/bXE27joPktmx9NUuUuEumdUeAI3akJbeU3NPBDuLz8pmYl/W/Qmyny9yr+1jH/EXLhyI73Q6buqNxUR32hz2yI9XRJLWMnaqnpqIN9pU6EuiQVL/1CQOyLzb/jo2tTdCe3j0K24nA4wemHx/xn2JNIbm0YyHHXTV9SiXIIi6EfzLvr2rtuVBHc2EpVtiOX8IjTkq2jOErKFOkl/mzXqmNM28NnvTMj+Yx2U72xlu6oDOcQKxTIof6SE/EV40Ry1CHtyj1Kkn/pBFJYU7T62ZkQlg//3fEgZhKisYS2wyuzyqLjIkjkHhMYOoIMRklEa6CEzKH77Olpt4UedPkcHJfhHYalRGXUVQwFqLprQpPFlmPd35d8mhpJJ85HUCFY8fOe0pbj7p1iw454Z4IoRXBZZEnff5DZIQEXlXn3bs8r3dtxl4fRSvKiIROVbCJZk09b2E1RqHmuJyNH2jfqMo0OaEuruuyS69kdGoaKz2ch4XN7CWe0NOPuYsASNtIXUyqFwxvEGfjm7Xn4ZMBOcoyRF6LQmuYpc+LV0xifSMzLHoU7WMb+QK39IwbGO8fnCTYM2DVde92bsAPdNFyofnC4/wCpMJgPQT4ZIcQrGZfM5hary9j7pdRnKRpDjQ3fFPZFe0E81wDKjn3//IPD/SfwHgpq7PFyWKGnO9S/81yJTMJjql+EqkcLv1f0LHJst4Q892LmBxb175A3XA7llHl4NXoJ5S7zxA0IyEVdWZIdwdN4zkZ6tJlXojPRuIN8hgo6DXqRuudGpg52a09vM4cR2g9fJdGuo995EuLCO3Uo9pVcCGOq0DTOpBC9jAKd0W9yw7IMOE0Q6F2xIVEQmrq/G7P+A2raGFh/1OEToQCvkzQ1U2g6TRpnrhRQDXyGLmIoH/yfHO0/gQllr8gtGFtZ5evOLw3zimLa+o1TGS30fqKCvwg6Ya7nMfe4dgcrUay+cPytQ62/gOOtqKdo6/ygyjbO6fZgTrR6YaYT6KoJGgk/FUmhaLFsP2Xuw1tJTMahU9iLz0ceXEi841KYl0hHs2PVE08OHKpe4FLbDGP5FdfzvfvnGCkM1NqN0hbnI5G25qMYCk2NOla1C25dk7EHFxInmEemC2Jt2IXQsJcUy4vMJ2Z3OD9yM256YAqbTZHDbDLUZK6s0J7yzphYWiU6ExEFVg8vCrsq+/aY8/ocqLcFevqAIotFPSfD89qAQjftr2nZfQJt3z6Iji+DN1iC7WD7zxWuAI+EewBz/LSt7msjMc9NhYm5DBmVC7IqfZnWzsdP2+rubkFHgxO1Pm8sFuBinV6qpLyX19Yw6c/1FsqKZI+f1FDLD0ZL9T78RV3HSNkMjSi8kK+S2rIcDeXlU9OUI+k08owpwaF4MGzKhLUT96Cl3lo7U9c+OkqK/6NVpfzGUn0/2Cj9W8nsfs3edqQwOewEhdtK7db1Q97REGeWHp7GnqlBnBiPAdUXSqRuEZnXCjV5Q94AZLtTDD1wKifpMXZ9TWBHG7MokrOXzkJE5KBIAUJGrKWUnH2Ub+DcRFCHOsWBwkcwgU5vH7MUdtOLT0tLwdSFAp/Uq6+HPqgB7X2uvyBahcwNTMFdLLGV29gs26LvTsW8or6tj1bwQAY3bI0KI3PcmmqYl5uAu0BpHObjbtxhnO0j3DH4z1T2zBArO6kCo02hYrHYwzl7AE0be3GGgKyUUZeUSxiYgJ1DKVtgZxTJx+y2gZv0m+2V+AU0SJ7DTNLnO4f+m8BZFy71rJml99o+Fnvqt0EPSbFjo0SXpzoiecm8zNjT3ogd9iEabmNqzi5zDV5lXW7YA0xb8kPiBeILKl+TobFi0cWo+zFqWDTrIqHD8wktpNVt9jKYudkbbdW+zpjKOImncDII+oa7VBtTOG0xz61J+x3cqM29CLBFj7mNZ65vM4FUjSRRq4IsyolcdQGqNjjARwmLG8DzfoVYWo2/wkZwiKUYbc/wgrrdaFebr9sg2jIfsPSZkxlRV/BLIA099TfkkydHQ4ou4mXxSdWl6yR8PgWJRq/qzdWWAfzq5A99GgsRXWLRTFM+VZmfW+d7AKv4uv1+IocQJRRM9KbpXVI/sOFGlzh7ewVv3P17Asyj68DWVFeJNS5Mhq+WWjgJaiqx8NCwyq4S2bo0KhJRS7/cdqBOZJpemcE45k5PQsYFcrQ0+tfWphzjlrVHrJgH1OGetDVv7gNlI8ScKk5Tiwe7D73d6TSsKaOlrlR1u/g67bFHiuRVTmw2w6hem8iRLmyccv9oiJbI5F/s1zLQX4y6V7iBzcYZdFQIsDvUgeJSkE8H04j97FpiMVv7itWNCzETI2yX4ZlOcbnz2tPqZquyobB4t8ikqLcS9wvc3z2BjJuE+ZqD1GnNSM7UXWvzwaPbsOgxy3reIQNJTka16/A1mFOot+yJCIM/kc6wL+WEzgR2UnDquseKq38SCMB62lUL7rremUE/xjocOyLKkl5M5UwepifZgr4O65eeYTXxcS7tevtLDYonJ5Ddl1CJkXSpJfnIB+dE8hcLZn/QtOy73+LZqimAKTFei/XnKK3ZOTdZqYDxUBOzVK1BTfmJrpPw+ozUFJgC5iJ69yatcZXWfPsvJk0TErXbsycX7APvXYP+I2hoMq69XWv4QuGUVLeSZntGT8JMXcBUDhx0MQXlNbrLcZvlPdFrIrN0m/bTomNZjJxZG3v0WxM4WIiR8H4+rj1Ps5tSvXar+zY+i/7hEFvGTQv2pWm4fQvnKeOhcP7g6e4AxAoTB5o9TWocsKV6Cgl+qsFoVKYIbT4lsbWPf5TdxM69x/2/GiXmJhHsG3RcBO68ONTdC3Dj1PQI54Xwik93IWwv0wiFbXTntE/hs+nP4DrLO7z86YTcTIO8bakStQPoyFN7Ar1tKQYvHvA0VHQ+DZeRUtuo2+GlqXHkygm6XBX6nfo5ErmJUJsCi231kbSC0xi08vwBV+1a1TWGwX7bsjFmaFQT7RwODSAShjqIrVLc0HZd4AZDqts07sYwqZ6o9BR24lNSB3HqLhdxuO6Ux8MlRglmZ1xNurcStnpk/jJQjQh9CdR3KDTAmWzBJBLEGRXV9OEGdntNHbdwiqVlvZWvt3uNyvvBNDi4RZsQhikNZHQKtqBi7katwIeBwvCounUveBwvSBO9aVqvvlTj4XCVSUb5IEzukME9TSCnsR6WTBcslHLoiK8z2LyZwZfk4XUCBroM83Xhf0zwMVd/6mb5vSKAXcQ3Cjn8RKLHk73PyL5d+LqoOhJga5fedRgXlMrNsHxTOeuQe437INvtUzgZTSO9WDBjo7dZRSZNapl03O5H7RDp8da3nHcKoXIY/+ZLWoqhJMVO03hK78qGR4JRZup6MJm1CXqBRkmilZNwiwbn0aK636Qz5GtCgb8FQapKK2Z3jt0aMXXfbH7ZpjIK1BeTNkps+dg6h6MuLW8A5lqS4/SSDLy82zmeacywSSinWYmdRbejFu+MOZBTdb/emfXpeUaN1un4E+EqX02dwBdObuo414jszAfeK1A2Vqe3KdikE4zGv4tW531tncLFI1rOE3TdYwIlI+fJ6FuIU+LWah4Eda67Ms88bvKwgurTyYqtjB3vKBdcs6NPMbr1sJttQ0nCJawoxW/RIeatiJ1QQ2VL9WzD+Bejx6Mht12LYrryx6Jsj5qAfkXfhh12AxRjPwHlxvmJN4ylOmKxV9cw58e+dE0qtlThhTVjdxtMxGrVPZy8Ee/TQqnYGl2Q7mQMi4/dcEPf0f0KEIy8WcPms8+Drhqxw53NX/0GEaYEsEHxRNrs79Hn56WM/taWiM8+t3dbS771KJ0T76A+7rW+9DrplS9kk7/7Me49YGxB0bkDit0/BJz921HR+4N3bDhuctoFw7Ai5BeABKM+kciiLW1S76JL0XBDOTd8Kq3sRfUpu37iL7w+kKmPjRXlP57OwgOH1fpFx12IPo3WYRSe6+6fGE9+ivv+NzjOEm2T9fObqDcfsCB+wrUIp7ysyU10eiB1T8NfPcaP8l/pkSed0/MbbBP70waHdX2U61k3RGY/zuF823XX56s/P20cB+/LPShi5/xbUpJkFS9Bw2EWzRkMQVvmwB/9VzYl5dapOLysFltiNrynOGC00QQJd6kasUpRMS6XTFUvHbwj/iie8TSnakV8Mrzt5Ju1uPOD+omg7zpqBRaXr8JCvQknwXv0kKmt1aHL+w5DvwtRjr3gUMh58wLMxCXMJmnPzaacQ1UJi+Q5vdXmgCD072R5tSnFdpR9Dr0mRvbDscw9pKngndpsm98vDK+sgC4043+jXR4KKVtH9N6gchPwaWZoVH8K/HK41aZxG9xo5lcmlJ0UZeQ0qlkqstH+4tFL9WVbYX5/8gMnU3rgpXBIlMFNwh1xqbpo5hgk1/hs7+ZZDw5+XzSTAWya4Iq27d6l9aOtgStGxb2txeK+ZT/gGIroIqV1jrV4Nu0z8popqLtd29yC/VAkCfEI2+Lhs4rh6V5XVFXdZLHuG98eVVPnM6NXhqREX8hYD5mxVtMFOvkFcWrT4ZnjnTsyJsnu3JMUp/DdtDx4QPHt1pZZnA9jY++YjPzWtqeC0geFC55H5nHDmOkGHca+Y0M1ix905PKjp9W17uyj+q4eaAQ2+gIufuBoHIzog3jtJnjvDhvILnia51jUzXGKREcwa5JST9riHgpmE8OThkB1XWGeWSxVjNFSbUNnGm9oYf9AGRYnaOKv0oAxLD+4SgkMFQni0jrGUUxg1DaQQmATPOUMFapDrMQWnUkJH4FdBUVRssjEN/RMD3HRfgi+S2o7evt7mRy5Dhc/UmjWcIFcl5nJ/m90xeA5aY0H8nNG06PafzI1lHjlmeSBg5lGOLbX8wxtTfP24A/W+f0v7qP6yzLS0Yp1uOrb4G50y27Gh3eVXgSPpb98hdzaAy8DywBX/8IQf42fzPwsr9hQZHHTppjgMUOuHbxWDQ9aYLZHKoM7ZN2tZH8gG1ndn63dUdVUXNTpB5/8UiHNWjwxPc1V5mD/uQbpe5+l6f988IhtUgB3LqTGVqR99bVu+19nkO3DbwooVh6D62RvvIKJhLQPxD2dquiZkWawf6i0nv0pR9Bspe+Ra1WWgbNopTt5+dRCtqP/tXjVIVup6tofz77/deiS+grPDGPm5OWN7qRX17OrKE+NzSF4IvIzUekTzx9pd5WqWzwBxwSNrn6/YXrFeLNh6LqmyrKs6Bbud+japEbwyhl5eVXWfCsSs7Sw3TTMNgMrsWL6vTI7bOa95RZVXn4YwZr7XWx039rfbw2BOSY327bLoDhDHx+XyHT0Md9W90ssFc1wDiZbk8LQLk5B5d1z6xDqyqRFmzFjxowZM2bMmDFjxowZM2bMmDFjxowZM2bM+H/B/wA1gfNcpb7fxgAAAABJRU5ErkJggg==;" vertex="1" parent="1">
          <mxGeometry x="350" y="190" width="50" height="50" as="geometry" />
        </mxCell>
        <mxCell id="dvIQoBZ7N12mjhmRUmld-622" value="" style="edgeStyle=orthogonalEdgeStyle;fontSize=12;html=1;endArrow=blockThin;endFill=1;rounded=0;strokeWidth=2;endSize=4;startSize=4;dashed=0;strokeColor=#4284F3;entryX=-0.009;entryY=0.586;entryDx=0;entryDy=0;entryPerimeter=0;" edge="1" parent="1" target="uoHBkqAiXrJTnw-RRtxm-612">
          <mxGeometry width="100" relative="1" as="geometry">
            <mxPoint x="280" y="371" as="sourcePoint" />
            <mxPoint x="350" y="360" as="targetPoint" />
          </mxGeometry>
        </mxCell>
        <mxCell id="dvIQoBZ7N12mjhmRUmld-623" value="&lt;div&gt;Database&lt;/div&gt;&lt;div&gt;Journeys&lt;br&gt;&lt;/div&gt;" style="text;html=1;align=center;verticalAlign=middle;resizable=0;points=[];autosize=1;strokeColor=none;fillColor=none;fontFamily=Architects Daughter;fontSource=https%3A%2F%2Ffonts.googleapis.com%2Fcss%3Ffamily%3DArchitects%2BDaughter;" vertex="1" parent="1">
          <mxGeometry x="800.75" y="271" width="70" height="40" as="geometry" />
        </mxCell>
        <mxCell id="dvIQoBZ7N12mjhmRUmld-626" value="" style="sketch=0;outlineConnect=0;fontColor=#232F3E;gradientColor=none;fillColor=#C925D1;strokeColor=none;dashed=0;verticalLabelPosition=bottom;verticalAlign=top;align=center;html=1;fontSize=12;fontStyle=0;aspect=fixed;pointerEvents=1;shape=mxgraph.aws4.rds_postgresql_instance;hachureGap=4;jiggle=2;curveFitting=1;fontFamily=Architects Daughter;fontSource=https%3A%2F%2Ffonts.googleapis.com%2Fcss%3Ffamily%3DArchitects%2BDaughter;" vertex="1" parent="1">
          <mxGeometry x="890" y="269" width="42" height="42" as="geometry" />
        </mxCell>
        <mxCell id="dvIQoBZ7N12mjhmRUmld-627" value="" style="strokeColor=#dddddd;shadow=1;strokeWidth=1;rounded=1;absoluteArcSize=1;arcSize=2;" vertex="1" parent="1">
          <mxGeometry x="780" y="370" width="160.5" height="60" as="geometry" />
        </mxCell>
        <mxCell id="dvIQoBZ7N12mjhmRUmld-625" value="&lt;div&gt;Database&lt;/div&gt;&lt;div&gt;Users&lt;br&gt;&lt;/div&gt;" style="text;html=1;align=center;verticalAlign=middle;resizable=0;points=[];autosize=1;strokeColor=none;fillColor=none;fontFamily=Architects Daughter;fontSource=https%3A%2F%2Ffonts.googleapis.com%2Fcss%3Ffamily%3DArchitects%2BDaughter;" vertex="1" parent="1">
          <mxGeometry x="800.75" y="379" width="70" height="40" as="geometry" />
        </mxCell>
        <mxCell id="dvIQoBZ7N12mjhmRUmld-624" value="" style="strokeColor=none;shadow=1;strokeWidth=1;rounded=1;absoluteArcSize=1;arcSize=2;sketch=0;outlineConnect=0;fontColor=#232F3E;gradientColor=none;fillColor=#C925D1;dashed=0;verticalLabelPosition=bottom;verticalAlign=top;html=1;fontStyle=0;aspect=fixed;pointerEvents=1;shape=mxgraph.aws4.rds_postgresql_instance;" vertex="1" parent="1">
          <mxGeometry x="849.47" y="377" width="123.05" height="46" as="geometry" />
        </mxCell>
        <mxCell id="dvIQoBZ7N12mjhmRUmld-628" value="&lt;font color=&quot;#000000&quot;&gt;Gate-Info&lt;/font&gt;&lt;br&gt;Micro Service" style="text;html=1;align=center;verticalAlign=middle;resizable=0;points=[];autosize=1;strokeColor=none;fillColor=none;fontFamily=Architects Daughter;fontSource=https%3A%2F%2Ffonts.googleapis.com%2Fcss%3Ffamily%3DArchitects%2BDaughter;" vertex="1" parent="1">
          <mxGeometry x="570" y="345" width="100" height="40" as="geometry" />
        </mxCell>
        <mxCell id="dvIQoBZ7N12mjhmRUmld-629" value="" style="image;sketch=0;aspect=fixed;html=1;points=[];align=center;fontSize=12;image=img/lib/mscae/Docker.svg;hachureGap=4;jiggle=2;curveFitting=1;fontFamily=Architects Daughter;fontSource=https%3A%2F%2Ffonts.googleapis.com%2Fcss%3Ffamily%3DArchitects%2BDaughter;" vertex="1" parent="1">
          <mxGeometry x="677.3199999999999" y="235" width="42.68" height="35" as="geometry" />
        </mxCell>
        <mxCell id="dvIQoBZ7N12mjhmRUmld-630" value="" style="image;sketch=0;aspect=fixed;html=1;points=[];align=center;fontSize=12;image=img/lib/mscae/Docker.svg;hachureGap=4;jiggle=2;curveFitting=1;fontFamily=Architects Daughter;fontSource=https%3A%2F%2Ffonts.googleapis.com%2Fcss%3Ffamily%3DArchitects%2BDaughter;" vertex="1" parent="1">
          <mxGeometry x="670" y="339.26" width="44.8" height="36.74" as="geometry" />
        </mxCell>
        <mxCell id="dvIQoBZ7N12mjhmRUmld-631" value="" style="image;sketch=0;aspect=fixed;html=1;points=[];align=center;fontSize=12;image=img/lib/mscae/Docker.svg;hachureGap=4;jiggle=2;curveFitting=1;fontFamily=Architects Daughter;fontSource=https%3A%2F%2Ffonts.googleapis.com%2Fcss%3Ffamily%3DArchitects%2BDaughter;" vertex="1" parent="1">
          <mxGeometry x="669.9999999999999" y="450" width="42.68" height="35" as="geometry" />
        </mxCell>
        <mxCell id="dvIQoBZ7N12mjhmRUmld-636" value="" style="image;sketch=0;aspect=fixed;html=1;points=[];align=center;fontSize=12;image=img/lib/mscae/Docker.svg;hachureGap=4;jiggle=2;curveFitting=1;fontFamily=Architects Daughter;fontSource=https%3A%2F%2Ffonts.googleapis.com%2Fcss%3Ffamily%3DArchitects%2BDaughter;" vertex="1" parent="1">
          <mxGeometry x="459.99999999999994" y="330.5" width="42.68" height="35" as="geometry" />
        </mxCell>
        <mxCell id="dvIQoBZ7N12mjhmRUmld-638" value="" style="edgeStyle=none;orthogonalLoop=1;jettySize=auto;html=1;rounded=0;sketch=1;hachureGap=4;jiggle=2;curveFitting=1;fontFamily=Architects Daughter;fontSource=https://fonts.googleapis.com/css?family=Architects+Daughter;exitX=1.031;exitY=0.106;exitDx=0;exitDy=0;exitPerimeter=0;entryX=0;entryY=0.439;entryDx=0;entryDy=0;entryPerimeter=0;startArrow=blockThin;endArrow=blockThin;" edge="1" parent="1" source="uoHBkqAiXrJTnw-RRtxm-620" target="dvIQoBZ7N12mjhmRUmld-627">
          <mxGeometry width="80" relative="1" as="geometry">
            <mxPoint x="680" y="400" as="sourcePoint" />
            <mxPoint x="770" y="400" as="targetPoint" />
            <Array as="points" />
          </mxGeometry>
        </mxCell>
        <mxCell id="dvIQoBZ7N12mjhmRUmld-639" value="" style="edgeStyle=none;orthogonalLoop=0;jettySize=auto;html=1;rounded=0;hachureGap=0;jiggle=0;curveFitting=0;fontFamily=Architects Daughter;fontSource=https://fonts.googleapis.com/css?family=Architects+Daughter;exitX=1;exitY=0.5;exitDx=0;exitDy=0;exitPerimeter=0;entryX=0;entryY=0.5;entryDx=0;entryDy=0;entryPerimeter=0;startArrow=blockThin;endArrow=blockThin;" edge="1" parent="1" source="dvIQoBZ7N12mjhmRUmld-610" target="uoHBkqAiXrJTnw-RRtxm-622">
          <mxGeometry width="80" relative="1" as="geometry">
            <mxPoint x="735" y="466" as="sourcePoint" />
            <mxPoint x="790" y="406" as="targetPoint" />
            <Array as="points" />
          </mxGeometry>
        </mxCell>
        <mxCell id="dvIQoBZ7N12mjhmRUmld-640" value="" style="edgeStyle=none;orthogonalLoop=0;jettySize=auto;html=1;rounded=0;hachureGap=0;jiggle=0;curveFitting=0;fontFamily=Architects Daughter;fontSource=https://fonts.googleapis.com/css?family=Architects+Daughter;exitX=1.008;exitY=0.856;exitDx=0;exitDy=0;exitPerimeter=0;entryX=-0.01;entryY=0.911;entryDx=0;entryDy=0;entryPerimeter=0;startArrow=blockThin;endArrow=blockThin;" edge="1" parent="1" source="uoHBkqAiXrJTnw-RRtxm-616" target="uoHBkqAiXrJTnw-RRtxm-622">
          <mxGeometry width="80" relative="1" as="geometry">
            <mxPoint x="730" y="270" as="sourcePoint" />
            <mxPoint x="790" y="300" as="targetPoint" />
            <Array as="points" />
          </mxGeometry>
        </mxCell>
        <mxCell id="dvIQoBZ7N12mjhmRUmld-643" value="" style="strokeColor=#dddddd;shadow=1;strokeWidth=1;rounded=1;absoluteArcSize=1;arcSize=2;" vertex="1" parent="1">
          <mxGeometry x="340" y="490" width="159.5" height="90" as="geometry" />
        </mxCell>
        <mxCell id="f3wMCokSAhAHXj3sc1L6-595" value="" style="image;aspect=fixed;html=1;points=[];align=center;fontSize=12;image=img/lib/azure2/other/Grafana.svg;" parent="1" vertex="1">
          <mxGeometry x="350" y="535" width="49.5" height="38.43" as="geometry" />
        </mxCell>
        <mxCell id="dvIQoBZ7N12mjhmRUmld-641" value="" style="shape=image;verticalLabelPosition=bottom;labelBackgroundColor=default;verticalAlign=top;aspect=fixed;imageAspect=0;image=data:image/png,iVBORw0KGgoAAAANSUhEUgAABLAAAASmCAYAAAA+rlJJAAAABGdBTUEAALGPC/xhBQAAACBjSFJNAAB6JgAAgIQAAPoAAACA6AAAdTAAAOpgAAA6mAAAF3CculE8AAAABmJLR0QA/wD/AP+gvaeTAACAAElEQVR42uzde5ycZX3///fnntlsTgRCSLK7SZBAEMjsbsB4omqNh9ofRSC7y1RtpdLWUg9V2tpW29oaj9X6tZ7aqnhCUBGGHAggVVHiAVAxEHazHCMBkuxsEnLglOxmZ+7P748E5JDD7s49M/d9z+v5eODjISQz9/2+7r3v6/rsdV23BAAAAAAAAAAAAAAAAAAAAAAAAAAAAAAAAAAAAAAAAAAAAAAAAAAAAAAAAAAAkCqez2e2n3vKUSQBAABQW0YEAAAgCTYuPf2YidIxZY0ck8naMQo1RW6TZZripgkmP9pdWTM/2j1olsLJkk2RaYJCHe1mWTM/WtIEuaY85+OPkin7rH/jmihp0hgOcbdM/pzP2CNp+Fn/xrTbXSMmPWHSXjcNWajH3bxkpl0eWsllj1vgQ5LtlesJc42EgXZ5qCcD+e4mK+8eyhyze17h1r1cGQAAoBFQwAIAADWz8cITJk7YNXVmYN5qZrNcfqzLjrHAjnGFx5jbMS4dI+kYyY6R/BiZjpFrOukd1LCk3XLtltluyXebtNul3Wa+OwyDXWba7fLdGfftHvhWC7PbZ6/s3W56TrENAAAgxihgAQCAimzKnznJh3dOzwYTWj0TtgWhpocKWi3wtgOFp1a52mSaLqmF/kdseoG7FKoo0y6ZBiQV3bXLzAZcYdFC7coEwcCsGRM22SVrRwgMAADUt+sCAABwCPeftaB52uRJc8ph2GYKWkPpRAu8TVKrpBPlOkn7Z0wh3T3GXZIecKlo7gPuwQOBwmIYBANZ6YFZO2Y8bGvWlAgKAABUrzsCAAAa1mBX56xyJlxgrhMlm+vS3MD9eDfNk2uupONICaMwIqko6WHJHzYFm0P5Zskfynjmgb1HP7Zh/qUPDhETAAAYLwpYAACk3ENnd0xvatKJZjoxlE4085xMC+VaIOloEkKNep27JD0g6QGTP6BQd7kH/RObJmw4trD2UQICAACH70oAAIDE25RfNCcIw9PMdZKbLzDXAplOOlCkmkRCiLmtkjbIbYMs3OCm35rs/mBycHfL5b1PEg8AAKCABQBAgjx0dsf0pglhTkGwUPKcXAsldUqaRTpIqaKkfpnukqxfYXhXU7l058zV9z5ONAAANA4KWAAAxNDD557SlmmasNCkE59RqFokaSbpAJKeU9hy6YEgyN7ZWrhjO9EAAJA+FLAAAKijjReeMHHiY1M63IIzJD9DbmdIvlDSUaQDjMvDkvoku0PudwTZ4I6WQu9GYgEAINkoYAEAUCPbzz3lqJFMdpECWyz3hZLlJL1YUjPpAFXkekymPpnWWuhr3YP+XU1hX67Qv49wAABIBgpYAABUwe/2qrLFcu3/x3SqpIB0gFgYket+mdbKtFahr1Vp4u1t167dQzQAAMQPBSwAACrkFy1uKm7b16mMv/IZxaqFJAMkTkmu+/YXtewXpvLNLcvvusskJxoAAOqLAhYAAGP08LmntDVlJrzCgwMFK5YBAul1YPmhmf8ilG72sHzL3JX37CAYAABqiwIWAACH8dS+Va7gFQr8leZ6mXgTINDoHpB081NLD3dl9Wv20wIAoLooYAEA8AwPn3tKW6Yp+2pze5Vcr5bpNJ6XAI7gSUm3mtnP3bVmeNrjv55/6YNDxAIAQHTokAMAGtrTywEtfL3cXknBCkAESjLdafIbQ+nmScHEnx1bWPsosQAAMH500AEADWVrT8eJYRi+0k2vkOwPJM0nFQBVVpZpnaSbLbRflLLhj+cV+ncSCwAAo0cBCwCQapt6Tjs5q8zr5Xq1S78vqZVUANRZWdKdkv3MFd40oVS6aebqex8nFgAADo0CFgAgVbblc1NHQr3GXG9khhWAhCjLtG7/ksPgxt1B+DM2hQcA4NkoYAEAEs2XLMkWj9mxyE2vN/PXS3q1pCaSAZBgT0q61d1uNNeNbav61hIJAKDRUcACACTO1p6OE8vS6yV/vUL9oUzTSAVAihUl3Whu17J/FgCgUVHAAgDE3s784qOHS/ve4NLZZvoDl7eRCoAGVZa0VvIfWKjrWk7v/40tU0gsAIC0o4AFAIilwXzn/DD0P3D5OeZ6g6QJpAIAz/OITDdZ6Nc1Zydec2xh7aNEAgBIIwpYAIBY8Hw+Uxy553QP/BwzvVGuxaQCAGNSkvQrd7vWAl3TtrzvHiIBAKQFBSwAQN1syueOzZaC17n5OdpftJpOKgAQmQdkus5l17bNmPBTu2TtCJEAAJKKAhYAoKa2Lm0/qRR4j7neKLPfk5QhFQCouh1y3WCy1TbVvt9yee+TRAIASBIKWACAqtv/1kA/R668pN/j+QMAdTXkphuD0AvsmwUASAoGEACAqij2LMyFHuTNlZdpIYkAQCyVJf1SpkJmRN+bvXr9ViIBAMQRBSwAQGSeLlrJ3yLZC0kEABLl6WJWaWSkcPzqeweIBAAQFxSwAADj5ssUFO/M/Z4Cy8vVLWkuqQBAKoQy3eGu68KMf3teoX8DkQAA6okCFgBgzIo9C3OSXeBufyaplUQAIPWjhrWSLs8GfuWsQv8ggQAAav8oAgBgFIpLTz8htPKbzMK/YHkgADSsA8sM7bLmPXu/N+OGDY8RCQCgFihgAQAOaVN+0ZxMWD7/wNsDX0EiAIBnOPA2Q7tsZza8Jlfo30ckAIBqoYAFAHiWjUtPP2aijZwbBpY31/8nKUsqAIAj2C3pWjcvtO2YeYOtWVMiEgBAlChgAQC08cITJk58fOq5Lv8Tuf1/kppJBQAwTpvd9D0v+3fmrupfRxwAgChQwAKABvaMzdj/UtJxJAIAiJTrLpddlpF9s2Vl7zYCAQCMFwUsAGgwD53dMb1povKSv1Ou00kEAFAD+9z0wyC0y1pmTlhll6wdIRIAwFhQwAKABuD5fGYgvOc1Jr9IrqWSmkgFAFAnRZkKZenr85av7yUOAMBoUMACgBQb6Ok41RRe6G5vk9RCIgCAmI1G1kq6vBz45fMK/TsJBABw6EcGACBVduYXHz1cGjrPzS6Q9Dru9QCABBiS6VqXXdK2vO/HJjmRAACeiUENAKTEwNKOxQrCiyT7U0lTSAQAkNAByobQ7WtWGv5627X3PUIiAIADzwcAQFJtvPCEiRMfPeocN79Y0itIBACQIsMyrXbZJXOW991IHADQ2ChgAUACbe5a9MJMUPoLd3u7pBkkAgBIubvd7VulfbrkBdf37SIOAGg8FLAAICH687kJx5aC89z8IrG3FQCgMT0u+RVhqC/NXdW/jjgAoHEw+AGAmNuUXzQnKIVvNfO/kTSXRAAA0IE3GNol2jfh223Xrt1DIACQ9ts+ACB2XLLi+e1/oFDvlXSWpIBUAAA4qEdM9g3PhP/TVuh/mDgAIJ0oYAFAjNx/1oLmqROb3+Rm/yipnUQAABi10E3fl+zzbPoOAOlDAQsAYmBbPtcyUrZ3mPRuSceRCAAAFbldZl8ZPurxy+Zf+uAQcQBA8lHAAoA6GljasViBXyzpzZKaSAQAgEgNuvQVG9n3323X3vcIcQBAclHAAoAa82UKBvpyZ5vbeyW9nkQAAKi6YUlXBWX7dMs1fX3EAQDJQwELAGpkZ37x0UPh8IVy/b2k40kEAIC6uNncPt+SPXWFFQpl4gCAZKCABQBVNpjvnF8O/X3m/ueSJpMIAAAx4LrXTZ/es3fo2yffsGGYQAAg3ihgAUCVDJ7X0RFm/B8lvUVSlkQAAIilrS59eV+Y/dz8Vet2EwcAxBMFLACI2EBX7pUe2PvNdTb3WQAAEuNxmb5ZGhn51PGr7x0gDgCIFwZWABABl2ygJ/dGc/uApN8jEQAAEmtY0lWeCT4+p9B7L3EAQDxQwAKACvhFi5sGtw+9xWXvl2khiQAAkBqhm74fuH+kdUX/bcQBAPVFAQsAxmHwgs4p4Z7w7XK9T9I8EgEAINVudvNPzVnefy1RAEB9UMACgDHYuPT0YyYGpYtdeq+kY0kEAICGGj79yuQfbV2x/nqyAIAa34GJAACObPu5pxy1LzPhXRb4++WaTiIAADT0IKpXbh9rWdl3tUlOIgBQk3svAOBQni5cmX9A0jEkAgAAnjGYopAFALW75wIAnmtTPndsULb3mnSxKFwBAIDDj6r6LLSPUsgCgGreagEAT9vcdeoMs+x7KFwBAIBxWG/un25Z1P9tW6aQOAAgOhSwAEDPKlz9raSjSQQAAFRgfyEru/A7ViiUiQMAKkcBC0BDGzjnhcdZU/M/uvxdkqaSCAAAiHC01WfuH2lZ0b+cpYUAUOktFQAa0OAFnVPKT/jfsDk7AACogfXm9pHWlX0FogCA8aGABaCh9OdzE6aHwYVy/7CkFhIBAAA1dItk/9y2ou9nRAEAY0MBC0BD8GUKBu/s6HHzT0o6kUQAAEAd3RiG/o9zV/WvIwoAGB0KWABSzSUrdrV3yfQxSaeRCICIbZdpi1ynSJpEHADGIJT0nSATfKil0LuROADg8ChgAUitLT0drzf3T0h6CWkAqJjrLplulfyXZbNfl4564r75lz44NNCVe6XMfka/CsA47XOzrzYF4cdmFfoHiQMADo6OFoDUKS7NvVSmT7jZ60gDQAVc0q3mWlnK+qp5hf4Nz/sDyxQUe9t/JenFxAWgQk9K+vxwmP30/FXrdhMHADwbBSwAqbGp57STM8p8Uq4u7m8AKvCoTN+S7Etty/vuOdwfLPbk3uZulxIZgAjtNNd/PDE09MWTb9gwTBwAsB8DPACJt7nr1BmBsv8m07skNZEIgHEqyvXJYGrw9ZbLe5880h8evKBzSvhkeK+kOUQHoAo2mukDLcvXF2z/jFAAaGgUsAAkVn8+N2F6GPyN5B+UazqJABinbTL7VDmY+qV5hVv3jvYvbeluX2bSh4gPQJUHbLeagr9vWdH7S9IA0OD3QwBIni09uXPM7bOSTiINAOMUSv61iZmJ/3RsYe2jY/mLO/OLjx4qDz8o6RhiBFALbrouK7t49vK+B0gDQCOigAUgUQZ7Fr4s9OAzkl5BGgAqcEvo/q65K/vvHM9fLnZ3/JvLP0KMAGps2F1f2OfZT7DRO4BGQwELQCJsOa99nmX0cUlv5d4FoAIjLn2iLXPaR61QKI/nAw7sffWgpOOIE0Cd7HS3/9ydDT+bK/TvIw4AjYBBIIBY25bPTR0p2z+Y9H5JE0kEwLi57vIgfOuc5XfdUcnHbOnqeL+Zf5JAAcTgxnafefDB1pV9BbIAkHYUsADEszu2TEGxt+OvJP+opJkkAqBCXx+e9sTfzL/0waFKPmTjhSdMbH5s6oOSZhMpgNj0m2Q/ybhd3LKydz1pAEgrClgAYmegp/3F7vqiSS8nDQAVKrnbB+es7PtURPent8p1ObECiOP9TvJvhF7+l7kr79lBHADShgIWgNjYls+1lMr2KUkXcH8CEIGtHqh7ztXrb4nqAwe6238hXiIBIOZdKjf9c1vH+kttmULiAJAWDBAB1J0vWZItznjk3XJ9WNLRJAIgAr8tW/msecvvvj+qDyzmcwu9bP1ECyAhI721YWjvmbuy71bCAJAGAREAqKdid+41xWMfuUOuz4niFYBoRm2/skzTmVEWryQpLNu7yRZAYrgWB+Y3D3S3XzbY1TmLQAAkvodHBADqYSCfO17l4DOSn08aACIbr5muC4Oj/nhe4da9UX7uxgtPmNj86NStMk0jZQAJHPXtcteH2nYe9yVbs6ZEIACSeSsDgBrqz+cmTA/tnXJ9TNJUEgEQoeuf3DvUc/ING4aj/uCBno6lcl9JxAAS7h4Furjt6vU/JAoAScMSQgA1M9jV/sbpZbv7wHJBilcAorRyV8a7q1G8kiSF3kPEAFLgVIX6v2J3+xUPn3tKG3EASBJmYAGouk35RXMyYfkLcnWTBoAqWNl6XPOb7JK1I9X48PvPWtA8ZdLErWKfPgDp8qi5/2vLov4v8bZCAEnADCwAVePLFAz0dFyUKZXvongFoEpuGp72xJ9Uq3glSUdNnPgHongFIH2OdrP/Lva23zbQ0/5i4gAQd8zAAlAVW3oWnmEefEXSS0gDQJX8pqk08tqZq+99vJpfMtDTcYnc/4q4AaRYyU2fy0wOlrVc3vskcQCIIwpYACK1LZ+bWgr1Ebm9R1KWRABUhetelfa9su3a+x6p9lcVu9vvd2kBoQNoAA8Frr9pWbn+OqIAEDcUsABEZrCr/Y2h6b8lvYA0AFTRzrKVXz5v+d33V/uLtpzXPs8yepjIATQSN12nkt4155r1m0gDQFywBxaAim3vPq11oLv9stB0rSheAaiuEZOfX4vilSQFgb+GyAE0GnO90TK6e0tXx/s9n8+QCIA4oIAFYNye2qR9xDP3SLqARABUf1Rlf9O6ov+mWn1daKKABaBRTTHzTxbL99xW7M6xpymA+ncDiQDAeAx2dbaHFn5DbNIOoGa9Fv9s2/L+v6/lVw50td8j0ymED6DBlcz8M0NHPbls/qUPDhEHgLp0BYkAwFj4kiXZgek73mfmH5bUTCIAatRhuXVnxpfkCv37avWdgxd0TgmfDB8TM9YB4Cm/Nbe/bF3Z91OiAFCH/iAAjHIwd15HR5jxb0h6MWkAqKGtpdLIi45ffe9ATe95PQtfFnrwS+IHgGdxyb+azeh9swr9TxAHgFrhN4oAjqg/n5sw0J37SJjxtaJ4BaC2SgqCfK2LV5JU9qCd+AHgeUyyi8plu2Ogu+P3iQNArVDAAnBYm7tyi6aXg19K9m+SmkgEQG35h9uu7v15nTpJi8gfAA5xd5YWSL5moDv3le3nnnIUiQCoQd8MAJ5v44UnTCz25D4ZmP1G8jNIBEDtR0f+89bMwv+o3+DMTqYRAOCwTLKLRrLZ3i09Ha8nDgBVvuEAwLMNdne+PFT4DUmnkQaAOnnUwuzpravWPVivAxjo7lgveY6mAIBRjy4L5cDfMa/Qv5MwAESNGVgAfjdYO2fx5IGe3H+FCn8hilcA6sjN31nP4tWBo5hDSwDAWG6bymfKdmexp+OPCANA1JiBBUCSVOzOvcTdLpfpFNIAUN/eiV/Ttrx/aT0PYfu5pxw1km16jMYAgHG7vKk08u6Zq+99nCgARIEZWECD8yVLslu6Ot7vspspXgGIgR2ZEfvreh/ESKZpLk0BABW5YCSb7eVNhQCiQgELaGBbezpOLB77yBoz/6R4wyCAGHDz98xevX5rDI5kBq0BAJWyEyS/aaCn/fP3n7WgmTwAVIICFtCIA0TJtnS3v6fsvl7SK0gEQCyGObLVc5b3XxGLg8nYZFoEACIac7reO2XyxF8OdnW2EweA8d9MADSUbflcS7G7/VqTviBpEokAiIk9CjMXx+ZoyppKkwBAhFynhxbetqWr4/2+jHEogLHjxgE0kGJXR75UtvWSziYNAHFipmX1f+vgMw9IU2gVAIjcRDP/ZLG3/edbl7afRBwAxoICFtAAduYXHz3Q3X6Zm18liX1dAMSM9bfMaP5crA7JKWABQBX9Xtl0+0BPx0VEAWC0KGABKbelp+P1Q+Xh9ZIuIA0AMeSm8D12ydqROB2UyTM0DQBU9UY7Te5fGehuv3rgnBceRyAAjoQCFpBS95+1oHmgu+Oz5v5DSbwOHkA8uX2vdUX/TbE7rCAYoXEAoCZ61DShd/P5na8jCgCHQwELSKHBfOf8yZMmrpH8byUZiQCIqb2y0j/H8cBcXqJ5AKBmWoMw/NFAT/vn+/O5CcQB4GAoYAEpU+zK/VlYDntNejlpAIg3+0zbirsfimUHKaSABQC1fijI9d7pZfsFG7wDOGj/jAiAdNh+7ilHDXS1X+5m35J4/TuA2NvavHfvp+N6cG4BBSwAqI+XlE23D3R3/AlRAHgmClhACgz0tL+4lG26Xaa3kgaAZPAPzrhhw2OxPTqFT9BGAFAnpmmSf2egu/2rA+csnkwgACQKWECyh3+SDfS0XyzXzS4tIBEACXF/686Zl8a7h2SP0EwAUHdvV9Pw2s1Lc6cTBQAKWEBCFfNnzCx2t18r1+cksdklgMRw93+3NWvivUTPgh20FADEwqlBYLcO9LRf7LycCGhoFLCABBrsyr1W5dI6SWeTBoBEMfW1Leq/Ku6H6aV9zMACgPiYKNfnij25lZu7Tp1BHEBjooAFJIgvWZId6G7/RGj2I5e3kQiAxHU8Qv2LLVMY9+Ocs+ieXVL8jxMAGqszbOcFlr1jS3fuFYQBNB6mYAIJsS2faymV7AqZlpAGgIT6TduK9S9JysEOdLcXJbXQbAAQOyNyf3/ryv7PmeTEATQGZmABSRhEnd/5qnI5WEvxCkCimX08SYfr0oM0GgDEUpPM/muwu2PVxqWnH0McQGOggAXEe/C0/y2DYfhjlgwCSPgN7a7Wjr7VSTpkc9tIwwFAnB8tfm5zUPr1pp72TtIA0o8CFhBTO85aMK3Y3XHVgbcMNpEIgEQPMgL/WBL2vnoW8wdpOQCIvZMzrl8NdOX+iiiAdKOABcTQlp6FZwxPmniH5OeTBoCkM2lDW7DwqsQduDszsAAgGSbK7JKB7vavbbzwhInEAaQTBSwgZga6cn9lHtwi6UTSAJAK7p+zQqGcwE7Sb2k8AEiUv2x+7Khbti5tP4kogPShgAXExMYLT5g40N3+VZldIonfHAFIB9OuTFbfSuKhh6WRXhoQAJLGzyibbi9251jJAKQMBSwgBjb1nHbyxMem/krS20kDQLrGEfryrEL/E0k89LZr73tE0iCNCAAJY5rmsqsGeto/7xctZi9ZICUoYAF1tqU7d24mzPzGJd6eAiBtRkIF/5vwc+ijGQEgkUyu9xa3D/+wmD9jJnEAyUcBC6gTl6zY0/HvJlsp0zQSAZC+kYOWz13RuznZN2ungAUAyX4YLfHyyG1behaeQRhAslHAAupg+7mnHFXsbl/u7h/m5xBAWrnsS4kf9wRiHywASL4XmAc3D3R3/AlRAMnFwBmosU353IKRbNMtkrpIA0CK3d26ou/nKegp3UZTAkAqTJL8OwPdua/4kiVZ4gCS2C0DUDMDPbk/zIT2a0ntpAEgzcz9f0zypJ9HS6H/bkm7aVEASM0T6qLisY/cyL5YQPJQwAJqZKCn/WK5XS/XdNIAkHJPNGcnfjsVw5z9RThmYQFAurzayyO/GVjasZgogOSggAVU2cA5iycXu9uvkOtzkjIkAiDtTCocW1j7aHrOyH9JqwJA6hyvwNcUu3PnEwWQDBSwgCra3N05V03DP3XpzaQBoFG47NI0nY/JfkWrAkAqTXXZVcWe3Cd9GWNjIP59MgBVUezOvcZlV0k6jjQANJCNrSvWn5SG/a+esimfOzZTtu3iF38AkGbXT8w0/2m6ZhAD6UJHDKiCge7c2132A1G8AtBgTPpWmopXkjSv0L9T0jpaFwBS7eyh8vBtW/KdpxAFEE8UsIAIeT6fKfbkPinZVyU1kQiARrsNBqG+ndJzu4nmBYDUO9nK4S3F89uXEAUQPxSwgIhsy+emDpbvWeFu7ycNAA3qltmr1v82jSdmFLAAoFEc66F+UOzJvY0ogHihgAVEYFN+0ZxS2X7q8nNJA0CjcunKtJ5btjTyM0kjtDIANIQJ7nbpQE/759ncHYgPfhiBCg32LHxZplz+jaQXkQaABhaWSyPL03pyM1ff+7hJv6GZAaCBuN5b7O24cuCcxZMJA6g/ClhABYrdufNDD34iqYU0ADR4J/9nx6++dyDlZ/kDGhoAGu4Bd74mDN+85bz2eWQB1BcFLGBc4zTZlq6O97vsSkn8RgZAw7NAVzXA3f/7tDQANGTn//QgY78cWNqxmDCA+qGABYzR/WctaC52t19q5p/kZwgAJElh1sur0n6SLZ39ayVtpbkBoPG4vE2Br9nS1XEeaQD1weAbGIPNXafOmDJp4g8l/RlpAMBT7LaZK+4upv4slymU2//R3gDQsKaa+cot3e3LiAKoPQpYwCht7lr0wsCyv5b0+6QBAM8UXtcoZ2oBywgBoMGZSR8a6G7/X8/nM8QB1A4FLGAUNnd1nBlY+WZJJ5IGADxb6Lq2Uc51qJz9oaQRWh0AGt47i+Fdy3lDIVA7FLCAI9jSnTs3ML9R0nGkAQDP8/Dclf13NsrJzl+1brekNTQ7AEBu56lp+KZi/oyZhAFUHwUs4DAGutrfYbIV4k2DAHBwpsZbUudaQcMDAA54qZf3/WJrTwcrNYAqo4AFHHRsItvS3b5Mpi9JYm07ABz6hvnDRjvlTFkrJYU0PgBgP3th2f2WgaUdi8kCqB4KWMBzx2JLlmSLPR1fMelDpAEAh1UeGbY1jXbSs1ev3yrplzQ/AOCZjwcF/tNid/vZRAFUBwUs4Bm25XNTizO2r5b7X5EGABzRr15wfd+uRjxxc62k+QEAzzHFpWsGejouIgogehSwgAO25XMtpbL9VG5nkQYAHJlLP2rUc7dssHx/BAAAPEtG7l8udnf8G1EA0aKABUjaku88pVS2WyS9iDQAYHQsCH7cqOfeUujd6NKvuAoAAAd7RLr8IwPdua94Ps9+ukBEKGCh4Q12d77cyuHNkuaTBgCM2vDw1Mdua/DRyRVcBgCAwzwpLhos371yU/7MSWQBVI4CFhpasTv3mlDhDyXNIA0AGJPb5l/64FBjd6KC70kqcSkAAA7FpXMypcd+sDO/+GjSACrtewENaktXx3ku+76ko0gDAMbs540eQMvK3m1y/YRLAQBwWGavGirvu2mwq3MWYQDjRwELDWmgu/0CM79a0kTSAIDx9MXtF6QgmRnLCAEAo+BnhBbeurWn40SyAMaHAhYaTrG7/X2SviUpSxoAML5e+L4h3UoM0oS9e1dIGiIJAMAonFh2X7Ml33kKUQBjRwELDWVLV8f7Xfp/kow0AGC8/P4XXN+3ixykGTdseEyy60gCADBK86wc3jLYs/BlRAGMDQUsNMZQS7KB7o7PmvknSQMAKvYbInjmQ8ZZRggAGItjQw9u3NLT8XqiAEaPAhbSP65YsiRb7Or4puR/SxoAEAEL1hLC7zw5NHS9pN0kgXEalrSKGICGM9Xcrxvobu8iCmB0KGAh1e4/a0Fz8dhHrpL520gDACLizMB6ppNv2DBsrhUkgXHYoSD4A5dNIwqgITVLuqrY3XEhUQBHRgELqbUzv/joKRObfySJ32oAQHS8qbTvDmJ4tjDgbYQYs3syZi910zaTv4Y4gIaVdfnXi925dxEFcHgUsJBKm7tOnTFUHv6JzF5FGgAQqQdnrr73cWJ4trbg1JskFUkCo3TTyLD93uzlfQ9YWP5r8XIZoOHH5S77n4Gejg8QBXCYHxQiQNoU82fMzFj2J5JeRBoAEC039ZPC81mhUHbXt0kCo3DZroz/fy+4vm/XpvyZkyS7kEgA7H/I+n8Uezr+nSCAg6OAhVTZls+1eLl0k0udpAEAVeg4uN1FCgdn0jdJAUfwtdbO9X+eK/Tvk6Rs+NgfyzWdWAA8xd0/PNDV/jGSAA7SDyUCpMW2fK6lVA5ulDxHGgBQpY61fD0pHFzbyvV3u/RLksDBmOsbrZ3r/9qWKXz6X4a6gGQAPP+GoX8d6G7/fwQBPBsFLKTClvPa55XL9nOKVwBQZSEzsA475nD/Bing+ReGfbVl0fq/embxauu57bPdbAnhADiE9w10tX/O2SMPeBoFLCTeQD53vGV0k0sLSAMAqqt5eO/9pHCYfIaGr5S0hyTwDF9v7eh7x7NmXkkqZ/QmSRniAXBIpouL3bkv+zLG7YBEAQsJt3Vp+0kq288lnUQaAFB1j8y4YcNjxHBoB/K5miSwf/BpX21d8eyZV88YmL6JgACM4kZyUbG3/SsUsQAKWEiwzV2LXlgOtEbS8aQBADXpRP+WDEaRUsBm7pDcdF1rcOo7TfLn/reBfO54SWeSEoBRenvxzo5v+5IlWaJAI6OAhUQa6Go/LbDyGklzSQMAasPkG0nhyFquXv9TSRT7GvpnRbeGwVF/bIVC+aD/vWx5sa8NgDHdWPwtxek7LqOIhUZGAQuJM9DVfppMP5bUShoAUDvuFGVGNcaQ3GTfIomG9YB5sHRe4da9h/xZks4mJgBjf8D4W4rH7rjCL1rcRBhoRBSwkCiD53V0yPQzUbwCgHrYTASjE5b9Uukg+x4h7baXM/6HLSt7tx3qD+w4a8E0Sa8kKgDj4+cXHxm+kiIWGhEFLCTGlnznKWHGfyjpONIAgDp0mc0HSGF05lyzfpNcN5JEQ9nrgZbOK/RvONwf2jep+Q2SGHgCqERX8ZHhK1hOiEZDAQuJsLlr0QutHN4kqYU0AKBOnYZQg6Qwem76Bik0UnP7n825ev0to/iTZxEXgAj0FI995FLP5zNEgYbpixIB4m7r0vaTAiv/RCwbBIC6Ct2KpDB6+6Y9cY2knSSRfu76f60r+q8+4p+TzE0UsABE5U8Hynd9zZcxrkdj4EJHrA3kc8eXA/1I0hzSAID6jtHbZjczA2sM5l/64JBM3yaJ1LulbWbzv47mD27t6syJX8gBiJDJLhy8s/2rFLHQCLjIEVtbzmufp7KtkTSfNACg7j3k3XbJ2hGCGGts4SWkkGqDTSqfP9qfjVAhm7cDiJyb/mKwN/d5l4w0kGYUsBBLW89tn20Z/VAUrwAgJr1j7SaEsWtdfle/pJtJIpVK5vbmmSvuHv3SWuPtgwCq9Zi2vyl2tX+WJJBmFLAQO4NdnbPKGf1E0qmkAQAxYXqUEMYZnflXSSGF7er659aVfT8d41+jgAWgms/qiwe6cp8hCKQVBSzESjF/xszQ/CcyLSQNAIgRp4A1XqVg2lUy7SKJNI0RbXXLyvVjGiRuOa99nqQXkB6A6t6g7O8HunMfIQikEQUsxMbmrlNnqDxyo+Q50gCA2A3YKWCN07zCrXvN2cw9RbaZ21+Z5GP6W1ln9hWAWj21/22gO/dBckDaUMBCLOzMLz46sOwPXeokDQCIH5c/TgoVDCU8YDP3tPwsuF3UsrJ325ivgVAvJj0ANXzyfLTY3f4+ckCaUMBC3W3KnzlpqDy8WtKLSAMAYtoNlvaRwvi1rOxdb9KtJJH4n4NvzlnZd814/q5bcDoJAqgllz490JX7K5JAWlDAQn1vqhctbsqUHy9I+n3SAIA4d4J9hBQqZczCSrbN+4Zt3LMZTM4scwA1f/DI7EvFnvY/JgqkAQUs1G8wtExBcfu+b0k6mzQAIOb3bAsoYFWolJl6JZu5J1Zo8j97wfV942q/gXzueEnHESOAOsi46/Li0o6ziAJJRwELdVPs7fiMzN9CEgAQfxZ6iRQqs38zd/8OSSTxB8A/37qi/6bx/nUv63RCBFBHEzzwqwe6crxMAolGAQt1MdDV/jHJ/5YkACAZPBAzsCJgZTZzT6CN2jexord5GS+pAVB/kxXY6sHzOjqIAklFAQs1t6W7/T0y/StJAEBymFPAikLLNX19Lv2SJBLUWXa9t+3atXsq/Al6IUkCqDvX9DDjN27Jd55CGEjkM5kIUEvFrtyfmfR5kgCAxPV6WUIYFdNXCSExbbWiZeX66yr/GC0gTAAxMcvK4Q8P7M0HJAoFLNTMQE/HUjf7+v5+HAAgUeN4CyhgRSQMjrqCzdwTYY+Vs++L4oOcAhaAeDle5eD7m7tOnUEUSBIKWKiJwa7ca+X+PUlZ0gCA5HFnBlZU5hVu3euy75JEvJn0762r1j1Y6efsOGvBNEkzSRRAzJ7sucCy399+7ilHkQWSggIWqm6wZ+HLQrNrJDWTBgAktJvLEsJo8wxDlhHGmamv5bjmL0TxUcOTJjP7CkBcvXQk27Ti/rMWME5DIlDAQlVt7lr0wtCD6yRNJQ0ASPB4niWEkZq7sv9OyX5FErHk7v5Ou2RtJC8uMJVPJFIAMfb6qZMmXurLqA0g/rhIUTXF/BkzAytfJ+k40gCAxI/oeQth1JnKmYUVT9+ds6L/5sja2WwOkQKI9/NIby72tv8nSSDuKGChKgbOWTw5LI+slnQyaQBACjoMJmZgRcxGmq+QtJskYmVfxuzfI/3E0FuIFUACvG+gO/e3xIBY90eJAFHzixY3qWnfcpNeThoAkJJ7OzOwItd27do9kq4gifgw2edmL+97IOLudivJAkjIXfAzxa6OPDkgrihgIdoBjmSDjwx/RfL/jzQAIE0De/bAqoYw9EtIITZ2DIWZ/6jCD89sogWQlPqAm182cH7nq4gCsbxAiQBRKnbnPuzSn5MEAKSM+R5CiN7cVf3rJP2aJOJwjeuj81et2x39x3ob4QJIkIkKw2s39bR3EgXihgIWIjPQlfsryf6NJAAglaP7J8igOlxiFlb9/XZX4F+qUvvOJF4ACXN0xrX64XNPoQCPWKGAhUgUu9vPltn/kgQApJO7KGBVSWZK8D25HiOJ+jH5B3KF/n1V+vhjSBhAAr0gm236wcalp3MPQ2xQwELFiktzL3XpSklZ0gCA1A7xKWBVScvlvU8q0HdJom5+07Kif3k1PtiXLMlKmkTEABKqvTkoFfrzuQlEgTiggIWKbO3pONEDWy1pCmkAQHqFTgGrqvmG/mVSqA+Tlpnk1fjszTO3TyNhAAn3+mPL9i2XjChQbxSwMG4D57zwuND9BxJv1wFwULuJID3C8hAFrCqau7L/Tkm3kUTN/aZlxfrvV+vDM+XwKCIGkHQuvbnY3f4xkkC9UcDCuPTncxPUNGG5SwtIA8AhnjBvGhm2Y03+Usne4a6rJG0nmGSaMlKmgFX1EYJ/lRBqHLn5R6o1+0qSAm+igAUgLf6l2JN7GzGgntizCOMyvRRcIvPfJwkAhxTqz15wfd8PtX9WyW2SvuKSFc/vfKWF4Z+7lJc0laCS4dipZzwpbSCIanbKsrqiVNZnJFH0qAXT2rbl/ddV+Tu4xwFIDXf7ysD5nQ+0Xd37c9JAPTADC2M20NPxAZlTfQdwJF3bzz3lqGeP5eRtV/f+vHXF+r/IZrxVrotNNkBUsbfXCoUyMVTXrEL/EzL7HknUaiBW3dlXkhR6mV8WA0iTZoXhiq1L208iCtQDBSyMyUBXe7fcP04SAEZhcqkp2324wXrbyvVfGJr2+Elu9h5JW4kstlg+WCNWDr9GCjVxe9uK/mur3p6mJqIGkDLHlQNdt3Hp6ccQBWqNAhZGbWBpx2KZLue6ATBa7vbHR/oz8y99cGjO8r7/Hg6zp0r6kqSQ5GLncSKojdZV/b+WdCdJVP3eVPXZV5IUujEDC0AandoclAp+0WKK9KgpChEYlU35RXMs0GpJk0kDwBi8bmd+8dGj+YPzV63b3bZi/btM/nK57iK6WNlJBLXjZszCqmrAuqttZd/qmnS0KWABSK/XFx8Z/iIxoJYoYOGINuXPnJQpl1e6vI00AIxR81B539lj+QutK/pvGz76icUyfYH44sIeIYPamRRMuFzSHpKoDg/0mVrMvpKkMBNSwAKQZn890J37W2JArVDAwuE7ecsUZMqPf1fSS0gDwDh1jfUvzL/0waG25esvdunNYvlaDITMwKqhYwtrH5W0nCSqYnDPnqHv1K4jJSNyAOlm/2+wq/2N5IBaoICFw/fyejv+Q9JSkgAw/gGcv2G8eyTMWbH+yqBsr5D0EEHWsw1tOyHUfEDAMsLq+OLJN2wYrllHOwxGiBxAymVC0xWbu3KLiAJVf64SAQ6l2N1xocv/iSQAVDYO17SBR4ZeOt6/3nJNX1+TymdK+g1h1qkJzXaQQm21rej7maS7SSJSe0IvfaWWXxhmRAELQCOYGphdvym/aA5RoJooYOGgBrpyr3T5V0gCQCRcb6jkr89ccXcxmBIskXQjYdaj/VhCWA8mfZ0UoszTvzF35T01Lcaa2TDJA2gQc4Jy+er7z1rQTBSoFgpYeJ4t57XPk9nVkiaQBoCIRnFvqPQjWi7vfXJ42hPnSPo+gdZWKDEDqx4yTZdJ2kcQkSgHFny25h1tL9F+ABqnuye9fOrEif9LEqjac5UI8EwbLzxhomW0QtJs0gAQYYdm8eAFnVMq/Zz5lz449OTeoW6TrSbVWvYWAt5CWAethTu2y3QNSURyF1o5e3nfA7X+1tCzLCEE0FDc9BfFrty7SQJV6ZISAZ6p+bGpX5H0YpIAELEmPVF+WRQfdPING4Z3ZsK8pB8Qa62UmYFVr4FAqK+SQuXM9d91asC9pA+g4Z5dZp8d6O74fZJA1Chg4WkDXbm/k/RnJAGgOp2Z4BVRfVau0L9PI83dkm4h2RooMQOrXtpWrr9R0m9JoiJ3t6zs+1k9vriczTxG/AAaUJPkKwbznfOJAlGigAVJ0mBX7rUy+0+SAFAtLn9FlJ/Xdu3aPZZpWirXvaRbXZlpAZu414lJLtM3SaKSe4++ZJLX47ubVXqUFgDQoGaEYVjYlD9zElEgKhSwoOLS008Iza6UlCUNAFW0OOoPbC3csT3IBmdJYoZQ9TzRcnnvk8RQP6WRkW9KKpHEuDw5KdN8Wb2+fGah/0lJZZoBQENyLc6UH+fN9ogMBawGN3hB5xQPSqskHUcaAKrsuC3ntc+L+kNbCr0bTf7HktgsuTq9zwEyqK/jV9874Kb/I4lxMPvusYW1dZsFdWAGHcsIATSyCw5sVQNUjAJWIw9JJPMnw69JWkQaAGoi66dX42NbV/Tf5NL7CLgqQ/AtZBCDVghZRji+zo59OQYdLgpYABr8IWafHujK/X8EgUpRwGpgA10d/+TSm0kCQO0eOsEZ1frsOSvWf9Fc3yDlyAsAg4RQf7uyfp2k7SQxhktX+mXbit7bY3AovMUTQKPLyOzbbOqOyscSaEhbutr/wMw/ThIAajui9NOq+fFDRz/xbpN6CTrKIoBvJoX6yxX698n1XZIYQyfX/UuxOBDzrbQGAGiGl8NVgxd0TiEKjPvZTgSNZ2tPx4kW6EpJGdIAUEsuO6Wanz//0geHzIM/lbSXtCMaewfMwIqLUM4ywtF7tJSdVojFfc9FAQsAJLnUGT7hXyUJjBcFrAaz8cITJpblV8k1nTQA1KHr8kKXrJrf0LKyd71cf0/WUQ2+nT2wYmLuyv47JbuDJEble/MKt8aikG0uisAA8Lub4luKXbl3EwTGgwJWg2l+/KgvyKN/lT0AjNKULd2dc6r9JW0r139Z0krijqCfKSuSQny4sc/bqHIKdFmMfoiYgQUAz3qW2WeKS3MvJQmMFQWsBjLQ3fEncv8rkgBQ1wdPoNps4Dmy7yJJ20i8MpmQGVhxEgbhdyUNk8Rh3d929fpb4zNQo4AFAM/R7IFdPXDOC48jCoxpHEEEjWGwq7NdYr0xgDiMwH1eLb6m7dr7HnHzvyXwypTLzczAipF5hf6dMq0micO61CSPy8GYBxSBAeAgjzQ1TbjC83n2ZcaoUcBqANvyuamhhVdJmkwaAOrNXfNq9V1zlvdfIdMKUh/vyFu72q5du4cgYtYsZWMz90MLvazL43VIpYdoFgA4qNcXy3f9MzFgtChgNYBSaN+QdBpJAIjFg8fCubX8vmzg75ZpF8mPpxQgZl/FUEvTqT+UxKyeg/vxnGvWb4rTAbXunL1FUommAYCDsWWbz+98HTlgVOMIIki3gZ72i+XKkwSAuHAFLbX8vlmF/kGT/pXkx9On1CZCiGGzFApluV9OEgdN59LYHdGaNSXJN9M2AHBQmSAMv7spv2gOUeBIKGCl2OaujjPl+jRJAIgV95pv2NkSnHaJTGsJf6wjb20khHgKlf2mYrTPUzzuLXqsnJka07ePGssIAeDQZmXK5Sv9osVNRIHDoYCVUgPnvPC4wPxKSdwEAMRsHKeaF7CsUChb2d8lKaQBxlAPcKeAFVNzV955n6RbSOJZ95ZV8wq37o3nD5M9SAMBwGG9orh96JPEgMOhgJXGAccyBWqa8G2pdhslA8AY1OWVya2r+n8ts68T/5g6CQ+QQqyf+JeSwe9YaN+L7bGZfksLAcARb5Z/V+zOnU8QOEzfFGkz2NfxQUl/SBIAYurouvWLguy/SnqUJhgdN2aNxFlTqXSlpCdJQpK0s2XWhBvj+8Oke2giADhyV81lX9uUzy0gChwMBayUGTi/81Xu/u8kASDGJtTri1sLd2yX9CmaYHTKgTMDK8Zmrr73cUnLSUKS2XK7ZO1IbH+WFN5HIwHAqBydCe17/fncBKLAc1HASpFN+dyxCsPvSMqQBoAYy/iSJdm6DSQzR31OEm8EOxLXY/MK/TsJIt6MZYQHLlddFevjy067T+zBBwCjvakvPia0jxMEnosCVppGhGX7utj3CkACbJ45XLcXTMwr3LrXzD9IKxwBbyBMhJYV/Wskf7DBY9jetmPGmjgf4IHN5TdxxQLAKLshrvcNdrW/kSTwTBSwUqLYlXu3pKUkASAJSiN7m+s66O/ov1zSnbTEYXuODxJCAppJcjNd2eAxXG1r1pQScJzsgwUAY3jEhaavbcvnWogCT6GAlQLFnoU5N/s0SQBIikkW1nVfA1um0N0+REscFvtfJac3d1mDj3G+l4SjdFMfFysAjMnsUsm+5cuoW+CpLg8SbeCcxZM9DK6SNIk0ACRFOQyb630MbSv7Vku6ndY4hJA3ECZFa6H/LjXujMJia2ffL5JwoObq5WoFgLHePPWGgd7cPxAEJApYydc0/HmZFhIEgCTJmur+ZhmT3OUfpjUO2UFgBlaCuPy7DXrqq2xZMjZHLxvLlgFgfH02+/jmro4zSQIUsBKs2NWRl/R2kgCQNOWMNcXhONpW9F8r01pa5Pk86xSwktReynxXjfiWO/NrknKojwV+j6R9XK0AMGbZwPzyHWctmEYUjY0CVkIVl55+gptfQhIAEvnwCWw4FmNfZmEdSmmntIEYkmPuit7NLlvTYKf96K5ANyXlYHOF/n2S7uZqBYBxOWl4UvOXiKHBxxBEkDy+ZElWQem7ko4hDQBJZMPhnrgcS9vy/uvE5srPfdI8cGCwjUT9YPl3Gup0pRsSeJ2yjBAAxn/n/5Nid8eF5NC4KGAlUPHYRz7sEmuAAST44TMSmwKWSW6h/z9a5ZmZBPeQQvJM3DN0taS9jXK+obQqacfsZrdxpQJABfdR+X8P9HScShKNOoZAogx0d/y+pA+QBIAkO65l6lCcjqdl5sQrJG2iZQ4UBtzvJYXkmXHDhsdkuq5BTnd44t6hGxLX8S6Hv+ZKBYCKTJH8237R4iaiaDwUsBJkWz431eRfp90AJNyIXbJ2JE4HZJesHTHp8zTN070DZmAllIfWGMsIzX8y44YNjyXtsHc2aZ2kYa5UAKjkYafFxUf2/TtBNGIXFckZ8ZX1RZcWkASAhHc6YrnEKVsauUTSbhpIklHASqq2mRO+L2lH+u8jwTVJPOwDe3b1cqUCQMUPgn8ZOL/zVeTQWChgJcSWro7zTHYhSQBIPNOeOB7WzNX3Pu6mr9FAkpdLLCFM6o/XJWtHZCqk/RItlfZdm9iDN2MZIQBULlAYfn3wgs4pRNFIjY7YG+zqnGXml5AEgJSI7SbTWdmXJIUN3j7b5668ZweXaXK5+7fTfYa27vjV9w4k9ujlv+QqBYBInBzuCXkRTwOhgJUAoYX/K2kWSQBIiV1xPbDZy/secNP3G7x97uYSTba2Ff23SHogtSfonuif0dCDNVylABDVM0F/XexuP5sgGgMFrJgb6M69XVIPSQBIkWKcD85C/58G7wmy/1XCmeRyXZHaK9T8hiQf/9wVvZsl/ZYrFQCieey59I3Brk4mfDQAClgxNpjvnC/Zf5EEgLTd3uJ8cK0r+38g+X2N2w0M2P8qFT08S+cyQtOutp0zf5WCM1nDRQoAkZkVWvgVYmiA7g0RxJMvUxCWyt+SdBRpAEiZbfEeH8vl+nKjNo65U8BKgbblfffItDaFp3ajrVlTSsF5/JSrFAAitXSgu/0CYkg3ClgxNdCb+weZ8VpQAOnj8Z6BJUmhypdJGm7E5gnL6uUiTQv7bupuH6HdkIrzKDMDCwCq4IsD+dzxxJBeFLBiqNizMGeyD5MEgFQOqWXFuB/j3JX37JBpdQM2z84516zfxFWaDqHbVZI8Rafk5fK+H6ThRA78nD3AVQoAkTpaJX3bl1HnSCsaNmbuP2tBszz4rqSJpAEgjdy0NSGj/280YPPcyRWaHnNX9G526VfpOSNbd/zqewdSczbOLCwAiP7maq8q3pm7mCDSiQJWzEyZNOmDLnWSBIC0Cj0YTMJxtmYX/khSg81GMgpYqevHWyE9Z+P/l67WcfbBAoDqPPw+vrlr0QsJIn0oYMXIlp6FZ0j+fpIAkGbN5aFiEo7TCoWyZN9qqP4eM7BS2NMLr1ZKlhGa/EdpahrPMgMLAKpkUqDS11hKmMJuDRHEpBNz0eImU/ANSU2kASDFts1cfe/jSTnYjOmbStceQocVWpkCVsq0FfofTskywr1D0568NW1tI2kjVykAVIHZqwZ6299NEOlCASsmBh/Z9wG5TicJACm3IUkHO3t53wOSbm2QthnZs2ffXVyiaezDp2IZ4c3zL31wKIXN8xOuUACo0vNP+o/BfOd8kkgPClgxMNDVfprL/5UkAKSe2/3JO2S7okE6eXeffMOGYS7SFP7YlbyghM8kdLcbU9o813OFAkDVTAnL4dddMqJIBwpY9e6QLVmSlelbkppJA0D6nzqeuAJWEGSvlFRK/fOI/a9Sa8416zdJ9uskn4MF/uNU3hKnBD+UNMRVCgBV85pid8dFxJCS5yYR1Fdxxo5/kPQSkgDQCExKXAGrtXDHdkk/boC2oYCV6vb1JC8j3N0anHZHGtul5fLeJyXxNkIAqCb3/xzI544niOSjgFVHW/Kdp8j9QyQBoHH6D8GGJB63mad+GWFoRgErze1b1lVK7jLCm/a/FTSdzP1arlAAqOaNVtNUNpYSpgAFrHoN4pYpsHL4DUkTSQNAo2jeuyeRBawJe4ZXKuXLfDKh9XKFpleSlxG6Wao3OncLr+MKBYCqe/1gd8fbiCHZKGDVSfHO3MWSfo8kADSQrTNu2PBYEg98xg0bHjPZD9PaMCYbaFnZu41LNN2SuozQQk/1Et62FXc/JFMfVygAVJeb/9f27tNaSSK5KGDVwaZ8boHMPkYSABrMvcke/YcrUtuhk/+ay7MBOu4qX63kLSMcbFu5/u4GaByWEQJA9e+100cs+BJBJBcFrJr/zMgyZfuapMmkAaChmNYl+fBLga5VWt9GaPYrLtD0a1tx90OJW0Zo+nkjtE3oxjJCAKjJgNzO29KVezNBJBMFrBorduf+UtKrSQJAozG3RL9FbF6hf6ekNelsm5ACVqP8HCZsGaHLftYI7TJnUd+vJG3lCgWAGjwLzT730Nkd00kieShg1dDmrlNnSPYfJAGgEZU9vCPp52DylSlsmnDC3uG1XKGNIWlvI/QwbIgZWLZMoctv4AoFgJqY3dQcfpIYkocCVi3DtuxnJR1HEgAa0L5Hs0r8PjYjpdIqSWHKhs53J3VzfYxdwt5GuHvOov6G2dzcLLiGKxQAanbXffuW7twryCFZKGDVyObzO18n6a0kAaBBOwn9uUL/vqSfxfGr7x2Q7LZUtYw7ywcb7acxOcsIb7FlaSsYH9rwUY//n6RHuUIBoCYCk33ZL1rcRBQJajQiqL77z1rQHIThf0sy0gDQkANm9ztScy4pW+bjARu4N5qkLCN0b4z9r54y/9IHh+S2iisUAGqmvfjI8D8QQ3JQwKqByROb/0XSqSQBoGEHzAl/A+GzBtWm61PVNuXw11yhjWX/MkL9JvYHauEvGvBu+T2uUACoqX/b2tNxIjEkAwWsKtvcteiFZvZPJAGgkaVpBlbr8vVrJQ2m5HT2zNk9cz1XaONx6fsxP8S9e/YO/6bR2qV118wbJW3jCgWAmplUDv1LxJAMFLCq2zm0wMqXSJpIGgAaWCmbTc8MLJPc5f+XjgeVr7U1a0pcoo0nY2Hcl8L++uQbNgw3WrvYmjUlmVZwhQJATTt3b9jSlXszQcQfBawqGujquFDSq0kCQIPrnVXofyJVD0+zVOyD5bJfcnk2ptkdd92meM/0ublhx1GhsYwQAGp97zX73ENnd0wniZj3wYmgOjZ3nTrDzD9FEgAavkOQwoFoc9D8A0kjie8EmLP/VaP+XC5TKPmNcT0+N2/Y4mrLor6fS9rMVQoANTW7aaJ/ghhi3nclgmoF2/QZSTNJAkCjC81vTds5HVtY+6ikxBd/SpnsrVyhDSzGMwkzYaZh345pyxTKvMAFCgA15rpoy/ntv0cQ8UUBqwqK57cvkfmfkQQASObhLans47j/ONHtIm2YV7hzC1doA/9sBk0/kBTG8NB+27Kyt6E3MjfXFVyhAFBzgbm+7BctbiKKmDYQEUQ8oLlocZOH9t/7xwYA0PC2tK24+6FUDjAtSHQBy6Wfcnk2ttbCHdslxfFNfw2/N1vriv7bJP2WqxQAat5B6ihuH/obgognClgRKz4y9G7JcyQBAJJMt6T11HZlwl9KejLBp0ABC3KP3xs13Xi5wIEkLiUDAKhH/9U+tPXc9tkEET8UsCI02NU5S7IPkQQAPC21bxLLFfr3SfpFYk8g4xSwoEwMC5nmdgstI5Uz2W9KKpMEANTc0aWsf5IY4ocCVpQdDSt/StIxJAEAT7s5zSdnpqQuI3ygrdD/MJcnNDXzK0mlGB3R3tbjmvpoGOnAHnU/IAkAqEMfT/a2we7Ol5NEvFDAishgd+fLTfY2kgCApz3euuO4dWk+Qfdk7oNlLB/EAS2X9z4p050x+qH6jV2ydoSWedrXiAAA6tNdChV+0ZdRM4kTGiOKvtYyBaHCL4qN2wHgd/dG009tzZpSms+xtbN3naTdyeuSsXwQzxKbmZIu9r961j3muObrJG0lCQCoixcX78z9JTHEBwWsCBy4qF9MEgDwO+b+49Sf4zKFMr81acftHq7hCsXT13GMCliB7DZa5Bltc8naEXddRhIAUK8bsf3H5q5TZxBEXPoJqMhDZ3dMl9nHSQIAnvOA8cyNDXGibknbyH1T24q7H+IKxVNGRkZicw0HgdbSIs+5xSjzNUlOEgBQFzMylllGDDHpJxBBZbIT9VFJM0kCAJ5l2+yVvf2NcaoJK2C5/YTLE890/Op7ByTVv6hp2jVred9GWuTZ5q688z6l/IUYABDrrpPsnZu7cotIov4oYFWg2LMwZ+5/TRIA8LxH/Y3WIDMGnty791eShpPTCWMDdxz0yrg5BhfnWmOm0UGZ7OukAAB1kwnM/tvZ87ruKGCNfwBg7sH/SsqSBgA89x7ZOLN8Tr5hw7Ck3yTleLMBBSw8n7luqfsxyG6nJQ6RzRQrSHqUJACgbl450JN7MzHUFwWscSp2d7xF0u+TBAAc5OESZn/cSOdr5klZRrhx9vK+B7hC8Vxhxu6IwVGwgfshtFze+6Rk3yQJAKhjf8/t09vyuakkUccxBhGM3cA5iydL/imSAICD+m3rqnUPNtTgPwazV0bV8ZJfz+WJg2ky75UU1rVTagEzsA6jnAn/p95tBAANbk6pZB8ghjr2FYhgHCYM/52kuQQBAM/n0g8abvCf0a+TcaT2f1yhOJhZhf4nJN9Qx0PYyQbuhzev0L/BTd8nCQCoZ1dKf7/lvPZ5BFEfFLDGaLCrc5ZC/RNJAMAhHywNN8CaVegflPRwzA9zOJNx9r/CIbnbujp+PRu4j0aoLxACANTVJMvo48RQt3EGxtRvsPJHZZpGEgBwUHt9pPmmxjx1i/ssrJ/tn2UDHOIKNq2r33c7ywdHoW3l+hsl3U0SAFBXfzqwtGMxMdQeBawxGOhqP02yvyAJADikm9quXbunEU/c474BtbF8EEe4RML6zcAKw/oVzxLVRpKb6YskAQB1FSjwzxBDPYLHWHoNn5WUJQgAODg3u6FhH6hBzGdghX4DVygOJxuU1tWvi2V30gKjvM/ua/6WpJ0kAQB19eotXR3nEUON+9tEMDqDXbnXSvpDkgCAwwyAy41bJMmY/0ZSOaaHt6lt5XqWHeGwZq64uyhpax2+em/rruPupwVG58As12+SBADUl5l/pj+fm0AStUMBaxQ8n8+EgX2OJADgsO6evWr9bxv15A/sLxXXIhFvLsNoravDd/bbmjUloh9DBz4T/I/iWzAHgEZx0jFl+2tiqOHzjwiOrFi+68/l6iAJADgsiiTSHbE8Kva/wmi599fhW1k+OEYthd6Nkq0kCQCocxdL+tDGpacfQxK1QQHrCLblc1Ml+whJAMARHijuDV/AsngOxEcmBhNu4grF6H6Qg3tr/ZVu9ds8PsnCMPy4JCcJAKirGRMypX8lhhp1U4jg8Epl/ZOkVpIAgMPavSOrXzT8gNJiuBG16+ZjC2sf5RLFKK+Xe2r9lebqJfixm7uqf51cPyIJAKgvc71na0/HiSRRfRSwDmNTftEcyd5HEgBwRNfnCv37Gv6hGmRjV8Ay6XouT4z6GnardQHLh8MMBazx/nybf5IUAKDumsviflyTfgoRHCacculjkiaTBAAcYRAlX0UKUmvhju0mG4jVsyywFbQMRqtlZe82STtr943+0PxV63aT/DjvOSv6b5LsVyQBAHXmOn9zV8eZBFHlfi0RHFyxZ2HOZBeQBAAc0d5MRmwS/lT/xcIYzcKyO2Yv73uAVsEY1WwWlilg9lXlIfJbfwCIwd04kH+CGKqLAtahBiAefExShiQA4EhjJ/vRrEL/EyTx1AMkRhtSmy+nQTD2n2nVbCN3V13eepgqrcv7rpG0niQAoO4P0CUDPbk/JIjqoYB1EMWluZdKOo8kAODIQtcqUnjGgNw9PjNKQrF8EOO4bLx2+2C5UcCqeLwkN/dPkwQAxKEjaJ9wyQiiOihgHbwn8Alx0QHAaJSsNHwtMfxOJgziMSB33dW2cv3dtAjGoWYFLA/KdxF35VpmTrxC0kMkAQB196LBnvY8MVQHBazn2NLT8Xo3ex1JAMBoRp/6Rdu19z1CEL/z+L6990kq1/1AjM3bMU6ZTK2WEJbD4Oh7CDyCH/dL1o7I/eMkAQAx6B6H+ogvWZIliehRwHrWOExmro+RBACM8r5pLFF7rpNv2DAsqe4bp4ceXk1rYDz2PLHnQUlhDb7qgXmFW/eSeDRaZ068VNJvSQIA6sx0ysCxj7yNIKJHAesZij25bslfRhIAMCpuGb+GGA7WcfF6L4t6YO7K/jtpCIzHgSLslhp8FftfRXnbuWTtiJl/lCQAIAb3ZOlDGy88YSJJRIsC1lOjsHw+o9A+QhIAMOoH8y/bCv0Pk8RBhLq7vm1jzL5CpTZWv/NFAStqLcHCb6uGe5gBAA5pXvOjU95JDNGigHXAQHj322RaSBIAMMqxp3uBFA7OVOcClpVZ2okKf8Ct6gUsD5wCVtQ/+4VC2c35hSwAxOKmbP+y46wF0wgiOhSwJPXncxPM9UGSAIDRjz2V1XJiONTA3Oq5hHDL7OV3/ZpWQGV9bq96ASuUUcCqgraO/itN6iUJAKi74/ZNmvh3xBAdCliSpof2TknzSQIARjm4ZfngYWUDv0eS1+XLXVdbvb4bqeHVfxFBuXTUE/eRdBXuz8sUuuvDJAEAsXievm/gnBceRxLRaPgC1vZzTzlKrn/hUgCAMTyMWT54WLMK/U9IGqxP49jltAAq73B7tQtYD8+/9MEhkq6O1pXrV0q6nSQAoO6OUrbpn4khGg1fwBppanqvpFlcCgAw+rGth2wSPoqUNtT+S62/bVXfWsJHpcqlUnWXELruJ+Uq3gkkD4Pgn0gCAOJwU7Z3PXzuKW0EUbmGLmBty+emynUxlwEAjMktc65Zv4kYjjA+N/229v0j/xbJIwrzVt9blLS3itcqywerbO7VvT+W9H2SAIC6m5jNNPFLhQg0dAGrVLb3SJrJZQAAY+HMvhrVAN1qPQOrXAoy3yV5RHL97t9H7aGq3UXcmIFVk/tQ+E+SyiQBAHV/sF60vfu0VoKoTMMWsLblc1Ml/T2XAACMSRgqQwFrNAP00Gs7A8v143mFO7eQPCK8pqr4ogZmYNVC6/K7+iX/OkkAQN1NGlGWWVgVatgC1kgpeLck3gYAAGPz87krejcTwygesLVeQmjG8kFEfE2pakuFM0FAAatW9yLP/Jtcj5EEANSbv4O9sCp8pjXiSQ9e0DnFzJl9BQBjHtAaS9RGad9wULslhK7HNDJhFakj0h93Va2AtW/WjhkPk3BttKzs3WaBfYYkAKDuJmYz2fcRw/g1ZAHL94TvEm8eBIAxDzrLQcjywVF6wfV9uyTtrMV3mXR127Vr95A6ohRWbwbWA7ZmTYmEa8cm22dMNkASAFDvG7K9Y+u57bMJYnwaroA1eEHnFHf9A00PAGN94PoN8wr9OwliTB6sUeNcRtSIXFidApbJWD5YYy2X9z4p6V9JAgDqbnI5q38khvFpuAKWPxG+U8y+AoDxDDpZPjh2tVgm9VDLor6fEzUi/5kPrCoFrNDYwL0eWjr7LpN0G0kAQN29c7Crk5rEODRUAWvjhSdMdOPNgwAwDo/7vubriGGsFYDqF7Dc/Vu2TCFhI/JO4mSr1gys+0m3DrejZQpDt4slOWkAQF1NLitkVdh4+iaNdLLNj055p6RWmh0AxshtBXssjWPAGFbvLW4HhNkg4O2DqIqWy3uflGlX5D8XHlLAqpO5K/tulYm9DAGg3n1E07uK+TNmksTYNEwBa+OFJ0w0C6hyAsA4uPw7pDCup2yVZ2DZD2cv73uAoFFFm6P+wFImyxLCet6WguD9koZIAgDqaorKJeoTY+5aN4jmx6a8w+VtNDkAjNm2tl3H3UQMY2ceVLWA5Qq/RMpQdS+yqGcRPjm3cCdvw6ujlkLvRrl/jiQAoN6PWH83e2GNTUMUsPrzuQmSUd0EgPE9Xa/glffjs680XM0C1qa2zMLrSRlVZbYl4k/cYOzBVHdN5dInJG0lCQCoqymhwvcSw+g1RAFrell/JmkOzQ0A4xm/snxwvOa96N5BSfuq0i6yr1qhUCZlVJOHYTHiC5flgzEwc/W9j0v+QZIAgHp3tPU3O/OLjyaI0Ul9AcuXKZAz+woAxun+1hX9vHZ9vH2S/W8H3FKFjx4ZKe37Ogmj6h3FwAaj7ZiJDdxjojWz8JsyrSMJAKiro4fLw28nhlH2S9J+gsW+XJdMp9DUADCesaa+SwqVMWkw+oaxq49ffS/7CKEG9wCLdAaWmTMDKy73pkKhbKa/IwkAqHt/++/2b3uEI0n/EkK3f6KZAWCct1DPUMCq+DGkYtSfGQTlz5MsatJR9GhnYIVmzMCKkdar16+R+TUkAQB1NeeY0N5KDKPol6T55IrduddIeinNDADjctvclXcyW6JC7tHOwHLply3L7/oVyaIWQo1EWoDNlIMNpBqze1SQeb+kEZIAgPox1z/4ssbYo7wSqQ7I3T5AEwPAeJ+kYvP2SB600c5gCUyfJVXUypN7RwYV3VsD97Ss7N1GqvEyp9B7r5tdQhIAUFenFfs6ziWGI/WrU2pzV26RTH9AEwPAuISlkZECMVTOPYyygLWlZUbzSlJFrZx8w4ZhmXZH9HEPkWhMBwRB9sOSHiUJAKhrp/GfCeEIz6u0nljG7AOSjCYGgHH5MZuER9QXCaJbQujyL9gla1nqg9oKI9vH7WHCjKfWwh3bJf0nSQBAXb202NXxamI4tFQWsLb2dJzoUp7mBYDxMXOWD0aVZXRvcXt04t7hL5Moas0tqmWwzgysGCtnjvqspE0kAQB1fOYG4ftJ4dBSWcAqy/9RUobmBYBx2ZMdKa0ghmiEHkQ1A+t/Ztyw4TESRa2ZPKIirFHAirF5hVv3mvm/kQQA1JHbWVt6Fp5BEAeXugLW1nPbZ8t1IU0LAOO2cubqex8nhmjs3btnexQfkynpC6SJOommCOsUsOKupaP/cpnWkQQA1I+5/QMpHFzqCljlrC6WNJGmBYBxPxkuI4TonHzDhmFJT1Q07pe+OXv1+q2kifp0pKPaxy2kgBX3tl6m0Nz/niQAoK534zdtXdp+EjkcbJiSIgPnLJ4s6a9pVgAY5+NSNtBqp/2YJKLmj1Twl8vZUP9Fhqjb1RvRPm4eMgMrCVpX9N8k8xtIAgDqJlM2vYcYni9VBSybMPw2ScfSrAAwPqH7d6xQKJNE1A8o2zH+Ub99e/aq9b8lRNTtvpCJZBP3UtuE03izaVIGCGHmnyTxLACAuvUd9Rc7zlowjSCe83xKy4m4ZO56L00KAOOXCe1yUqhGBUDjLWCVQwWfIEDU9b5g5QhmYPlmiuPJ0bKyd73LeR4AQP0cNTyx+S+J4dlSU8Aa7Ok4S9KpNCkAjNvtLdf09RFDNYxvBpa5vjV35Z33kR/qqRTJJu4sH0zcXUvhMknDJAEAdbsRv9fz+QxB/E56ZmCFfjHNCQAV3Un5bXu1+h8WjqeANRIE9nHSQ73NLfTvkjRU4cdQwEqYthV3PyTXl0kCAOrWgzyhWL77XHL4nVQUsIr53EKZ/oDmBIBxK2Uz+h4xVEc4vhlY35q9vO8B0kPdu8+SS6rwLZhOASuRT4Z9H5PrMYIAgLphos4zpKKA5WV77/7+FQBgXPdR0//NKvQPkkTVjLWANSyVP0ZsiI+KN3J/mAyTp+3a+x5x+edIAgDq5tVbehaeQQz7Jb6A9dDZHdMlvZWmBIAKHgahXUYKVRz6S7vH8ufd9MW2FXczYwUx4hVt5O4WPEiGydSU1aclbSMJAKhTPzLMMAvrqTFL4h+qE/XXkqbQlAAwbruHjn78WmKo4tDfbfRLcEy7wsD/g9QQr95zZRu5exgwAyuhZhX6n5DZp0gCAOr1DPY3b8vnWggi4QUsX7IkK/d30YwAUJEr51/64BAxVE9G4eOjrxPoP+YV+neSGmLV5/KK9sByz07eRIrJNXzU4/8rloECQL00j5TtHcSQ8ALWwIzteUnzaEYAqGBkydsHq5+xabQFrC2l4Kj/JjHEr8PolSwh2zqvcOteUkyu+Zc+OOTSR0gCAOrDpHdtvPCEifRHkj0ieC+XMgBU5LdtK/pvIYbqKnv20VH2Tj7AQB8xVUkBi5k7KdC287hvSbqHJACgLmZOePSotzR6CIktYA32LHyZSS/nOgaA8TPpcpOcJKqr2faNZgbWLa3L13+HtBBHHmQqWEJoFLDS8LxYs6bk0jKSAIA63YfNG34z98QWsEIP3sMlDAAVjknNWD5YA+UpTUfaxD1UaO+lmIjY3iysghlY5gMkmA5tnesLkvWTBADUxaJiV8erGzmARBawBs554XGSerh+AaCSEan/YvbyvgcIovpmX967R1L5MI3xtbZVfWtJCnG1byQY9wwsD40CVkrYMoUu/yhJAEC9bsTe0Ju5J7KA5dnmv5Q0kasXACrC7Kta9TX2z6x64hD/cZdlJnyQlBBn81et2y1peHydzbBIgunR1rm+IFMfSQBA7bnUvfXc9tmNev6JK2D5MgVmfhGXLgBUZGjYmwrEUFMH3QfLQv+31sId24kHCTCuZYSesUGiSw9bptCkj5EEANTFhHJWf9GoJ5+4AlbxztwbJJ3IdQsA4+eu1QdmVKBWgz5p6CD/9lct2YVfJh0k5CIeVwErKAcsIUyZluXrCyb1kgQA1MU7PJ/PNOKJJ66AZRa8k+sVACqTYflgzfnzC1j7zMp/aYVCmXSQkKt4XAWskWyZAlbKmOQyfZwkAKAujh8cuecNjXjiiSpgbe7unOvys7leAaAi22fPbP4BMdTc3ucUAz7Vuvwu3uaFxHDXeDZyH55b6N9FeunDLCwAqKNA72jM007UwZYvkpThagWA8TPpe3bJ2hGSqPno/xkzsPy+4WlPfoJQkKh+mI2rgDV44CUGSN+zxOXGXlgAUI9upfzsge7TXtBwfZHENNBFi5tMwV9yqQJAhUL/NiHUZbj31AyscujBhfMvfXCITJCsznKwbex/R7yBMMVaFvUt542EAFAXGSn79kY76cQUsAYfGTrP5W1cpwBQ0Qj03tZV/b8miHo8cf2pAtan5q7su5VAkMAbyJgLWEYBK9VsmUIPndmkAFCf5/Jf+kWLmxqqO52gQdc7uEABoOK7Ppu312ug5zYk2R27Mv5h0kAiu8nh2JcQuhkbuKdcW3ZhQdL9JAEANdc6+MjQeY01lEmATfncAjd7LdcnAFQ2/gyC4LvEUKfw5Y8GZb0tV+jfRxpI6DU8jhlYzgyslLNCoSzXf5EEANTl4dxQE30SUcDKlPROScbVCQCVPOD8Fy2F3o0EUaf4y/axlmv62CsGiTUhO44ZWK5Bkku/4aOfuFSirQGg5v1Ls9duyXee0ijnG/sC1sYLT5goswu5NAGgYiwfrKM516zfRApIspnbZz4iKRxTRzNkCWEjOPBSii+QBADUnFmpfFGjnGzsC1gTHp2yVNKxXJcAUJGhYW8qEAOAcfeQ16wpSdo5lr9TtpACVoNo3jv0P5J2kwQA1PoBbW/rz+cmNMKpxr6AZbI/54oEgIpvptfOX7WOgQWASm8mY1pGmFWGPbAaxIwbNjxm5l8hCQCo/S14etnOboQTjXUBa8t57fNkej3XIwBUxt2/TQoAKr6XaEz7YJVmL+p9hNQaR9bDz0saIgkAqC2TGmLiT6wLWJbxtykhG80DQIzt2J3R/xEDgMo7yOFYNuoetGVj2zMLyTZzxd1FyS8jCQCoLZfO2t59WmvazzOIcQOYyd7GpQgAlQ44/YpcoX8fSQCI4I4yliWBLB9sQBkLPiWpTBIAUFPZkmXemvaTjG0Bq9jd8SqXFnAdAkCFw01j+SCAyG4oo96U3W1Myw2RErOX9z0g0zUkAQC15Z7+ZYTxXZ7n+gsuQQCo2P2zl9/1a2IAEE33LBz1rKrAtZ3EGpOF9gVSAICaO22wZ+HL0nyCsSxgbcvnpsq8h+sPACoebl5mkpMDgEg6jjb6JYShiw3cG1Tryr6fSrqTJACgtkIPUj0LK5YFrJHQ/ljSVC4/AKiIB5nMd4gBQGQdYwvGsK+V7SCxBn4ASV8kBQCouTcPnLN4clpPLpYFLPPGeAUkAFTZLS2F3o3EACAqE4aHR70HlgJnCWED27N36NuStpEEANTU0cru60rrycWugLWp57STJb2C6w4AKuPSlaQAIEozV9/7uKQnRncTcpYQNrCTb9gwLOnrJAEAtWUKUzshKHYFrIxn/lyScdkBQEXCcmlkOTEAqILRLSMMjAJWgytnMv8jaYQkAKB23Oy1W3s6TkzjucWqgOXLFEh6K5ccAFTsJ8evvneAGABUwagKWF7OUMBqcPMKd25x10qSAICastD9gjSeWKwKWAN3tr9O0jyuNwCokPtVhACgKr3i0c7A0jCbuEMmZzN3AKj1UEC6wFO4si1eSwjN/4RLDQAqNhKqvIIYAFSlU2w+mtmd5TmL7tlFWmhb2f8LSb8hCQCoqZO2dne+LG0nFZsC1sYLT5hobt1cZwBQsR/OXXkPMx8AVIXJRjMDa6ctU0hakCQ3fYkUAKDG916FqZsgFJsC1sRHjzpHpmlcZgBQ8ejye4QAoHod4lEsIXRtJyk8JTM5uFKux0gCAGr6vH6TL1mSTdM5xaaA5eZv4RIDgIoNNe8ZWk0MAKoltODIBSyjgIXfabm890mZ2JsRAGprVvG4R16bphOKRQFrx1kLpkk6i+sLACpkunbGDRv4LTeA6nUey+Fo9sDiDYR4zqAj+DopAEBteZiuiUKxKGANTZqYlzSRywsAKn5MXUkGAKpp2LOj2QOLAhaepWVF7y9N6iUJAKgdc+velD9zUlrOJyZLCI23DwJA5R4vB9O+TwwAqmn+qnW7Je057B9yClg4yGXhfikpAEANmaZly4+dnZbTqXsBa3v3aa0mfzVXFgBUbNW8wq17iQFADQwe/j87b0LF84QqXyZpmCQAoHY8RROG6l7AGrHsWyRluKwAoDImsXwQQK0cfhmhGTOw8DxzV96zw13XkAQA1NTZm/K5Y9NwIvVfQui8fRAAIrBzZ8Z/RAwAasJ02I3cLaSAhUP6GhEAQE1NCMrWlYYTqWsBa3PXohdKejHXEwBUbEWu0L+PGADUhOvhw/+BkCWEOKi2Ret/LPmDJAEAtROkZOJQXQtYZmU2bweACIRB8D1SAFC7Tpw2He4/ly27m5Bw0EtnmUKTXUoSAFA7brbk4XNPaUv6edS3gCWWDwJABAbn2ClriAFADXtxDx3uv2blu8kIh1L2zBWkAAA1lclmsm9K+knUrYC1eWnudMleyHUEAJWOI3WVFQplggBQM26HXUK4I1veTUg4lLkr77xP0u0kAQA1HDKY5ZN+DnUrYAVB0MMlBABRjCN5+yCAGhsZOlwBaw978uHIAymx9B0AajlmkF6+5bz2eUk+h3ouIeziEgKAim1uu3r9rcQAoJbarr3vEUlPHuI/P0ZCOOJAKvAr94+nAAA1YsraeUk+gboUsLbkO0+RPMf1AwAVP4ZWGAMAAPVxqI3cdxENjqSt0P+wpFtIAgBqOHQIPdEr4epSwLJyOc+lAwBRPIRsBSkAqJODbuTu0qNEg9FwM5YRAkBNBw961WBX56ykHn59lhCasf8VAFTukZZdM24mBgB16s89fPC+se0mHIxqIBJkr5RUIgkAqJlMGPjSxD43av2Fg/nO+XKdznUDABW7xtasoeMPoE784DOw3NkDC6PSWrhju6Q1JAEAtXx8e3dSD73mBSwPw/O5YgCgchbaclIAULf+r/yBg96bjD2wMJbriLcRAkCNvXZTPndsEg+89gUsZ/kgAETg0Z1N4Y+JAUDdOpGuDQf79yZjDyyM2r4wu1zSMEkAQM00ZUOdk8i+Ry2/bFN+0RzJX8r1AgCV8utzhf595ACgXvYNBwctYLmxhBCjN3/Vut2S3UQSAFDLoUQyJxbVtICVKZV7JBlXCwBUyMTbBwHU1Quu79slacfzbk/uLCHE2B5pHl5HCgBQOy69YcdZC6Yl7bhru4TQxPJBAKjc3mBy5v+IAUD92fNmYbkHLCHE2AZSWV27fzwFAKiR5qGJzX+UtIOuWQFrsKtzlqRXcJ0AQKXjRf9hy+W9TxIEgPrzDc/vXDoFLIxJW6H/YZP6SAIAajiksCBxE4xqVsAKVT5PUobLBAAqHC66XUsKAGJxP9LzN3IPM8zAwriuJZYRAkBt77xnbcqfOSlJR1yzApYHdi4XCABULGzK+PXEACAOTPrt8zqXZbEHFsYxKAn45QwA1NaUptLjr0vWs6IGNuXPnGSu13J9AEDFw8XbZhX6B8kBQByE/vw9sMphyAwsjNnszt5fS9pKEgBQw+d4oLOTdLw1KWBly4+/VtJkLg8AqIxJzL4CECMj9z3330ya0PwYuWDMz7dlCl1+A0kAQA25znbJknK4NSlguemNXBkAULmyh6tJAUBczF15zw49Z9bM9O1H8ZIJjIsZ+2ABQI3N27I0tygpB1v1ApZLJqeABQAR2DRnZX8vMQCIE5f1P+P/DtmaNSVSwXhkA/1A0jBJAEDtBEFy6jVVL2AdqObN5bIAgIpdZ5ITA4A4MfP1z/i/zL7CuM0q9D8h109JAgBqx2WJ2Qer6gWsTBCcwyUBABEMEkPjDU0A4nh3euYMLApYqOxqCnQjKQBADe+70ku3nts+OwnHWoslhGdzSQBAxZ4cOubxm4gBQNy4hxSwEOXYgWcdANRWEGbtrEQcaDU/fLCrc5bkL+F6AIAKmd84/9IHhwgCQNzsC5soYCEyrcFpd0jaTRIAUDsuT8Q+WFUtYJWD8I2q0ZsOASDdT5WAV4sDiKX5q9btlrTlQA/4CRJBJaxQKJv0c5IAgJr6w/vPWtAc94OsanHJWD4IAJHImH5ECgBiy9V/oPPHDCxUfjm5s4wQAGpr6uTJk14V94OsWgGrP5+bINcfcB0AQMVd+ftmL+97gBwAxJapT5LcKWChcqH0E1IAgBo/ysP4LyOsWgFrutsSSUdxGQBApeNC+wEpAIgzN197oGPJEkJUbM7K/l5Jj5AEANR00HFO3A+xeksIy/ojrgAAiOBZ4vohKQCIszDQbQc6v8zAQgRjKLlMPyMJAKipE7fkO0+J8wFWr4Bl+kPaHwAqti/I+hpiABBncwv9v5W0w5mBhYi4jH2wAKDWyuEb4nx4VSlgbcovmiPpVFofACp286xCPwNCALFmksu1lhlYiG6QUqaABQA1v/fGex/zqhSwglK8q3YAkBTu7H8FIDFukzsFLESiZfldd0naShIAUMOxh7TEL1rcFNfjq0oBy8TbBwEgkoeIhxSwACSk02u3ibcQIrrxhEu6hSQAoKaOKu4ceXlcDy7yApZLJvPX0e4AULGtc1b130kMAJKgKRv+ygP2wEKkbiMCAKixsBzbCUmRF7C2LM0tkjSLVgeAit144DfQABB7swr9g1YO7iMJRMXNKGABQK3vvbLGKWBlMsbyQQCI5OnhPyUEAEnS2nTqOlJAVPaVM78Rv8gBgJoy6SUPnd0xPY7HFv0SQhcbuANABMpBuIYUACSq01solEkBUZm/at1uuZjVBwC1lWma4K+J44FFWsDaeOEJEyW9gvYGgIoV5y2/+35iAAA0OJYRAkCtBfF8MV+kBawJj059laRJtDYAVOwnRAAAAAUsAKg5b4ACliT2vwKASB4a7H8FAEBgwa9JAQBq7qStPR0nxu6ZEOWHmbH/FQBEgf2vAACQ9k57bJ2kfSQBADUej8RwFlZkBazBrs5ZkjppZgCoGPtfAQAgaf6lDw5JWk8SAFBrnt4CVjkov06S0cgAUPHD4iYyAADgaeyDBQC1Znqt5/OZOB1SZAUscy2hhQEgAq41hAAAwFOPRQpYAFCHm+/0gbA/VqvsItwDy36fFgaAyoXKsoE7AAAHZCxkCSEA1IEpiFWdJ5IC1oH9r06heQGgYo/MWXkn+18BAHBA0559d0tykgCAmktfAcvlrxb7XwFAxUy61eikAwDwtBk3bHhM0maSAIAac/2+x6jWE80SQgtZPggAkTwj9EtSAADgee4iAgCoueMGexYujMvBRDMDy+zVtCsARHBTdqeABQDA8wYc3k8IAFCXEUpsJixVXMDalM8dK1eORgWAioVNQ8O/IQYAAJ7NzZiBBQB1uQErPQWsoBS8SpG+zRAAGpNJ6w/s8wEAAJ4ho4AZWABQBy7FZsVdxYUnE/tfAUA0DweWDwIAcDBNe/fcJV5yAgD10Lqp57ST43Aglc+cCtj/CgCi4B5QwAIA4CAOzFDeQhIAUHuBZ2IxcamiAtaOsxZMk+t0mhMAKmfMwAIA4HBYRggAdRmnKPkFrH3Nk14hKUNzAkDFdrcuWn8vMQAAcKgRlLOROwDUx2vicBAVFbDc2P8KACLyG1umkBgAADjE2MONGVgAUB/zBrpPe0G9D6KyPbDMKGABQBSdctM6UgAA4HADF3+AFACgPsyDuu9/Pu4C1v1nLWiWtJhmBIAIHgihrSMFAAAOM3Cx4CFSAID68MDOrPtzYLx/cdLESS+S1EwzAkDlLCivIwUAAA5t1owJmySVSQIA6uLl9T6AcRewAgtfRvsBQCSGW3bMYgN3AAAOwy5ZOyJpgCQAoA5cHdvyuan1PIRxF7BMRgELAKLRZ2vWlIgBAIAjDaD8QUIAgLrIlEtBXbeRGncBy+Uvp/0AIBLriAAAgFEwe5AQAKA+wjovIxxXAWuwq3OWZCfQfABQOTe7kxQAABjVU/NBMgCA+jDzuq7EG1cBqyw/k6YDgKgeBBSwAAAYDZfxJkIAqJ/kzcCqd9UNANLUF59oTb3EAADAqAYiFLAAoH5aB/K54+v15eMqYDkbuANAVDYeW1j7KDEAAHBkYRA+SAoAUD8WWt1mYY25gOXLFJj7i2k2AIjgASD1kwIAAKPzmPSwpJAkAKA+6vlCvzEXsLbe0ZGTaRrNBgCVC033kgIAAKOTK/Tvk1QkCQCoE6/firwxF7DCTMjyQQCIiMnuJwUAAMaEfbAAoH5e1J/PTajHF49jDyx7Oe0FANGwkBlYAACM0VYiAIC6mXhsWYvq8cXj2cSdGVgAEJFMNqSABQDA2GwjAgCon7BOE5vGVMDals9NlXQazQUAEXA9NqvQP0gQAACMhW0nAwCo411Yekk9vndMBayR/dPEMjQXAERy57+PEAAAGCN3ClgAUN+BzIvq8a1jW0JowRk0FABEhuWDAACMkctZQggA9b0TnzpwzuLJtf7WMRWwgtApYAFARMyMGVgAAIxRhj2wAKDut2LLDLXX+kvHVMByMwpYABCRMAwpYAEAMPZxEwUsAKgzD2q/Qm/UBaz+fG6C5AtpJgCIhlmGAhYAAGNHAQsA6j6Y8dNr/ZWjLmAdPaKFkpppJQCIxsiwbyQFAADGZnb2lB2SyiQBAHXkqvlG7qMuYFmmPrvMA0BKPfmC6/t2EQMAAGNjhUJZ0k6SAIC66vAlS7K1/MJRF7ACZwN3AIiMazMhAAAwXsYyQgCor0mDM7e/sJZfOOoClosN3AEgun63NhECAADj5RSwAKDed+JSbTdyH1UBy5cpkNRJ8wBAVHd720IIAACMj7GROwDE4Gbs8Stgbblz0QJJR9E6ABBZz5sZWAAAjJPLHyUFAKj3vdjiV8AyK7N8EACixR5YAACMf9T0BCEAQH2Z+RkuWa2+b1QFrMDYwB0AIr3ZyylgAQAwTm72OCkAQL1vxppe7D7t+Fp93ej2wHI7nZYBgOiUnQIWAAAVDGIoYAFAHFi2ZhOeRvsWwnZaBQCi41n2wAIAYNzPUdeTpAAAcbghhzWrFx2xgLVx6enHSJpDqwBAZPbOK/TvJAYAAMaLJYQAEAseLKzVVx2xgDUhW1pIiwBApLYTAQAAFYyXxCbuABAL5vEpYFnoFLAAINKbvJh9BQBABTIKmYEFAPFwqi9Zkq3FFx15DywTBSwAiJJrFyEAAFDBo9SZgQUAMdG8ZfquE2vxRUcuYLlRwAKAaDEDCwCACrixBxYAxEUQhDWpG43mLYQ5mgMAImRGAQsAgAp4yAwsAIjPTdnrX8DacdaCaeINhAAQKWMJIQAAFdlnWWZgAUB81L+ANTJp8kJJRlsAQHTcKGABAFCJE3YfwwwsAIgLq83KvcMWsMoWsv8VAESNGVgAAFQ2VlqzpiRpL0kAQCzGN6d6Pp+p9tcctoBlzhsIASDyTreziTsAAJU/UDVECAAQCxM366751f6SI2zibmzgDgARK2fYxB0AgIq5SoQAAPEQlKs/AeoIBSxnBhYARH3jLfluUgAAoGIUsAAgJqwGE6AOWcDals9NlTSPZgCAiG/uTSF7dgAAUDkKWAAQF17HGVjlsk4TbyAEgGr0tveRAgAAUTxSAQCxEOi06n/FIbiCk2kBAIhehgIWAABRoIAFAHERquo1pEMWsMy0gBYAgOhlKWABABAFClgAEBemacX8GTOr+RWHnoHlfhItAADRG6aABQBAFIMlClgAEKfbcrlc1TrS4d5CyAwsAKiCicOlEVIAAKBCbhSwACBGQgurWkc6XAGLGVgAUAW7R8rMwAIAoGJOAQsA4nRXdtW+gLUtn5sqaTbxA0D0FtywgQIWAAAVMvbAAoB43ZddtV9COBI6byAEgOoYMcmJAQCAyrgzAwsAYnVftjrMwArCDPtfAUB1MPsKAIAoGHtgAUCsbsuqQwHLA/a/AoAqYQN3AACi4DxTASBmjtu49PRjqvXhB9/E3Z0ZWABQnc52QAgAAETA2AMLAOKmWeWqTYg61ECKAhYAVKezPYEQAACI5KHKL4UAIGY8qN6EKApYAFBbFLAAAIhikMQzFQBix6q4kfvzClib8mdOktRG7ABQnfuuL1mSJQYAACocJMkpYAFA3O7NrtotIWwqPXmSJCN2AKiO4lGP0+EGAKByPE8BIGZcNSxglYPyfCIHgOoZCfc1kwIAABViX0kAiKMTq/XBzytgBaGOJ28AqJ6JGZY8AABQsZACFgDEUKtftLipGh8cHOTfzCNvAKieEr8xBgCgYsbzFADiKFN8ZE9V9lV/XgHLnQIWAFRTlg43AAAV4y2EABDXG3RQlbrS82dgyeaSNgBUT5kCFgAAUWgiAgCIH6/Syr6DFLCcPbAAoIqCIJxGCgAAVIyXogBAHIVBVepKzypg+TIFkrWRNgBUj5czx5ICAAAVm0QEABBDtZiBten2U1rEWnIAqCrP+AxSAABg/DZeeMJEUcACgFgKvAYFrAlNGTZwB4BqC8UMLAAAKpDZ2cyzFABiylWDApa7UcACgGrf0I0CFgAAlZiQoYAFADEe8dRgD6wqTfMCADzzxssSQgAAKhGaU8ACgPiaMXDO4snRj6Oe/f8oYAFAlbmYgQUAQEXPUtd0UgCAGN+nJ45EXl96dgHLAwpYAFB1xgwsAAAqwy+DACDOQq9yAUvMwAIAOt0AAMRbwBJCAIi3UNUtYBkFLACoBWZgAQBQAZYQAkC8BRb9Ru5PF7A8n8+4fDYxA0DVtRABAADj50YBCwBifZ+WWqP+zKcLWFtL986QlCFmAKi6ycX8GTOJAQCAcQ9imM0MAPEW+QSp3y0hDJl9BQC14iOl40kBAIBxPkfZ+gQA4m5W1B/4dAGrnBUFLAColcApYAEAMH4UsAAg3qo3A8tCClgAUDv+AjIAAGAcT9B8PqMq7K0CAIhUFZcQBhSwAKBmTMzAAgBgHIq6a46kLEkAQKxNHThn8eQoP/B3M7AUziJfAKgVYwYWAADj4GWWDwJAIkY8mXKkdaanC1ihMwMLAGqIAhYAAOMaETGLGQAScbvO7Iu0zvS7GVhGAQsAasbpfAMAMM5nKDOwACABym7VKWAp4g8GABzWzMELOqcQAwAAYx7AUMACgAQwqTpLCCVmYAFALY3sCU8iBQAAxsaNAhYAJIJVYQaWSyZpJukCQO1k3NpJAQCAMfKAZfgAkAzRz8DanM9NlzSBbAGglh1wX0gIAACM4dEpmeQnkwQAxJ9F/LLAQJIyJfa/AoDa39GVIwQAAEav2H3a8ZKmkgQAxJ9Xo4AlM5YPAkCNmcQSQgAAxjQaCk4jBABIjCps4m4hBSwAqHUfXDpxU/7MSSQBAMBoRy8By+8BIClMMyJ9BEiSux1DsgBQh254+OipxAAAwCi5MwMLAJJjeqSDpwP/cwy5AkDtmQL2wQIAYPQoYAFAckyIcsXJ/hlY8qPJFQDqIHQKWAAAjB4zlwEgQXx4Z2SzsAJJMrGEEADqwcwoYAEAMAqDXZ2zpGj3UwEAVFdTc/aYqD7rwB5Y0a5LBACMli0mAwAAjszF/lcAkDRhhHuu75+BZWIJIQDUpzPetrm7cy5JAABwpJGL8wZCAEjcrTviApaLGVgAUL+bevhSUgAA4AhCvZgQACBZPFS0e2CJtxACQN2Y2ctIAQCAIwyCAr2EFAAgYWMdhcdE9VkUsACg3h1yOQUsAAAOY+CcxZPlYg8sAEjaWCeIeAmhKGABQD292JcsyRIDAACH0DyyWBLPSgBIGI+w3hQcGDRNIVYAqJspW6ZvzxEDAACHGgE5ywcBIIHMIyxgFY8aOEaSESsA1E8QBCwjBADgkAMgClgAkNA7+DGRjZnKE5uOIVAAqPNtPWQfLAAADsUl3tgLAMm8gx8T1ScFmZHgaAIFgDrf1nkTIQAAB7UpnztW0nySAIAEMk2P6qMCC8JpJAoA9eYLi/kzZpIDAADPlgn1ErHlCQAkU6ipUX1UIAsmkSgA1J2F5ZHXEgMAAM95QHrA8kEASOxNXJOj+qhAHk4mUQCIwb3d7HWkAADAs7n8NaQAAIkVZQFLFLAAIBY9dKeABQDAM9x/1oJmSS8nCQBIrMhW/QUuo4AFAPFw4mC+k01qAQA4YOqUiWdGOfgBANTcJI9oH8NAch4IABATYbnMLCwAAJ5+LrJ8EAASzjbnz5wYxQcFCpiBBQCxubuLfbAAAPjdc1EUsAAg6ffy0q5I6k6BQqbkAkBcuPRa51XhAABo4JzFk2XGGwgBIOEszEZUwAqcGVgAEB+zNve0dxADAKDReXb4FZKaSQIAEn4/DzKRTJwKJGMGFgDESNb1B6QAAGh0ZlpCCgCQgvt5MDIlis8J5GIGFgDEiEvnkgIAgOehXksKAJACFkQ2A4sCFgDEyysGznnhccQAAGhUG5eefoxJi0kCAFLALaI9sMQeWAAQMxnPNp9DDACARtUclP9IUhNJAEAahFHNwOIthAAQNxaE55ECAKBhn4NyfpEDAGkR3QwslhACQAxv8m8YvKBzCkEAABruEXjR4iY3/SFJAEBqxjYRFbDMeTUtAMTPpPIT/npiAAA0msFHhl4p13SSAIB0MEVTdwrkyhInAMRPYM4yQgBAw3EFvI0XANJ0Xw8skrpTIClDnAAQxw68zvUlS/glAwCgoZj8jaQAAKm6r0dSdwokZmABQEzNKB674/eIAQDQKIo9C3MuLSAJAEgTi6yAFRAmAMT0Vi8/nxQAAI0iDDPMvgKAlHEPo1pC6CwhBIC43uylN/lFi5tIAgDQCMz8HFIAgJTd26ObgWUsIQSA+Jo1+MjwG4gBAJB2W85rnyfpTJIAgLSJbg8sZmABQJxv925/SgoAgNTL+FvE9iYAkL7xjKJ7CyEzsAAgzsyX7swvPpogAACpftyZvYUUACCF9/cIN3FnBhYAxNuk4fK+LmIAAKTVQE/HqXKdThIAkEYsIQSABrrnh28lBABAip9zf0IIAJBOzMACgEbq15u9ZnN351ySAACkdHjzZjIAgJSOZTyMbA8sClgAEH9BxkL2BgEApM5gz8KXSTqZJAAgrZiBBQANxaULSAEAkDahZ5h9BQBpHscEvIUQABrszq+Owe7OlxMEACA1j7ZlCiTPkwQApJdFuIm7EScAJEOo8J2kAABIi+L69tdLmkMSAJBm0S0hdMIEgMR4UzF/xkxiAACkguuvCQEA0n6v91IUHxNIKpEmACRGs8ojf0YMAICk25bPtch1DkkAQLqZvBzF5wSSysQJAMnh0jv37xkCAEBylUL7S0lNJAEAKR+/uFHAAoAGddLAne2vIwYAQGIHM8sUyP3tJAEADcAU2RJCClgAkLRngInN3AEAiTW4ruMPJTuBJACgAcYuYgYWADSyczZ3d84lBgBAEnngF5ECADTIPT/CPbDYxB0AkidrCll6AQBInO3dp7VKOpskAKBROEsIAaCRmfTOTfkzJ5EEACBJSsq+XWzeDgANNG4xZmABQIOblQmfuIAYAABJ4UuWZF1s3g4ADXXvj3AJYUicAJDUp4G/3/P5DEEAAJJgYPr28yUdTxIA0EiYgQUAkE4shnctJQYAQCKGMBb8LSkAQKPd+xXVHljOHlgAkGRu7ycEAEDcFc9vXyL5y0gCABpsuBLdDCyjgAUAyfaSYlfHq4kBABBnoet9pAAAjSi6PbAoYAFA0h8J5v9ICgCAuNqS7zzFXH9EEgDQeCz0iJYQGntgAUAK/NFgV2c7MQAAYjp4eZ/2//IcANBgIltC6K4h4gSAFIwNLGQWFgAgdga7OmfJ/a0kAQANOlAxi6TuFEi2hzgBIBXeMpjvnE8MAIA4Kav8bkmTSAIAGpR5JHWnIKoPAgDUXVO5XP53YgAAxMXgBZ1TzOxdJAEAjSuU743icwKT9hInAKSDyS4Y6Ok4lSQAAHFQfrL8bknHkQQANC63TEQzsEKWEAJAimTk4b8RAwCg3gYv6JxisveRBAA0uHJUSwgDZwYWAKSKvXlzV24ROQAA6il8MnyvpFkkAQAN/0SIagYWe2ABQMoEQWDshQUAqJtt+dxUSX9HEgAAKRvNHliygAIWAKSNq6vYnXsJQQAA6qFU1t9KmkkSAIDo3kIolhACQCofE7IPEQMAoNZ25hcfLRmzrwAAkiTPlCMqYDkFLABIqbMHzu98FTEAAGppb3n47yQdSxIAgP2mRbSEMAieJEwASKkw/CghAABq5aGzO6abdDFJAAAO8LmFW4ei+CBmYAFAur16oKu9mxgAALXQNMHfJ+kYkgAAHLDXJI/igwJjDywASDfTp+8/a0EzQQAAqmlTftEcmf6WJAAAzxDZiwMDhSwhBICUO3HypGaWcwAAqipTCj8uaQpJIGacCIC6imzSVKAsM7CAGDxV/1emD7r8Usl+pQir1IAkmdu/DnZ1ziIJAEA1DHR3vkjmF5AE6mybZP8n6RMyPz9jdpLLbiIWoK6D3cjGtlkPg8ekkFCBOgqkcuvy9R9/5r97+NxT2jJN2cVyWyzTYnMtltRKWhgX07RQ5Y9K+mvCAABE/pjx8n+6WUASqKGim9bKtTZw61dQvqt1+V39z/wDgxd0TrEnw1cQFVDXccijkX3U1p6OE8vuvyVVoK62tx7XPMcuWTty2D/UfVprKcyeroxeEspfYq6XSmJWDUarXDa9aN7y9b1EAQCIypbu3Lkmu4YkUCUu6QGZbpfsdim8w4IJt7cW7th+pL9Y7On4I3e/ngiBuvpR24r1b4jig7L7gnB3pmxECtTXzMFHht8g6bAP2Jkr7i5KKkq64al/N9B92gvMMi/z/cWsl0haLPafwMFlArfPSnodUQAAIqksXLS4qbh9+D/FcALRKEu6T9LtJt0h+e1DYdMd81et2z2+CzQ8S1ycQH2Zdkf1Udm5WvhoUXe7+MkG6u2tOkIB62DaVtz9kKSHJF0lSZ7PZwbD/lMV2mIPbLH2Lz18sSTeQgeZ/LVbujrOm7Oyj9+UAwAqVtw+/E6ZTiEJjENJrvtkWivTWoW+NpiauaPl8t5IXjLmkhVl5xEzUGfuu6Iby0ga6Gp/VKZpJAvU1d7mvUMtM27Y8FjUHzxwzuLJ3jR0xv4lh8FLZP5SSScRecN6oJw5qn1e4VZe4gEAGLeNS08/pjko3S/pONLAEQxJ6pN0u8xul/z2J/cM9Z18w4bhan1hcWnupR7Yr4geqC93fXrOyvX/FMVnZSU9NaWLAhZQX5P2TZrULenSqD+47dq1eyTdfOAfSdLmrlNnZLzppcroJe7+1PJD9tNqDCdmSo/9u6R/JgoAwHg1W2mZKF7h+Z6QdKdp/55VJfPb5+447i5bs6ZU00GzqYumAOrPTJHNwMpKkkm7XTqeaIH6cvmfqgoFrIOZu/KeHdq/l9bT+2kd5M2Hr5R0DC2TyifJP2xemrty7qr+dYQBABirTT3tnXK9myQavvP6mEx9Mq210Ncq8LUtQe4eKxTKMejsUMACYjHsiG4PrP1LCLvbfyrp94kWqLuwnMkcP69w55ZY9Eny+czm8O5c4HqJSWdKepmkhZJ4TXYaHibSrS2d619pyxSSBgBgLP2DYvnuW7V/9jYax7b9bwH0O0x+e2DB7bOX9z0QxwMt5nMLvWz9NBkQg2eG+Z/MWd5/RRSfdWAJoe+Ss4c7EANBNiz/iaRPx+FgDvz2rPfAP1+XpG353NRSSacrsMWSXiHXEkkzaboEPkykM4t3tl8krf8yaQAARmsgvOedRvEq7YpuWhvI+xXqLgW+tnX5XYkpCHlZ3TQhEA8WRryEUGGwW+YkC8Thgev6U8WkgHUwswr9T0j6xYF/Pi/tX3rYlJnwCg/8lbz1MHE+tSm/6Nq4zPoDAMTbtnyupVT2j5JEqhTdtFautTJf2xTotlmF/sGED5lZPgjERGCZ3VF9VvbAkHk3sQKxsWjwvI6Olmv6+pJywMevvndAUuHAPxo4Z/FkZYdepMAW7y9o+askO4GmjWP/TtOCUvm/JL2JMAAAR1Iu2+fE/phJ9qxiVRBM+GVr4Y7taTrBge7TXiDpDJoaiIfQoqs3ZSXJTbtZQAjEh2f0VknvT+rxH3jr4VOztJ7uTLgHZ5rs5W56mUkvkjSB1q4/M/1xsafjW63L+75PGgCAQxYGenJ/6M4vPBJiRLYyFxYAAF1gSURBVNJdLr/jwL5VtzdldOeBmfQpF3TpwF7PAOovG4S7Ixu37B9Y5v5Wss8SLRAbm1s7178gzZtr33/WguZJEye9KND/396dh8dV0Psf/3zPTJq2lK2lbWbaAsWylCyARaGKP3uvKyJLEuJ2RXEDFxT3FaXqVcEdca2iLF5RhySlZXHBe0FBBAyUJNOyb22TtKWlQJdsc76/PyjKUtomnZmcc+b9ep4+j/f38JvMvM/JmXO+OUt4rMuONdOx4mmoY8gfCvZI1dVc1rmZFgCA51rZMn9CqvBkl6QXUSNyBiR1SX67FNxuCm/v32tz1+yLH+qvxBirm+puNulYVgsgIhuovTZNKNb2KC1JpmCji3tgAREyc3V3w39InX9J6gc8+Nr7BiTdvO2fpKfupZVOVx3jrvkmP1Zm8yRNZHUoBzsw3BJ+W9IHaAEAeK7U8JNfkDG8ioBNku406fbQ7Q5XePuMqeOX26KOIdJIK1tq51hBx1ACiIz+Yg7T/3UJIfMrIFqCMHyXpL9U0mfedi+t9m3/5C0tqb4wf5hCm+eml8vtOJnmitPCS8N1Zm9z/VIuJQQAPNPq5sOPkuvTlCj79/ITMnXJ1GGhdyjwjpqg9q5tT4nG9vafC/Z29hOBSHmsmC/21CWEpza8QmH4V9oCkbJ1fKo6MznX8Tgp/q235aipNjx0TCgda/Jj3eylkvakTLG+FKxnOBXWz8rlN1ADAPDg6QeOr35iz39KXkuNklon6XZJt5vbHUGgjumtXQ+QZde5ZL1NdXdLOpgaQGR0Z9u664v1YmlJCgu2JmBODUTNhP5w8M2SFpHi37Y9Keeqbf84S6voO3+eTQ0HP5T0NmoAAMY9OemrDK+KrtdNHYE8r1DLFXhHTevy5Sauidkda5oajpFChldAhJj7mmK+XlqSJqbTa/oLnIkKRG6Y4P4uMcDa8UbxqdPo89v+XSpJ64+fs1f/xAkvlftxMs0z13Hikd8j+aZ56+qmuitntHX/jhgAULlWNdbPN/ePUWK39LqpQ64OmXdUBbptWi7fR5YS7Der8F/8/RKI2O+lqagDrH/9hvc01W2VNJ7EQLRYymszufxySuzGhnPBgnTv5A0Nbv4ycz9W0sskzabMDq2vUqF+atuKXlIAQOXpOXHeRFUNLBOXY+2qUNI9crvD5Leb/PatXnX77MXLNpKmDPt6Z8yr6n10YLWkqdQAovTLqQuy7d0fLdbLpZ/xv9eKR9gD0dsbGrbTJW6cujvs+uuHte2+EpJ+KElrTqqbPlzlL5XbPJNerqf+TaDWv0wZUuoSl17HJQ0AUIHfnVX957uM4dX2Dct1j0wdMnW4LB8G4e3cP3Ls9K4bOFHG8AqInMCKesbpM8/AulXSSygMRE5fZr/q/Xk8cmn5GfOq1qzf+uJQwbHmmu9PnaU1iyMYOzPb2sVlrABQSTsejbX/GZpdJ67HkqQBSV2S3y4Ft1sY3tG/z+bOYj4WHruvp6nuaklvoAQQsWMs03tmtHb/smiHJk//j9XNdUvN9UYSA1EcIvip2dZ8KyHKa2XLETPSheH5bnqZuR3r0oslVVdYhk0ye0m2tesu1ggASL71x8/Za2DC+E5JB1Tgx98s6U6T3x56cLt7eMeMaePz/BEx2lY1NcwMFD4kKUUNIFoC14k17d1XFev10v8+Pi7uzbUAFFFoZ0higFVms3J3rpZ0xbZ/T91La5/1Ryjlx8k1T9JxSv69tCbJPddz4rxjsks7trBWAECyDYwf/yNVwvDK9YRMXTJ1WOgdCryjJqi9a9vDYRAjKfm7nOEVEM3D2EBFvYTwuffAAhBFplevaa4/aHpr1wPEGMPF8NS9tDq2/ZMk9bTU7u+hXm6yY+WaL+lISVUJ++h1qhr4gaT3shYAQHL1NNW+V9LbE/jRNkn6h9z/aQpuD9xvn7a4+4Hn3+ORZ+bEjS9U0Nvp76IEENVf0sK6Yr5c+hkHyGu4TS8QWUEhDN8n6XOkiJZsLv+IpEckXS5JK1vmT0j55qM9LMw32XxJx0qqScBHfU9Pc9312dbuX7PUASB5+hob6kKFFyTk46yR6Sa5/01mN2bW77ds2x+hkDA9XfX/aXKeLA1E1MBeW4t6pd+/74HVWPsWM7ucxEB0d8Yy+1XP4j4M8fPISYdmU1XpeYH0cnc7Tk/dSyuOTzzcLNdLsu3dK1iqAJAcfac17BFuCm+V6fAYvv2CXHc/9URAu9FUuKmmdflynqBbGXqb6i536S2UACLp8Wxb9z7FfMF/nYEVmNawlQcibXrfo/0na9v9mBAf+y+5u0dSj6SlkpRvqR03JfSjwjA4RubH6KkzteLw18M9FOh3K1vmHzMrd/NWliwAJINvDi+MzfDK9YSkf7jpZgv09+rN/f+Ycu19T7AUK8+qxsOmuNRICSCyin6bqmdcQuhr5TwpF4j4Ttv7xQAr9mpz+UFJt2z7J0nqa2yYVrDCsSY7RtJ8SUdL2jOC62B9qvDkheJ+WACQCD3NdW93V5TvIXS/pL+b6eZh6aaZqbl5brQOSUoF6Xe7V9zToYE4KfoA618Tq54TD9lPVePW0RiINLeU12Vyee4ymvQF3dKSWjN41+FhKjxG0kskO1pSvaJyg3jTadwPCwDibXVLw6FWCP8paVJE3tIGyW51D28NzG5VqurWTO4Ojk+w3f2k3sLy+yQ7kBpARJnasq3dzcV8yX+dgZWZd8+G3s66ISXv6VlAojYDYcE+JOlDpEj4gn7qr8td2/79QpLuPX5O9aTq6iMU6GjJjnbT0XIdrrF4dLTrJ32NDctq2ju7WVoAED8Pnn7geHsi/J3Gbng1INkyk9/qplsLKtwyq3XFvSwZ7IqewvITjOEVEG2uNcV+yWddM9jTVPeIpFmUBiJt0/hU9czJuY7HSQE/Y15V79rBBqX8OLnmyTVPpsMkBWX46Q9ZatxL+es4AMRPb2PdRW56dzl/pEw3SrpJoXcM7L35n7MvfqifJYHR6Gmq+7OkV1MCiDDTOdnW7q8V8yXTz/m/V4oBFhB1k/rDgdMlXUAKbHsqZce2f5KkdScduudQKn2EApv3jKHWXD3njxZF+OkH+vBga76l9tXb7usFAIjDwX9j7cdKPLx6XNJtLt0k8w4bHLo5u/SeRymP4qy/dXMlvYoSQMSPU0JfWezXfNYAy6SVPIkQiAHXh3yhLrSFComB55q65O4nJd247Z8kaWVL7eSU29Fye7GHfpSZjpL0Iu3umVpmr5hc8O9I+jDlASD6Vp3a8CqF4TeLd4Sixyz020PZ7TJ1BGH6lsziZQ9RGiXbDQ7sQ+Y8fQyIOpNWleA1/211c923zPVJUgMx2CCE9obM4q5rKYHRWttSO2l4KDjULKz1p8/Wkl4sacLIV0g7M9vatYiqABBdvacceaAHw7dJ2m+UL7FRUl6mDgu9Q4F31LQuX24SfwNHWTx1lnnVKpn2ogYQbalQc6Yv7r6/mK/57DOwQq0Us2wgFjwVflgSAyyM2rRcfpP+ffnhpdJT99Rava7/8FSgIz20o2Q6UtKRkvbe8QrpF/Y01i7PtudvpCwARE/faQ17+ObhK7Xrw6teSbdLfrssuN2HvWPGld0rKYmxNJiuOt3E8AqIw+Hqln02rS72iz73Ju6NktpoDcRjo2AW1mdal+dJgVJb01x/UEHhUfLgSMmP0lNDrRnP/c+U8pdmc/lHKAYAEdphkKy3ue53crW8wH+yUua3m4LbLfTbBwtDt++/5O4eyiFy63Fj3QqZDqUGEHlrs23d04v9os++iXtojyjgDGAgJkwefEIq6xOEUKGmt3Y9IOkBSa1P/789eMqR+1TbUN2zbhYfWlvfaQ2vrLmsczPVACAaepvrPv+M4VWvmzrk6pB5R1Wg26bl8n1UQtT1NNe+0ZzhFRATJfmD9rMGWKnQVxUCSgNx4dJ/PXLSoefwV1KMhdmLl23Uc24W33dawx5Vj25JUQcAoqGvsWGah+FAGNhrwiC8fVYuv4EqiCNz417NQHyU5JJze87BsPU21W2RNJ7eQEy+zM3Pz7TmP0sJAAAAJFFvU+1LXHYrJYCYcF2Qbe/+aLFf9lnnW217gshqagMx2jaE9oENLfP2pgQAAAASub9rxh9rgRgxK80ZWM+/YNDF00WAWG0dtFd/OPgeQgAAACBp1jTXHyTXyZQAYnWMWqYBlomnRwFx4/6xfEvtOEIAAAAgSQrun5bE/TWBGDEPSjJX4gwsIBlmTh7WW8gAAACApOhrbJgm6R2UAOJlWFpVitfdzhlYxgALiCE3O8dbWvjrFAAAABIhNP+wpAmUAGJlaEbq0N5SvPDzBlilutkWgJI7uGd4eQsZAAAAEHd9pzXsIfkHKQHETq/lcoVSvPDzBlge+oP0BuLJZF/0hds5sxIAAACIkXBL+F5JkykBxM79pXrh5x3obu7vf0BSgeZADJkO772z7hRCAAAAIK7yLbXj5PoYJYA4HpPafaV66ecNsA6+9r4BleiGWwDKINAXXTJCAAAAII4mF/ReSQdQAogfD8t4BpYkuex+sgNx3WLoyJ7m2jcSAgAAAHGTb6kd57JPUwKIp8DC8g6wTOF9ZAfiy9wWchYWAAAA4mbysN4nzr4CYqsQqnyXEEqSlfCaRQBl8eI1jXUnkAEAAABxce/xc6rd7DOUAOKrOhwu8yWEJbxmEUB5hIG+zhMJAQAAEBeTxle/V9IsSgCx1Td1yd1PlurFt3twWwjEGVhA3Lnqe+6sfRMhAAAAEHXbzr76LCWAWCvpyVDbHWClBqvvk+S0B+LNzL7iZ8yrogQAAACibNvZVzMpAcSYl/Z2VNsdYGWXdmwxWS/1gdg7uHdd/+lkAAAAQFRx9hWQDGZjcAaWJLmcywiBRGxEgoUrW+ZPoAQAAACiaOLECe8TZ18BsRdaWP4zsCTJnPtgAUng8my68OQHKQEAAICouff4OdXmzpMHgQQISjxHeuEzsIwnEQJJ4dJn1x8/Zy9KAAAAIEomTRh/ljj7CkiEwYFgjM7AMs7AAhJkv4EJ1Z8kAwAAAKLiwVOO3Melz1ECSIQNB1zd9Vgpf8ALDrBChffSH0gS+8Sqpgb+ugUAAIBIGJ8a+qykKZQAEqHkJ0G98BlYgxPulhSyDIDEmBi4/zcZAAAAMNZWthwxw90+TAkgGVy+vNQ/4wUHWNmlHVskPcRiABLE/LSe5rqjCQEAAICxFBSG/1vSREoACfmdNhu7AZYkuWk5iwFI1nZFrm+TAQAAAGOl7+T6epOdRgkgQVxjO8AK3BhgAcnzyp7m+lPIAAAAgLEQpsPzJaUoASTqFztf6h+xwwGWLGSABSSR+7fvPX5ONSEAAABQTr2N9a+U2/GUABJlS82Ryx4p9Q/Z8SWEsjzLAUikF+0xofoDZAAAAEC5uGSh+XmUABJnuS0s/UMAd3wJ4cRghXgSIZBQ9sWVLbWT6QAAAIBy6GuuazHpWEoAiVOWq/d2OMCquaxzs+SPsCyARJocFOyrZAAAAECp+RnzquT6GiWABP5+l+n+6cHO/xMuIwSSyqQze5oaXkwJAAAAlFLvuoEPuDSHEkACBWE0Blju4kbuQHKlpPCnvnBXhtkAAADAyK1qPGyKTF+iBJBMaQVlOfFppwetgRkDLCDZXtLTVXc6GQAAAFCSg05LnydpCiWARNoyrb7robJsS3b6X4QhAywg4cz1zVWNh7FTAQAAgKLqOaV+nqR3UwJI6sGkVpTjCYTSLgywUlVaLslZKkCiTTFLf4UMAAAAKBaXzAP/ocTtKoAE/6KX7aSnnW5IpuXymyStZKkAyWbS+3tPqX0pJQAAAFAMPc117zLpWEoAST6QtOgMsLbpYqkAiReEgV3ADd0BAACwuza0zNvbXF+nBJD0g0jvLtvP2rX/zO5gsQDJZ9KxPZ1176IEAAAAdkf/8MCXJU2nBJBsQ+lU2eZFuzbAcmeABVQIk77Z19gwjRIAAAAYjd6W2sNl+iAlgMRbOyt35+py/bBdGmAF6YABFlA5JodW+B4ZAAAAMBpesB9KqqIEkHhlnRXt0gBreq7zIUkbWDZApbC3rW6uPZEOAAAAGInVTXVvlvQflAAqQJmv1tulAZZJLulOlg5QOczth2tbaidRAgAAALui58R5E006nxJAhRwzBha9AZYk7oMFVJ79hwvBV8kAAACAXVI18AVJBxACqAxhEJT1RKddH2AFPIkQqDz+kVWN9fPpAAAAgB1Z3dJwqKRPUAKoGJuytZ33lvMH7vIAyxQywAIqT5Ay/6mfMY+bcAIAAGC7XDIrhD+RVE0NoGIss4UKy3pwuqv/YU1Qe5ekLSwjoOJ2SBp61g1+nBIAAADYnt7m+veJG7cDFcXK/ARCaSRnYOVyBUndLCagAjdO5ueubKmdQwkAAAA809qW2hrJz6MEUFlC07Jy/8xghP89lxEClWlCqmCLXDJSAAAA4GmFgn1frn0pAVQW82BZuX/mCAdY3MgdqGD/0dNUdxYZAAAAIEk9jbWvd+nNlAAqzuDmrVvy5f6hIxpgWciN3IFKZtI3uJQQAAAA6046dE+Z/ZQSQEUeGC4/+Nr7Bsr9Y0c0wBqu2qtL0jBLC6hYe6QK9itfOOLLjwEAAJAgg+mq8yQdQAmg8piPze2lRnQQOit381bJulhcQEU7rrer/qNkAAAAqEy9jfWvNOkDlAAqk8tuGYufO4qzKPwfLC6g0rdY/vXe5sNrCQEAAFBZek6cN1HmvxAP9wEqVhiG8RhgmfktLC6g4lW7py7ylpYUKQAAACpI1eDXXOKeqEDl2jxj49TusfjBIx5guQIGWAAk+TG94V2fogMAAEBl6GtqOFbyD1MCqOTDQN1m118/JvdGH/EAK9PadbdMj7HUAMh9YV9jQx0hAAAAku3B0w8cHyr8lSTOwAcqmJndOlY/e+SXEEou160sNgCSqkPzS/2MeVWkAAAASPBO35N7fF3SYZQAKpubbh6rnx2M6g1L3MgdwNNbhKN6Hh34Ah0AAACSqffUugVyO5sSAIaHBuNzBpYkBaFxHywA/2LSF1afWvcySgAAACTL+uPn7OWhLh7tsSOARHl4/yV394zVDx/VRmi4KrxFkrPsAGyTtlC/Xn/8nL1IAQAAkBz9E6ovkHQAJQDYGF+NN6oB1qxcfoPk97L4ADzD7IHxE35ABgAAgGRY3VR7kslOpwQASXL3Mb0abzdOAzXugwXgOZsFf+fq5tq3EgIAACDeek48ZD+TLaIEgKeFCuJ3BpYkmZz7YAF4/rbB7cc9LbX7UwIAACDGxlX9QtJ0QgDYZnBo7yfvGMs3MOoBlocBAywA27OPhvVrb2lJkQIAACB+eptqPyi3kykB4BmWzb74of6xfAOjHmBlpo3rlLSFZQjgecxe0Rve9SlCAAAAxEtvS+3hLvsWJQA8+xhPY34bqdFfQrioY0iuW1mKALbL/Ss9zXVHEwIAACAeHjz9wPEq2OWSJlIDwLMO70K/eazfQ7BbH0D+VxYjgBdQZa7L15106J6kAAAAiL7qxyed51IDJQA8V6EwPObzn90bYKVSDLAAvPA2QpozVDXuO5QAAACItt7m+jfI9BFKANiOe/dfcnfPWL+J3RpgBQNVN0saZFkCeEHu7+ttrnsTIQAAAKJpzUl10939l5KMGgC2IxInL+3WACu7tGOLSR0sSwA74q6LVjUecQglAAAAIraftlBBIaVLJU2nBoAXcEMU3kSwuy/g7jewLAHsxKQgKPzm3uPnVJMCAAAgOvq66s+R6bWUAPDCCvE/A0uSLAj+xsIEsFOueXuMH38+IQAAAKKht7H+le7+JUoA2IGV2bYVD0fhjez2AGvclq03SiqwTAHslOkjPU11jYQAAAAYW32NDdNk+o2kFDUA7MD1UXkjuz3AmnLtfU/ItIxlCmAXmKRf9rU0zCYFAADA2PCFCkILf+3yLDUA7GSL8deovJMgaR8IQOTtExbC3+ZbaseRAgAAoPx6Ouu+JOk1lACwMwULI3Pf86IMsDwMuJE7gJF46T6hfY0MAAAA5bXq1IZXmXQOJQDsgt5ZrSvujcqbKcoAK0yHf5MUsmwB7CpzfWJ1Y/3JlAAAACiP1SfXzQrC8HJx3ysAu3LMJkXqaruiDLBm5fIbZMqzeAGMZHtogf+qp2nuAaQAAAAorXuPn1NtKV0haSo1AOwaT94AS5LMncsIAYxwe6h95cFlvmBBmhgAAACls8eE6h9IeiklAOwq81QyB1hu0Xm0IoA4bRXtFX2T13M/LAAAgBJZ3Vz3bsnOoASAEVg7vb0zUlfaFW2ANdQf/K+kAssYwEi5/FO9TbWnUgIAAKC4Vp1Se6S5fkgJACM8SrvOJI/SOyraAOuAq7sek9TBQgYwCuayX/Y01s0lBQAAQHGsbKmdHATWJmkCNQCM6ABNwZ+j9p6Cor6a688sZgCjtKdMv+87rWEPUgAAAOzmodmCBelUwX4raTY1AIxUQXZd1N5TUQdYJmOABWB31Pnm8BdkAAAA2D29Ux79jqTXUALAKKyY2da5KmpvqqgDrA3p8GZJm1jWAEbLpbesbq4/ixIAAACj09tc+065PkIJAKM8KPtTFN9WUQdYtbn8oKQbWNoAdoe5f7ensfY4SgAAAIzM6lPrXuZuP6MEgFEfj1k0bw8VFP+Tch8sALutSma5dU1zM6QAAADYNT1Ncw+wUO2SqqkBYJQGUymP5IlJRR9gWeAMsAAUQ82QUv/jCxakSQEAALBjK1vmT5ClWiVNowaA3XDztFw+kreGKvoAK5PLL5e0imUOoAj+o3ffdV8lAwAAwAtzyYLhJy+Wax41AOyWCF9VF5TiRV1+HUsdQHE2oPaZ1Y31JxMCAABg+3ob675qpjdRAsDuChReF933VorjTQVcRgigaJsUM79kZfPcg0kBAADwbL1N9afL9AVKANj9Iy89Nj2o/WdU315JBliB23WSnKUPoEj2TnlqyYaWeXuTAgAA4Ck9TfX/z+U/pQSAonD7i+Vyhai+vZIMsGraO9dK6mTpAyiiw/rD/kt8YWm2WwAAAHHS01x/mMwXiycOAiiWCN//SlLpDgRN9keWPoCicju5p7PuS4QAAACVrK+xYZrcr5FrX2oAKJYgsMocYLl0NYsfQLGZ9KXexvoWSgAAgEq0smX+BLdwsaTZ1ABQRN01uc4Ho/wGSzbAyqQOu0nSetYBAEVmbv7LvsaGOlIAAIBK4pKlhjdd5NJ8agAo7gbGr4r6WyzdJYS5XEFyLiMEUAqT3ML2h0+o57R5AABQMXqba78j87dSAkDRpVLXRP0tlvRmyG66irUAQEm2L9Kcqmr/nbe0pKgBAACSbnVT7afl9jFKACiBDZlHJ98c9TdZ0gHWcH/wB0nDrAsASuQ1PcMrvkEGAACQZD1N9W8z2XmUAFASrmvs+usjP7sp6QDrgKu7HpN0E2sDgFIx06d6m+pPpwQAAEiiVac2vEryX0kyagAoBZfH4iF8Qal/gBlPIwRQ8g3uT3qbal9CCQAAkCS9TbUvCcJwsaRx1ABQIsPDg0Es7l9e8gGWh9wHC0DJjXfZFX2NDdNIAQAAkmBlS+0cly2VNIkaAErGdeO2q+cir+QDrGx79wpJ97NWACix/UMLc37GvCpSAACAOFvXNDeTKujPkqZTA0ApmeJz1VxQlp/inIUFoCz+X++jAxeSAQAAxNWqxsOmDCn1J8kOpAaAUnMGWM8JEhgDLADlcmZvU90nyAAAAOJm/fFz9gosfa2kOmoAKIMHtl01FwtlGWBlp4y7QdLjrBsAysGlb61urn0rJQAAQFysbJk/YWD8+Csl8WAaAGViS+L0bssywLJFHUOS/ZmVA0C5tsTmdtGqxvr5pAAAAFHnZ8yrShWezMm0gBoAyrbtsfhcPiiV6x5YkszDpaweAMpoQmC+uK+lYTYpAABAZA8gW1pSvY8O/kbSCdQAUEaPbwzCv8bpDZdtgNXvVUskDbKOACijaWEhvObhE+r3JQUAAIgal6y3sOKnkp9KDQBl3gAtrc3lYzWjsXL+sJ6muj9Ieh1rCoAyb5yv98C+RggAABCpgzH3UyWdSQkAY6Ap29bdHqc3nC7vQaS3yowBFoAy7x1qgbkvIAQAAAAAaIuGqv8YtzcdlPWnDQ+1SxpmXQEAAAAAACg/d12VXdqxJW7vu6wDrOzSex6V60ZWFwAAAAAAgPILArXG8n2X+wd6YK2sLgAAAAAAAGXXnx4aujaOb7zsA6wwCNolhawzAAAAAAAAZWT+x6lL7n4yjm+97AOsWbk7V5t0C2sNAAAAAABAGXl8r4oLxujnchkhAAAAAABA+QwNDdhVcX3zYzPACtOtkpx1BwAAAAAAoAzMrzvg6q7H4vr2x2SAlVm87CFJd7D2AAAAAAAAlJ57vB+qF4zhz+YyQgAAAAAAgNIrBKmqJXH+AGM2wAo9dQXrDwAAAAAAQGm57IZM7o51cf4MYzbAmtl+5z0mdbIaAQAAAAAAlE5gHvuTiMbyEkK52eWsRgAAAAAAACUzbGEQ+9s4BWP708PfiKcRAgAAAAAAlISb/lDT3rk27p9jTAdY2Vz+EUk3sToBAAAAAAAUn3kyrn4LxjyknMsIAQAAAAAAim9LOhUuScIHGfMB1nBKv5U0yDoFAAAAAABQTL54Wi6/KQmfZMwHWLNy+Q2S/sxKBQAAAAAAUDyBJ+fheUEk3oXzNEIAAAAAAIAi2rA+7X9KyoeJxAArmGSLJW1i3QIAAAAAACgC0+9rc/nE3LIpEgOsmss6N8ttKWsXAAAAAABAESTsarcgOm/Ef8PaBQAAAAAAsNtWZhq6bkzSB4rMAGv61Oo/SnqUdQwAAAAAAGD0THa5LVSYpM8UmQGWLeoYkukKVjMAAAAAAIDRK4Rh4h6WF0Tq3VjAZYQAAAAAAACj5Vo+c3F+WdI+VqQGWJkrOm+UdD9rGwAAAAAAwMi57NIkfq5IDbBMcpNdwuoGAAAAAAAwYsOFwuBlSfxgQdTeUEH2K0kF1jkAAAAAAIBd56Y/7L/k7p4kfrbIDbBmtnWukvS/rHYAAAAAAAC7zkL9KqmfLYjim3LzX7HaAQAAAAAA7LL1m/v7r07qh4vkAGtwz83tMj3GugcAAAAAALAr7LKDr71vIKmfLpIDrNkXP9Qv6XesfAAAAAAAADsXenhxkj9fENU3ZgUuIwQAAAAAANgFt89sz9+Z5A8Y2QFWZnH+VpM6WQcBAAAAAABemJsl/iSgIOLv71JWQwAAAAAAgBc0aIMDv036h4z0AMs8uEzSEOsiAAAAAADA87lrcXbpPY8m/XNGeoBV0965VubXsDoCAAAAAAA8n6ky7iEe9UsI5WHAzdwBAAAAAACeb3UmffifK+GDRn6AlZ067hpJfayTAAAAAAAAz+C62HK5QiV81MgPsGxRx5BcF7FWAgAAAAAA/Etonv5FpXzYIA5v0kP9TFKBdRMAAAAAAEBy0zWZxcseqpTPG4sB1owru1e66VpWTwAAAAAAAClw/bSiPm983qj9hNUTAAAAAABAj9Sk5v6hkj5wbAZYNfVdf5D0IOsoAAAAAACocD+rlJu3Py02AyxbqFDSz1lHAQAAAABABRsaHh66uNI+dBCnN2upql9IGmBdBQAAAAAAlciktv2X3N1TaZ87VgOsTO6OdSYtZnUFAAAAAAAVKaism7f/+2PHjXMzdwAAAAAAUJHuqrmi+4ZK/OCxG2Bl2rtukCzPOgsAAAAAACqK6acmeSV+9CCW79p9EWstAAAAAACoIFsLgV9WqR8+lgOs8enqSyRtZt0FAAAAAACVwKTfzsrlN1Tw54+nnqa6X0h6D6swgJ1s5TokPUAIAAAQYa+Wa18yANjhoU3ox2QW52+t1M+fjusbDzz4fmjhuxXjIRyAsmzmF2Vbu7jsGAAARFZPU12HxAALwA6OaqSbK3l4JcX1HliSato7uyVdz2oMAAAAAACSLJQuqPQGQZzfvLtdwGoMAAAAAAASbHV2v+q2So8Q6wFW9oiupZLfw7oMAAAAAACSyN0utEUdQ5XeIdYDLFuoUGY/ZnUGAAAAAAAJtMU19AsyxHyAJUlVQ0O/lPQ4ixIAAAAAACTMJTPb71pPhgQMsKYuuftJmf+SRQkAAAAAABLE5bqQDE8JkvAhrFD1A0kFFicAAAAAAEiIa7Pt3SvI8JREDLAyi5c9JGkJixMAAAAAACRCoAuI8MwcCWFuLFgAAAAAABB/ruWZK7r/TIh/S8wAK9PedYOkf7JIAQAAAABArAV2gUlOiGckSdKHMfMfskgBAAAAAECMbQgm2v+Q4dkSNcDatGXgt5L6WKwAAAAAACCmflZzWedmMjxbogZYB19734BMnIUFAAAAAADiaGB4eIi5xnYESftA44PqH0p6nEULAAAAAADixS/Zf8ndPXR4vsQNsCbnOh53089ZtAAAAAAAIEYKBQu/TYbtC5L4oaoC/46kfhYvAAAAAACIBVPbrNYV9xJi+xI5wJqWy/dJ4o79AAAAAAAgFgKF36HCjvoklKeCb0kKWcQAAAAAACDirqtpXX4LGV5YYgdYM3Kdd8u0mEUMAAAAAACizM3Op8KOBUn+cOZ+HosYAAAAAABElmlZtrXrL4TYsUQPsDJt+dsk/R+LGQAAAAAARJGF9nWTnBI7FiR/TXBOwwMAAAAAAFH0QE36sDYy7FziB1jZ1vwfZepgUQMAAAAAgGixb1ouV6DDzgWV8CHd9S0WNQAAAAAAiJA1hdSkS8mwaypigJVNzb1C0v0sbgAAAAAAEBEXzMrdvJUMu6YiBlhPnY7HEwkBAAAAAEAkbBwI0z8hw64LKuWDZvYbf4mkB1nkAAAAAABgLJnsu7MXL9tIiV1XMQMsW9QxJDPOwgIAAAAAAGPp8f4wdSEZRiaopA+bmTLuV5I/xGIHAAAAAABjwYyzr0ajogZYtqhjSG7ns9gBAAAAAMAYeHywX5x9NQpBpX3gzNTqizgLCwAAAAAAlJtL3z/g6q7HKDFyFTfAskUdQ2b2TRY9AAAAAAAoo8eHB+wCMoxOUIkfekPgF0l6mMUPAAAAAADKwd0v4Oyr0avIAVZtLj9o7t9i8QMAAAAAgJJzPRGmxdlXuyGo1A++qX/gF5JWsQoAAAAAAICSMr9gVi6/gRCjV7EDrIOvvW/AJe6FBQAAAAAASmmThoZ+QIbdE1Tyhx/ca9PPJa1mNQAAAAAAACXhuiC79J5HCbF7KnqANfvih/rlnIUFAAAAAABK4slQw98jw+4LKj3AY2n/qaQHWRUAAAAAAEAxufTdme13rafE7qv4AVZtLj/opv9mVQAAAAAAAEX06Pit/d8lQ3EEJJCywdxLJK2gBAAAAAAAKAqzb0y59r4nCFEcDLAkWS5XMPmXKAEAAAAAAHaXyXoKwaSfUKJ4GGBtU9OWb5XsFkoAAAAAAIDd4QrPnZW7eSsliocB1jYmuQLOwgIAAAAAALvl3syGqReTobgYYD1D9oruP7nsfykBAAAAAABGw0zn2PXXD1OiuBhgPTdIGH5OklMCAAAAAACMhEmdNfXdV1Ci+BhgPUdmcf5Wky2lBAAAAAAAGJHQPmsLFRKi+BhgbYe5fUFSgRIAAAAAAGAX3ZhZ3HUtGUqDAdZ21LR3dkv6DSUAAAAAAMCuMLdzqFA6DLBeaMUL01+SNEAJAAAAAACwE1dn2rtuIEPpMMB6AZnFyx4y+c8pAQAAAAAAdiAM3b9AhtJigLUDwymdK2kDJQAAAAAAwAv41cz2/J1kKC0GWDswK5ff4PLzKQEAAAAAALZjU5UKXyRD6THA2omNKX1f0v2UAAAAAAAAz2Rm35ratqKXEqXHAGsnanP5QXfnSQIAAAAAAOBfTNZjE+07lCgPBli7INue/52kmygBAAAAAAC2+ULNZZ2byVAeDLB2gUkeKPikJKcGAAAAAAAV786ahq5LyVA+DLB2UU1b5z8ka6UEAAAAAACVzV2fsoUKKVE+DLBGEitln5Y0QAkAAAAAACqTSUtntHf/mRLlxQBrBGpynQ/K/UeUAAAAAACgIg3Lws+RofwYYI3QgFd9VdJ6SgAAAAAAUFnc7GeZ1uV5SpQfA6wRmr142UaZvkoJAAAAAAAqypPpIWceMEYYYI1CZkr1jyXdSwkAAAAAACqDu31t+pLuNZQYGwywRsEWdQwFro9TAgAAAACAinD/4N5PXkCGscMAa5Rq2ruvknQ1JQAAAAAASDaTzp598UP9lBg7DLB2QyrU2ZJYgQEAAAAASCrXnzJt3ZzAMsYYYO2G6Yu775f0PUoAAAAAAJBIg6FSHybD2GOAtbuGqv9b0sOEAAAAAAAgcb49s/3Oe8gw9hhg7abs0o4t7v5ZSgAAAAAAkCir0in/BhmigQFWEcxoz/9W0v9RAgAAAACAZHDpk9Ny+U2UiAYGWEViFn5Y0hAlAAAAAACIvRuzbd2/J0N0MMAqkkzr8rxMP6EEAAAAAACxViiYPmSSkyI6GGAVUfWW/i9K6qMEAAAAAAAxZfrRrNbuTkJECwOsIppy7X1PuHQOJQAAAAAAiKW1A4X0uWSIHgZYRZZt6P6VZLdQAgAAAACAeHHp87MXL9tIiehhgFVktlChzM+SVKAGAAAAAADx4NI/njopBVHEAKsEsq3d/zTpx5QAAAAAACAWhj30D9hChaSIJgZYJZIeHvqCpFWUAAAAAAAg2kz23ZmL88soEV0MsEpk6pK7n5T5RykBAAAAAECkPZJKhV8lQ7QxwCqhbGu+1WRLKAEAAAAAQDS5+VnTcvlNlIg2Blil/kVIhR+WxC8CAAAAAABRO2Z3/X5Ga34pJaKPAVaJZXP5R8z1ZUoAAAAAABAhrifCdOrjhIgHBlhlUPPYft+X7A5KAAAAAAAQDWb+uVm5O1dTIh4YYJXjl+L664dN4ZmSCtQAAAAAAGDM3VaTOvxnZIgPBlhlkmnL3+ZmP6UEAAAAAABjatgtPNNyOU4yiREGWGU0fsvWz0vi9EQAAAAAAMaIu743o3U5t/mJGQZYZTTl2vueMLePUQIAAAAAgDHxSFXav0KG+GGAVWaZ9q6cSTyiEwAAAACAMjOzD0zL5TdRIn4YYI2BtApnyvQYJQAAAAAAKBO3SzKtXdcQIp4YYI2BqW0rel36JCUAAAAAACiLvkI6/DgZ4osB1hiZ0dr9S8n+QAkAAAAAAErM9aFZufwGQsQXA6wxVEgF75W0kRIAAAAAAJSGSb/Ntne3USLeGGCNoVm5O1eb6fOUAAAAAACgJB41D84mQ/wxwBpjNa3dP5X0Z0oAAAAAAFBcLp1V0965lhLxxwBrjJnkFqbPkMRjPAEAAAAAKN7x9tIZbd2/o0QyMMCKgMziZQ/JdA4lAAAAAAAoiseHU6kPkCE5GGBFRKa++0K5/40SAAAAAADsHnP/yKzcnaspkRwMsKLyy7VQYaj0eyVtpQYAAAAAAKM9wPZrM+35SwmRLAywImRm+533uHwhJQAAAAAAGAXXEz5sZxIieYwEEftda2lJ9RVW/M2l+dQAirKZ+4NZeCcdAABAZI8B3E6XNJ0SQBF+n6T3zmjrvogSCTyyI0H0rGmuP6jgvkzSntQAAAAAAGDnTLYk09Z1MiWSiUsII2h6a9cDcn2aEgAAAAAA7JJ1wbCfQYbkYoAVUdn27p9KupoSAAAAAADshPkHpi/pXkOI5GKAFeWF48G7Ja2lBAAAAAAAL+iibGu+lQzJxgArwmraO9fKeHoCAAAAAAAv4MHqrf0fJ0PyMcCKuGxr12JJl1ECAAAAAIBnCc3tXVOuve8JUiQfA6wYGJ+q/rCkhykBAAAAAMA27t/MtHfdQIjKwAArBibnOh5XEJwmKaQGAAAAAACWH9h785fpUDkYYMVE9orOv8n8AkoAAAAAACrcQMH8bbMvfqifFJWDAVaMbN4y8DmZuigBAAAAAKhUJn1hVmt3JyUqCwOsGDn42vsGXOE7JQ1SAwAAAABQgW6oaej+HhkqDwOsmJnRuvwOM51DCQAAAABAhdkoFd5pC7k/dCVigBVDNa3d33bTVZQAAAAAAFQKl96fbVvxMCUqEwOsGDLJU2HwHkm91AAAAAAAJJ1LP57R1v07SlQuBlgxVdPeuVaBTpc4dRIAAAAAkGSWD1N7fpIOlY0BVoxlr+j+k7u+QwkAAAAAQEL1F8zfNit381ZSVDYGWDGXfWy/z7v0D0oAAAAAABLH7OxZrd2dhICRIP7WNNcfVAj9Dpn2ogYAAAAAICFas23dp5IBEmdgJcL01q4HLND7KAEAAAAASIiVhZSfQQY8jQFWQmRau3/v8ospAQAAAACIuWGXv3VWLr+BFHgaA6wESe2ROkvSXZQAAAAAAMSWaeGMtvxNhMAzMcBKkJrLOjcHBXuTpH5qAAAAAABi6IZMMPc8MuC5GGAlTM2VXV0ufZoSAAAAAICYWTs8PPQ2y+UKpMBzMcBKoBlt3RfK9WtKAAAAAABiIlSg0/ZfcncPKbA9DLASKp32D0haQQkAAAAAQOSZvpS9ovtPhMALYYCVUNNy+U2BB2+StJkaAAAAAIAIuyZT3/0NMmBHGGAlWE17Z7ebv48SAAAAAICIWqmhwXfaQoWkwI4wwEq4Ga35yyX9jBIAAAAAgIgZ8kBvyS6951FSYGcYYFWAzVv7z5apgxIAAAAAgKgw+UdnXNH9d0pg19YXVISeprkHSKkOSVOoAQAAAAAYSyb9LtPW/RZKYFdxBlaFyLateNikd0pyagAAAAAAxozr7nFb+88gBEaCAVYFybR1Xy338ykBAAAAABgjmy3tTVOuve8JUmAkGGBVmEz68HMkXUcJAAAAAMAY+EAml19OBowU98CqQGtbamuGC3a7pAw1AAAAAADl4GY/mtHadRYlMBqcgVWBpuXyfYGCJkkD1AAAAAAAlMHfNwbhx8mA0eIMrArW21z7Tne7mBIAAAAAgFIefg4PDx29/5K7e0iB0eIMrAqWac1fIuknlAAAAAAAlEi/hX4KwyvsLgZYFS6zX/XZkm6gBAAAAACg2Nz0oczi/K2UwO7iEkJozUl10wtp3SZpFjUAAAAAAEXhuiDb3v1RQqAYOAMLmr6ke41beLKkLdQAAAAAABTBjY+l/dNkQLEwwIIkaUbr8jtkOpMSAAAAAIDd9Iilqppqc/lBUqBYGGDhX7Kt3b+W7PuUAAAAAACMUr9MzZncHetIgWJigIVnyaQO+6SkP1ICAAAAADBSJvtAtrX7n5RA8dct4DlWttROThXsNkkHUQMAAAAAsCvc9a0Z7d3c9wolwRlYeJ5ZufyGMPRmSZupAQAAAADYBX/Opud+jgwoFc7AwgvqaaprlHSFGHQCKPu3k31C0iZCAMBI+evkaqIDgDK7ayBMz5+9eNlGUqBkhwgkwI6sbqz/jJmfRwkA5VSlQnZq24peSgDAyPQ213/J3b9MCQBltL5ghfmzWlfcSwqUEmfWYIdmtHedL/kiSgAop0KqajwVAGDk3L2aCgDKaMjkLQyvUA4MsLBTmf3Gn+Wy/6UEgHIJQw7AAGBU3PkDAIBybnM+lGnL/x8hUA4MsLBTtqhjKEyFLZKYqgMoi7AQcgAGAKM5ljRj+wmgXL6ebc//nAwoFwZY2CWzcvkNngpOlOkxagAotXSQ4gAMAEazc+9i+wmg9ExtmYbuLxICZf2OIwF21Yxc591yO0XSIDUAlJIHnIEFAKPafhqXEAIouduDicE7bKFCUqCcGGBhRLJtXX+V+1mUAFDiI7CJRACA0bAJNABQQquGh4dOrLmsczMpUG4MsDBi2fb8z+X+XUoAKJ1wKg0AYFSmkwBAiWwxedP+S+7uIQXGAgMsjErmiPynZH4lJQCUQhgGNVQAgFFhgAWgJLtn7va2TFv+NlJgrDDAwqjYQoXpQG+XaRk1ABR9GxOEHIABwOiw/QRQgp0z+9SM9i5OYMCYYoCFUZuWy2+q8sIbJH+IGgCKyjkAA4CRWttSO0nSJEoAKLKfZFu7uIUMxhwDLOyWqW0reuX2BkkbqAGgWFxcQggAIzUgse0EUFQmW5JJzf0wJRAFDLCw27Lt3SsCC98gaQs1ABRlZ8mdgzAAGOmOfYGzVwEUkfvf+vd68s2WyxWIgUh8z5EAxVDTuvwWmb9DUkgNAEX4dsoQAQBGxowzsAAUzYpCWqfMvvihflIgOocIQJFkW/Otcn2IEgB2m2vfVY2HTSEEAIxk22mHEAFAEfRKheNn5fLcJgaRwgALRZVt7/6pu75FCQC7y1LpQ6kAACPgxnYTwO560i08Idu24mFSIGoYYKHosu3dn5F0KSUA7N6BmA4jAgCMgLHdBLBbhhTo1Bmty+8gBaKIARZKsO8kz+xX/V5Jf6YGgFF/QXEmAQCMkLPdBDDqDYiZvy97RfefSIHIHh+QAKVgizqGqrf2nyrTMmoAGN1eVMiBGADsorUttTWS9qEEgNEdwNnnM635SwiBKGOAhZKZcu19TwwPDZ0gieunAYwcZ2ABwC4ruHH5IIDR7nQtyrZ2nUcHRB0DLJTU/kvu7jELT5C0nhoARuhF9x4/p5oMALArx5+aSwQAo9CaSR3+QTIgDhhgoeQyrcvzJj9e0pPUADACVXtOmHgUGQBg50L3l1IBwEiY+182b+3/L8vlCtRAHDDAQllk2vK3mfxkSf3UALDLB2QWHkMFANiFA1HZsVQAMIKtxi2ptE45+Nr7BmiBuGCAhbLJtOX/z+VvljRMDQC7JDQGWACwExta5u0t6RBKANhF3YVU+IZpufwmUiBOGGChrGa05ZfI9C5JITUA7JQ5ZxQAwE5sHR54Kfv1AHbR/VUqvHZWLr+BFIgbvuhQdtnW7l+b+0coAWAXzF5zUt10MgDADnbojcsHAeycyXqCVPCaqW0reqmBWH7fkQBjIdOe/5G7f4USAHZmOO1cRggAO+BiOwlgpzYWwvCEmlzng6RAXDHAwpiZ0Z4/1+Q/pASAHX9RBS+nAgBsny9UIIkzsADsyKbAwtfPXJxfRgrE+7gAGEM1bfmPmOuXlADwggdn5q+lAgBsX9+y2qMlTaEEgBcwKPeWmtblt5ACcccAC2PKJK9Jzz1DUis1AGyX64h1TXMzhACA7UgFrycCgBdQMLe3Z9vzfyAFkoABFsac5XKFQmrP0+S6nhoAtreZGLaAs7AAYDvc/XVUALD9zYO9L9PelSMFkoIBFiJhVu7mrRquPkHSDdQA8Lw9sDDgAA0AnuPhE+r3lfRSSgB47q6Tyc+a0d71K1IgSRhgITKySzu2BHsEJ8j9b9QA8Czmr9l2o2IAwDbjxvtrJKUpAeBZu02mz2Ta8j+mBJKGgwFESs1lnZvHp8efKOk2agB4hv223agYAPC0UJydCuDZzD6Xae3+FiGQRAywEDmTcx2PD4Tp18rUQQ0AT/PATqYCAGzbJra0pNx0AiUA/IvpnGxr13mEQFIxwEIkzV68bKMGB18vqZsaALZ5i0tGBgCQen3FqyRNpwQASXLpy9nW7q9RAknGAAuRlV16z6OBB6+Sazk1AEg6aE3z4dysGAAkWai3UAGAJMn9uzPauhcSAknHAAuRVtPeuTZV0H9KWkENAKHszVQAUOnyLbXjXOKyagCS64Jse/4ThEAlYICFyJu+pHtNqOC1ku6nBlDpO2n2Fm9pSRECQCXbZzg4XtJkSgAVzuznmfbujxEClYIBFmJhZlvnKi/oPyQ9SA2gomX6fMUryACgoo9ZJc5GBSp9O+D6Zaa+6/0mOTVQKRhgITZmXNm9MhXqNZJWUQOoXB76W6kAoFKtbamdJPMTKQFU8L6Q/OKaI7rfZwsVUgOVhAEWYmX64u77pcJxkh6gBlCp7G3rj5+zFx0AVKLhQvBfkiZRAqhYF2Ub8u9heIVKxAALsZNtW/GwUv4fJt1HDaAiTRoYP/5tZABQmfwMGgAV+/u/KNPQfQbDK1QqBliIpWwu/0gq5a+Qazk1gMpjpg9QAUClWdVYP1/SiykBVKSfZNry72d4hUrGAAuxNS2X70sV9J+SuqkBVBaXGlY31b6cEgAqasfdnOE9UIn7PaZvZ9u6P8gN21Hx34MkQJxNX9K9JvDgVTJ1UQOoLCbjQA5AxVjVeNgUSS2UACpsf8f8/Bmt3Z+iBMAACwlQ0965dqjfXinpNmoAFaWlr7FhGhkAVIJUkH63pPGUACqHmZ+fac1/lhLAUxhgIREOuLrrsYEw/VrJbqEGUDHGeeDvJwOApPMz5lW5+wcpAVTUb/4XGV4Bz8YAC4kxe/GyjeNT415n0s3UACpk18797HUnHbonJQAkWd+jg/8l2YGUACpj90buH8+25f+bFMCzMcBCokzOdTxuewSvkfR/1AAq49d+OF3FI+UBJPdIdqECd+f+N0CF/MrL9dFse/57pACejwEWEqfmss7N6ZSfJNf11AAqYU9Pn3jw9AO5LwyAROrrrG2S6XBKAIkXyv3MbHv3D0gBbB8DLCTStFx+0+b+/tfL1EYNIPEy1Y9POp0MAJLIzbgHDpB8w2b+7mx7/uekAF4YAywk1sHX3jeQCea+yaRfUQNIONOnfcGCNCEAJEnvKfXHyzWPEkCibbHQTsq05i8hBbBjDLCQ7GPaXK5Q09D9XpP/kBpAos3u2Xf9aWQAkBQumQL/IiWARHtc7q/LLO66lhTALhzfkwCVYnVj/WfM/DxKAMn9NddQ9SHZpR1bSAEg7nqbak91WY4SQGKtdQtfP6N1+R2kAHYNZ2ChYsxo7zrf3M+SFFIDSOavuaoGziYDgLjzM+ZVuezrlAAS65HQU69geAWMDAMsVJRMe/5HMr1T0jA1gET63JqT6qaTAUCc9Tw68H5JB1MCSKS7vKDjZrbfeQ8pgJFhgIWKk23t/rWbN0nqpwaQOHsWqvR5MgCIq3UnHbqnSV+gBJBIt1uq6v/NuLJ7JSmAkWOAhYo0ozW/1AIdL9cT1AASxvWBlc1zOXMBQCwNpdKfl8SZpEDy/HV8qvo/M7k71pECGB0GWKhYmSu6rzf310jaQA0gUapSnvoGGQDETU/T3ANkxr38gIRx01WF1J6vn5zreJwawOgxwEJFyyzO32oW/j9JnMYLJEtzb3P9G8gAIE5MqQslTaAEkCiXZqdUN83K3byVFMDufk8C0LqmuZkhS10j15HUABLj4WCPoLbmss7NpAAQdT1NdY2S2igBJOpo+weZ1u6PmuTEAHYfZ2ABkqa2rehNB/4KSX+kBpAYB4SbCueQAUDUrTvp0D0l/YASQGIUTP6hbGv32QyvgOJhgAVsMy2X3/RYyk+S/DfUABLC7JOrGmuPIASAKBtKj/uKpJmUABKh3+RvybTlf0wKoMi79iQAns0l62mqO9ekc6kBJOKr7pZMQ9fLbKFCWgCImpXNdQ0pV4ekNDWA2Nsg95Oz7fkbSQEUH2dgAc891JV8Rlv3Qpk+KnHAC8SfH9PXVXcmHQBEbuu0YEE65bpIDK+AJHgg9NR8hldA6TDAAl5AtrX7AkmnSuKJIUDcDxJd31rVeMQhlAAQJT37rvuipKMpAcSbSZ2FVOr/zWy/8x5qACX9XQOwI31NDceGCpdK2o8aQKy/8ToyU6rn26KOIWIAGGs9zXVHy/V3SVXUAGLtuuqt/c1Trr3vCVIApcUZWMBO1LR1/sNS/kpJD1MDiDHXvL5HBz5PCABjre+0hj3k/j9ieAXEfN/CLsnsV/0GhldAeTDAAnZBJpdfXkilXi7pTmoAMd7PlM7pPaX2pZQAMJbCzYXvSsZlzUCMdync/SuZ9q53cWY3UD5cQgiMwNqW2kmFQvA/Lj+JGkBs3Z9O+ZHTcvlNpABQbj2Nta+X2TXshwOxNWjmZ2Ra85eQAigvzsACRmBaLr+pJnVYk2TfpwYQWy8aLvA7DKD8VrYcMUNml4jhFRBXj8r9VQyvgLHBlycwSj1Nte+V7Mfi/hVALLn03hlt3RdRAkBZtjlnzKvqXdf/F5m9ghpALN3rqeDEGbnOu0kBjA3OwAJGKduW/4WbvUHSRmoA8WPSD3ua63h8PYCy6Ht04DsMr4DYum4gTL+U4RUw5vvvAHbHyua5B6fC1FKZDqUGEDuPaGhwXnbpPY+SAkCprG6qe7NJv6UEEEu/yOxX/UFu1g6MPQZYQBGsbKmdnCpYm6RXUgOInesyqbmvt1yuQAoAxba6peFQGw5vlWkvagCxUnC3L8xo7zqfFEA0cAkhUASzcvkNm7f2v07SZdQAYufVfYUV55ABQLGtO+nQPa0QLmZ4BcTOJjdvZHgFRAtnYAFF1tNcd7Zc3xUDYiBOXLK3Z9u6fkMKAEXZqLS0pPoKd7W5/CRqALGyWqGdnF3c1UEKIFo4wAaKLNvafYG5vUXSVmoAsWGSX7SqsX4+KQAUQ2+44ocMr4DYua1KhZcwvAKiiQEWUAKZ9q5cGPrLJH+IGkBsjA/Ml65snnswKQDsjt7muk/J9X5KADHidrmGqhdMbVvRSwwgmriEECihVY2HTUkp9Ts3exU1gNi431JV8zO5O9aRAsBI9TTXNsvt9+IPxUBccLN2ICYYYAEl5gsWpPumrPtvd/sMNYC4/OL63zb3D7zm4GvvGyAGgF3V01x3tFw3SJpIDSAW1rvZW2a0dl1HCiD6GGABZbK6sf5dZv4TSdXUAGLxBfnbmobu/7KFCqkBYKff8y0Nh1oh/JukqdQAYuHOIBU01uQ6HyQFEA+c2gyUyYz2rl9JwcskPUINIPpcektPZ+1Fzh97AOxET0vt/lYI/yiGV0AsmPS7YI/g5QyvgNj97gIop96Wo6b68NDvZVpADSAWX5QXZtq6P0IJANuzsuWIGalC4a+SDqIGEHnu0leybd1fNsnJAcRuvxxA2b85FyxI90559DtycVAMxOPr8r+zbV1fpAOAZ+o58ZD9lB53g0yHUwOI+g64nnDz02a05ZcQA4jpHjkJgDHc8W2uP0PuF0oaRw0g8j6fbev+BhkASNKGlnl794cDf5FrHjWAiHPdrcBOybZ23UUMIL4YYAFjrKex9jiZ5STVUAOI/LfmR7Ot3RcQAqhsG1rm7b21MPAHk46lBhD57+62qqGh06cuuftJYgDxxk3cgTGWbc/fGHhwhLn/hRpAxLm+39tUdy4hgMr18An1+/YXBv/I8AqIvGGXvpyp725heAUkA2dgAVE5Ll6wIN0z+dFzTPqiGC4D0f7yND8/05r/LCWAyrLmpLrpYVp/cqmBGkCkrQ2D4G0zr+jkD8RAkvbBSQBEy+rm2hNNdolc+1IDiLSfZBq6z7KFCkkBJF9PS+3+Kth1kg6mBhBpf61S4S1T21b0kgJIFgZYQBR3kpvmHiClcpJeQg0gwly/zjy237vs+uuHiQEkV19Lw+ywEF4n6SBqABH+VjZdmJlS/Ulb1DFEDiB5GGABEbWyZf6EVOHJCyW9hxpApL9If7sh5e+szeUHqQEk8Pu4ua4h5fqjeNgKEOUv48dc/s4ZrfmlxAASvd8NIMp6mupOk/RTSROpAUTW3zU0eHJ26T2PkgJIjtXN9a829ysk7U0NILKHtHekQm+Zvrj7floAycaNooGIy7Z1XybX0ZJWUAOIrJdZ1bibVzUecQgpgGRY3Vz3bnO/RgyvgCi7rJCa9HKGV0Bl4AwsICbWnXTonkNVVRfJ1UINILLWy/2UbHv+RlIA8eSS9TTVnWvSudQAIqvfpbNmtHVfRAqgcjDAAmK2U93bWPtRmZ0naRxFgEjaKvPTsq35VlIA8fLg6QeOH//EpItdejM1gMhaEXjwppr2zm5SAJWFARYQQz2n1M9T4JeLR3kDURXK7AuZ1q7zTXJyANG3tqW2ZrhgV0h6OTWAyPqFhqrPzi7t2EIKoPIwwAJiat1Jh+45lK76kaTTqAFE9kt2aX+Yfsfsxcs2UgOIrtVNtS8PFPze5VlqABHkesIDf/+M1vzlxAAqet8aQJz1Nta3uPkiSftQA4jkXvc9gaeaudQBiKae5voz5H6huDQfiKrbUqHeyo3aATDAAhKg95QjDwyD4ctNOpYaQCRtMrd3Z9q7cqQAomHb/a5+7NK7qAFEkst0YWZK9SdtUccQOQAwwAKS8g2/YEG6Z/Kj55j0RUkBRQB2xAFsX09L7f4qWKuko6kBRNJaub8z257/AykAPI0BFpAwq5vrX23ul0rKUAOIHpf+kQ71di6FAMZGb2N9iwf+M7n2pQYQSX9Op/wd03L5PlIAeCYGWEAC9TU2TAvNL5H89dQAIsj1hAJ9KNva/WtiAOWx/vg5ew1MqP6WZGdQA4ikIZe+nm3o/ootVEgOAM/FAAtI6vHxQgW9nXWfkfRlSVUUASLp0uqt/R+ecu19T5ACKJ1VjfXzA/P/kTSbGkAk91zvkVJvzbZ13k4LAC+EARaQcCub6xrSrstcaqAGEEkPy/3t2fb8jaQAinxI3NKS6hm+65Nm/lXxxxwgqi5Lp/yD03L5TaQAsCMMsIAKsLJl/oR04cnzXTqL33sgkobd/esb0/pabS4/SA5g961uaTjUCuEvJb2MGkAk9Vpo78ks7rqWFAB2BQeyQCXtzD91g/dfSZpJDSCS7jW392Xau24gBTA6vmBBunfKox+S6+uSJlIEiKRWDQ2+P7v0nkdJAWBXMcACKsyGlnl79xf6v8lNbIHICiX/RTqlT3A5BTAyK5vrGlKuiyQdTQ0gglxPKLBPZVu7FhEDwEgxwAIqVG9jfYub/0TSFGoAkdzLf0iBnZm9ovtPtAB27MHTDxw/7olJnzXpc5LGUQSIpL+nQr1j+uLu+0kBYDQYYAEVbGXLETNSw4VfyvRaagCR5C6/JOWpz9S0d64lB/B8T10eH/5IskOoAURSv0nn1DR0f88WKiQHgNFigAVU+tGxZL3N9e+T+3cl7UERIJI2utt5G9Ph97jJO/CUVU0NMwOFX5d0GjWAyOoOQz9t5uL8MlIA2F0MsABIknqa6w+T+6WSXkINIKJcyz2ws2e0dl1HDFTs99WJ8yZ6uv8zZvYpSRMoAkRSwcy/vSHQl/jDC4BiYYAF4N/HxgsWpHv2Xf8JM18oaTxFgIj+rpquSsvOnt7a9QA1UElWN9eeaK4fSHYgNYDIHmDe57L3ZNu6/koNAEXevgDAs/W21B4eFuwik46lBhBZWyV9fyBMf3P24mUbyYFEfy+dUvtSNztfpgXUACJrWNK3Bvba9JXZFz/UTw4AxcYAC8B2+UIFvV317+XeWEDkv8kfc9cPxg0PfWfqkrufJAiSpKexbq4CfVmuU9lvBSKt2+TvzrTlbyMFgNLt9gLADqxprj+o4P4LSf9BDSDS1rnbd7b0b/3+wdfeN0AOxNnqk+tmWcrPkew9klIUASJryMy/u2nLwLl89wAoNQZYAHbKFyro6az7kElflzSJIkCk3S+3czNHdF3O48oRN2tOqpsepvUFl86UNI4iQKSPJDsK0rtntXZ3EgNAeTY7ALCLek858kAPhn8u6dXUACLvfpku3Lyl/6f8VRxR19NSu79C+4Rc75U0kSJApA2Z+Xdrpoz/oi3qGCIHgHJhgAVgRFyyvsba09zse5ImUwSIvEdk+q4Gq3+eXdqxhRyIkjWn1L2okNJH5DpTUjVFgMjvB/7DXO/OtnevoAaAcmOABWBUVp9cN8vS/jO5HU8NIBbWyXTBQCH9I55aiLHW01x3tFyfldQoKaAIEHlbZPbFTHDYBZbLFcgBYCwwwAKwW1Y31r7Fnjobq4YaQAy4npD8Fym3H09f3H0/QVC2VW+hgp7O2jea7MPiUnQgTq4JUsFZNbnOB0kBYCwxwAKw2za0zNu7Pxz4ilwfEk+LAuIilPS/5raoJn1YG39RR4m/I06X62xJsykCxEafuX8m056/lBQAooABFoCi6WlqeLEsXCTXPGoAsXK/u/3cNfSLme13rScHimF18+FHmdv7JXu7uDE7ECcu6deFlH90Vi6/gRwAooIBFoDi7vGcMa+qZ93gx838SxywALGzWdLlLr8425b/uz11EAPssnUnHbrnYFVVi7neI+llFAFid3DYaQrOrGnr/Ac1AERwGwUAxdfX0jA7DAs/4ibvQGw9YuaXBwoWTW/teoAceCG+UEHvnbUvk+k0yd4maRJVgNjZ6tI3N6b867W5/CA5AEQRAywAJbW6ufZEc/uxpJnUAGIplHSzzC5NB+FvpuXym0gCSeppqd3fh4O3mvkZkg6iCBBb11iY/lBm8bKHSAEgyhhgASi5B085cp/qYPjrks4Uj0sH4myTSVdJ3upD46/JLu3YQpLKsqa5/qBQ3uxuzZK/lH1JINZ6ze3sTHtXjhQA4oCdDgBl09fUcGyo8EeSXkwNIPa2yPQHubWOT427enKu43GSJFNPY91cBWrSU0OroygCxN6wTD8eH1R/iW03gDhhgAWgrHyhgt7O+vdJ/jVJUygCJMKApOtcag9TqT/Myt25miQx3k63tKTWhPmjQ7cT5NYs0+FUAZLyC67rg9A+UnNlVxcxAMQNAywAY+LhE+r3rRrvC+X6kKQURYBEeUDy69x01eCem/88++KH+kkSbX2NDdNc/kq38NWSnSgpQxUgSQd91iMPP1fTnr+MJ8wCiO+2DADG0KpTao8MArtQ0nHUABJpi6Tr5fqjpf26mlx+BQdPY6/nxHkTfdzgyxT6awPT61xqoAqQSAOSvhvsEXyt5rLOzeQAEGcMsABEwranFf5I0ixqAAnmekKmW126SWY3Du755I2coVV6fY0N0wpB4ZhAerm7HSfpaEnVlAES7Tq5PpJt715BCgBJwAALQGSsO+nQPQerqr5krrMlVVEEqAj9cr9NZn9z83+4p+6Y2da5iiyj52fMq1q9tr/WUvbiwHWcy18u2SGUASrG/YHrozXt3VeRAkCSMMACEDkrm+cenPLU9yW9gRpARdooKS9Th4XeocA7aoLauyyXK5Dm2da21E4aHgoONQtrPbB5cs3TU096nUAdoOJscelbg3ttOo8zWwEkEQMsAJHV01TXKOnbkg6iBlDxNkvWLfndMt1j0r2hwnurArt3Wi6/Kekf/pGTDs1Wjas6xAt+sMsONtPBkh8u2RxJAasHUNHcpN+HBX1qxpXdK8kBIKkYYAGItHuPn1M9acL4s1w6R9I+FAHw/J0Z63H3e2S6z8xWhvJVQcF6zWzlsAZ7Z7bftT7SR55nzKta/ejQdLnPCuQZSTMt8GwY2mwzO1jygyVNYkkD2M7B3M0Ft0/MbO+6mRoAKmCbBwDRt6rxsCkpS5/r0vvF/bEAjEy/pNVy75EFa2R6zEPfaKaNJt/oCjaaaWNovjEw3xiEQb8keWibBgZ9SJLCqU9u3d4lOeuPn7PXpmBCSpLSaZ+UTluVJA2rsHfgto/L9nG3fUzhPi7tY4HtI9c+Ju3rpqxcWUnTxVlUAEbmQZc+l23r/j1PdgVQKRhgAYiVlc1zD04p9TW5WqgBAAAqzCaXvsN9rgBUIgZYAGKpr6nhWFf4XZfmUwMAACTcsOS/TA3bl6Yv6V5DDgCViAEWgNhyyfoa6091C78p2YEUAQAACXRd4MHHato7u0kBoJIxwAIQeytb5k8Ihjd9xOSfl2kvigAAgNhzLbfAPpVp7bqGGADAAAtAgqxtqa0ZLujLkr1bUpoiAAAghla627nZI7ousYUKyQEAT2GABSBxek858kAPhj4n2XvFk70AAEA8rHe3b4XpST+Ylbt5KzkA4NkYYAFIrL7GhrowCL/EEwsBAECEbTbzH1YH478xOdfxODkAYPsYYAFIvFWN9fMD829IeiU1AABARAxKfjFPFgSAXcMAC0DFWN1c/2pzfVPyo6gBAADGSChTaxAEn6nJdT5IDgDYNQywAFQUl6yvsf5UN/+apIMpAgAAyrUb4qarU8P2+Zoru7rIAQAjwwALQGXuQZ4xr6p3/eC7zHWuy7MUAQAAJXSdTJ/Ltnb/kxQAMDoMsABUtJ4T5020qoEPuPQpSdMpAgAAisZ1vckWZtq7biAGAOweBlgAIOne4+dU7zFxwjs5IwsAABTBTWEQnDvzis6/kAIAioMBFgA8w9ODLLl/SdIMigAAgBFgcAUAJcIACwC2I99SO27fMDidQRYAANgFNwXuX6ppz/8vKQCgNBhgAcAOPGOQ9UVJMykCAACe4SaTfzHTlv8/UgBAaTHAAoBdwCALAAA8w00W6JzMFd3XkwIAyoMBFgCMwL3Hz6meNL76vW72KUkHUAQAgIrhkq4JFPx3TVvnP8gBAOXFAAsARrMHu1BBT1ftCSY7V655FAEAILFCN11j0pezrd3/JAcAjA0GWACwm3oaa4/zwD5jrjdSAwCAxBiQ9PuCFb46q3XFveQAgLHFAAsAiuQZg6wT2L4CABBTricU6OIqL5w3tW1FL0EAIBo4wAKAIutrbKgLLfy0pLdIqqIIAACxsMaln05IVX9vcq7jcXIAQLQwwAKAEulpmnuALPVxud4jaQ+KAAAQSffLdOHAnpt+Nvvih/rJAQDRxAALAEqs58RD9vOqcWeZ9CFJ+1EEAIBIHAjd7GbfzNR3LbGFCikCAJHfbgMAyuHe4+dUTxpf/WYP7JNy1VMEAICyC910jdzPm9GWv4kcABAfDLAAYAz0NNYep8A+IleTpBRFAAAoqcdlukSBfyebyz9CDgCIHwZYADCG1pxS96JCSh+R692SJlEEAICiHuzc56YfBhODX9Rc1rmZIgAQ6206AGCsrT9+zl4DE8e/S66PSTqAIgAA7Jab3Pz8bGv+KpOcHAAQfwywACBCfKGCnq7aE8ztI5JeTREAAHbZgKTfBx58s6a9s5scAJAsDLAAIKJ6m2pf4rIPS2qRNJ4iAABsjz8kC34WhkM/n9l+13p6AEAyMcACgIh78JQj96lOFd4k10ckr6UIAAAKJf2vuS2qeWxKu11//TBJACDZGGABQIw84+mFp0iqoggAoMKsMfOLLUj9rCbX+SA5AKByMMACgBha21JbMzQcvNPMPyBu+g4ASP5RS4eF/oOaqeMvt0UdQwQBgEr8KgAAxNZTN32v/0+TnyFXk6QUVQAACfG45L8LPHUhN2UHADDAAoCEWHNK3YvCwM5w+bskTaUIACCmhyi3mPTT4dSk383K3byVHgAAiQEWACROvqV23D6hXmey07hXFgAgJkclj8k95+Y/ndG6/A6CAACe/1UBAEisdU1zM0OWepO53u1SA0UAABFSkPR/5rZoQzq8sjaXHyQJAOCFMMACgArRc0r9PKX8HXK9XdJkigAAxshd7nZxVTq8ZFou30cOAMCuYIAFABXmwdMPHD/+8T1PdPMzJL2K7wIAQMm5npDpSje7NNva9ReTnCgAgJHgoAUAKtjqk+tmKbC3mfmZkmZTBABQRKGkm2V2aTDR/qfmss7NJAEAjBYDLACAfKGCvs7aV7rsv2RqkmtfqgAARnmA0Rm6/cbS4eXZXP4RigAAivT9AgDAv917/JzqiROrX2tuLZKaJO1BFQDATqyUqV0eXJJt67ydHACAYmOABQB44aORlvkT0sOb3hgG/g5zvU5SFVUAANtskHQ197UCAJQDAywAwC5Z2VI7ORUGp8r9HZJexncIAFSkrTJd5fLLslPG/8EWdQyRBABQDhx8AABGbE1z/UEFD98mt7fKdDhFACDRBk32h1D+GxuqXppd2rGFJACAcmOABQDYLWua6w8qyE+Uq0WcmQUASdHvpuuC0HPV6fFXTs51PE4SAMBY4iADAFA0vacceaCnhk9mmAUAsbTVTX8JQs+lC8PtU5fc/SRJAABRwYEFAKAkVp9cN8vSapLrjZIWSEpTBQAiZ6NMf7bQr7JJqdaayzo3kwQAEEUMsAAAJddz4iH7WbrqDWFgLTzNEADG3LanB3puY6A/1ubygyQBAEQdAywAQFn1nHjIfl417mSTTpD0Wkl7UAUASu5+ma4OQr9yevrwGyyXK5AEABAnDLAAAGPGFyxI9+677lgL9EYP7RSZDqUKABRFQaZl7rrKQluaXdzVQRIAQJwxwAIARMYznmj4RkmvFJcaAsBIbJDpL5JdlxryK6cv6V5DEgBAUjDAAgBE0sqW2snp4eBVbn6iTG+Ua1+qAMDzPCDTVS5bmp0y7gZb1DFEEgBAEjHAAgBEni9YkO6bvO4VodkbAtdrXarnOwxAhdos6QaX/pA2u3p6a9cDJAEAVAJ2/gEAsdPbctRUDQ8vcAtfLdnxkmZRBUBChTLdYfLrQgXXbdmy9W8HX3vfAFkAAJWGARYAIPaeuneWXi35qxXqdTLtRRUAMdYn098s9KsKKlw9s/2u9SQBAFQ6BlgAgETxBQvSvfusP8JNrzbzEyXNlxRQBkCEbZZ0s7tdZ67reGIgAADPxwALAJBoPScesp+NG/efoeuVJnul5Ifz/QdgjG2W9HeT/S1U+L/ZDVNvseuvHyYLAAAvjB14AEBFWX/8nL36J054aaDw1e52nKSXSqqiDIAS2iTpHy7dJLMbuY8VAAAjxwALAFDR1rbUThoKg2PlfpxJL5f0CknVlAEwaq4nZLrV3a4zhTdlpo6/xRZ1DBEGAIDRY4AFAMAzrG2pnTQ0bPPN7P/Jw1fK7GhJEygD4IV3qK1H8r/J/W+m1A3T2zvzJjllAAAo5vctAAB4Qb5gQbpvytpDFdo8N71cbsfJNJfvUKBiDcnUKekmC71DgXdkWpfnyQIAQGmx8w0AwAg9fR8tuR8n0zxzzZc0hTJAIvXKdKOkmxR6x+b+gdu4fxUAAOXHAAsAgN3kCxX05WsPC4eDY8zCY012rEu1klLUAeL0y/zUvask+0fgfks4PPiP7NJ7HiUMAABjjwEWAAClOA4+Y15V3/qthyi0eR7YPLnmSTpK0kTqAJHYC35MruUydTx9KWBN/fIVtlAhcQAAiOJXNwAAKIt/308rdXhoXrvt8sNjJE2lDlBSvW7qkKtD5h1pBfnprV0PkAUAgPhggAUAwBhb01x/UEHhUfLgSMmPkrxWsgP4ngZGbKtkd8nVqcDvsNCWVafHLZuc63icNAAAxBs7xgAARFC+pXbc5NAPfvpsLTMdrlC1Mh0mKaAQKtygXPcpUN5dywO3vILC8pqg9i7L5QrkAQAgeRhgAQAQIzsYbB0qbhqP5GFQBQAAJDHAAgAgEXpOnDfRx209NHB7kVswR+5z5HqRTHMkzeA7HxHWL9cDZnafe3ifme73wO4LLLh3em3nw9xUHQAAiJ1ZAACSL99SO26/MJg5LB1k0kGm8KBQVmuuwyXtLylNJZTYgKTVkh6QablkeZceSEsPTAsOe5izqQAAwM4wwAIAoILlW2rH7T2cPjAIhmfLNctlMyU/IHj6f5v2lzSBUtiJdZJWmmyV5A/LtDKUr5LrkaqU7p+Wy/eRCAAA7A4GWAAAYId6W46aGoYDM+U2S7IDAtlMd82S+f566gyu6ZLGUSqhXE9IWiXTSkkrzWylFD5csNQqFWylpyeunJW7eSuhAABAKTHAAgAAu21ly/wJ48JNmUIYZj3QvkGofUMFGQs8K9e+kjJyZWXb/jfGWr+kHkm9bnrM3Htc1mumxyy0HlfYa4E/Vh1MWDU51/E4uQAAwFhjgAUAAMqq58R5E4PxQ9OHh70mFWhfd+1jCvdxs31d2sdc+0i2j3m4rwe2z7YB2D7b/gUU/Jd+SY9J2mjSRjffKNdjLtto0kYzbXT3x0zaWAhSj7mH68Z7Yd1+qbq13HMKAADEDQMsAAAQG+uPn7PXwISqfUMP9rGU7SG3iQq1RyCNcwv3NrOqMLS9gkDVUjhRrj1cGmeyvf2pm9XvLWmcTHs864Vd+2xnv2hv2XMGZq499dTrbJZp8Fk7VW5bXd7/nNcYkGnLM/7/u6SNMh+SbJNcWyXvl+xJMx8Ow+CxwHzYzZ60MOyXgq1ybQpTGjL5Rsk2pYNw4+Y9Nm+cffFD/awRAACgUvx/gv7EM8QcHP0AAAAldEVYdGRhdGU6Y3JlYXRlADIwMjItMDctMjhUMTM6MTk6MzIrMDA6MDDLk0TJAAAAJXRFWHRkYXRlOm1vZGlmeQAyMDIyLTA3LTI4VDEzOjE5OjMyKzAwOjAwus78dQAAAABJRU5ErkJggg==;" vertex="1" parent="1">
          <mxGeometry x="410.42" y="529.38" width="49.16" height="48.75" as="geometry" />
        </mxCell>
        <mxCell id="dvIQoBZ7N12mjhmRUmld-642" value="" style="shape=image;verticalLabelPosition=bottom;labelBackgroundColor=default;verticalAlign=top;aspect=fixed;imageAspect=0;image=data:image/png,iVBORw0KGgoAAAANSUhEUgAAAPMAAAEKCAYAAADHHGNaAAAgAElEQVR4nOydd3wc1dX3z7kz24ukVe+SZVm2LHcbdxubkoTw0i1aEkIaCaQ8JA8JuLCRC2nkQwohCQFCN9j0UAKmWHJvuBfJltV7165W22bO+4cxjzGWtLszs7Mr7/c/S3PvPVrPb287BSBGjBgxYsSIESNGjBgxYsSIEdUsX2X/4QN2e7HadsS4uFixwn7pAyvtt6htRyDwahsQKIygkUQ4smLVg+uRxNVr166tVNumGKOXB1atWsiIlQHCpRwJRWrbEwiotgGBYrfbmV+gk4A4hohERHjxM1GfVNu2GKOHB1atmo+Av0bAywEACOjdh9as/rradgVC1IgZAOCBlQ/+giE+fPbfn4n6eSRxbUzUMaRwvojPggRfX7u27F217AqGqBKz3W5P8ovQCAC6c39ORCIAvsBAWBdbfscIhgdWrVqIgA+eL2IAAAKoO3niWMHGjRsFNWwLlqgSMwDAilUPrgfAoQ4kCIBeRhIfWrt27eGwGhYjmsAVK+yXAcJKQFg8zHP2dWvKVofNKolEzQHY54j4b2AwlJgRAG8h5G5ZvurBN0DA3zz0UNnusNoXI2Kx2+1MEOBqEWA5IMwesYHofyYMZslG1M3My5Yt4wqLJjQiYlpADQg+ElH83W/WrPkQAEhZ62JEIj/4wQ80yWlppSDC/YBYElAjgvJ1a8suVdYyeYk6MQMALF9l/xMC/CyYNgSwnwge7mpv2fj444/7lLItRuRgt9vNPhG+AwA/R4DcYNoSwF0PrSl7XCHTFCEqxXz/qlVzOWDbQ2lLAA1A9FfR733it7/9bY/ctsVQnxUrVmQTcj8GgB8gYnwIXQg8g7SysrJOuW1TkqgUs91uZ5+daqeH2gcRuRDgWQTx0bVr1x6V0bwY6oAPrFq1gBH7CSDcAABcyD0RfLJubdlS+UwLD1EpZgCA5avs/0CAu2TpjKAcGP2dR3y9rKzMK0ufMcKC3W63+kS4DQDuRoBJcvRJAPc+tKbsT3L0FU6i7zT7c8R3AJg8YkZYDISLfSK1r1hlfwZJeDJ2Xx3R4P2rVs3hAL/jF+FWBDDJ2Tkj4R05+wsXUTsz/+IXvzDpjeYeANAoMgDBDiB6hudxY1lZWbciY0gD77vvPjMzGhM0gpAgIJoBwMgRMwkARsZIBwCMCDkUiQMAIIYCEPiRkQAAXhRxgAhcAhMHeCKnKIrdg4OD3Y888sigqn/ZEPzKbs/jRbiNAL6FAMr4SxOdXrd2dYEifStM1IoZAGDFSnsFICxUeBgfAb2DCC/xiO+UlZU5FR4P7Ha7XhCEXCIuFzjKBcJcAMokgDQATEeANCJKRESlVlYeAOgkgFYAagHCFgBqQga1IlGtyFidHqCxrKzMr9D4n2O329N8ItwEQDcj4AKlxwOgx9etWS3Pii/MRLWYl698cA0irgzjkIMEtAlFeBdAeHfdunUNUjr71a9+Fce02hIm4mRiOAGAigCwCAFyIML/b4jIjwCnAbCSgCqRwQlGdIgxdrSsrMwloWt8wG4vYiJcRUDXI+B8COdngXTbutWr14dtPBmJ6BdmJJavWvUVBPZftcYngKNItAkBywXBu+M3v/lN21DP2u12m98PMwlpFgLOAqApgJgXPmvDBgHRSQA8SEB7CGm3lrF9Q61oznhlCYXE2DwguBQALwOAzPCa/H/4GeT+rqysXq3xpRDVYrbb7Ta/CF1q23EWImpHwJMA0EwATgDgASkZCcYB4hi17VMLIhIBsRIJqgDpzN0+YRwh5ABREZ7Z70cCLevWlGVClHoKRrWYAQCWr7KfQoCoPLCIEVkQ0FsPrVl9rdp2hApT2wCpIMEBtW2IMUqI8ncp6sVMQDHvrRiywACjOmx2FIgZY84dMWRCiOp3KerFzKNYrbYNMUYHHMdF9bsU9WL2+/21atsQY1TQIfF+XHWiXsxarbYDAKIiR1OMCIaoSW0TpBL1Yi4rKxOJqENtO2JEOzikw0+0EPViBgBAgEgMhIgRRdAoeIdGhZgBwK22ATGinqh/h0aLmKM4LjtGhBD179CoEDMhWtS2IUZ0gwBWtW2QymgQMyJAYGl3Y8QYAkLIUtsGqUS9mFesWJEDAAa17YgR3SDA+GXLloWeBDACiHoxi8jPV9uGGKMCU1FR0WS1jZBC1IsZkW5W24YYowNCLmrDHwGiPJ75Abu9hIlwCKL874gRGRBRs88zOP4Pf/iDQ21bQiFq9wj33nuvQaPRvYUAGWrbEmN0gIgWxvOFaakprx07dizqso1EpZjtdnsSx+veQoS5atsSY3SBgMW2xOTCqVMmv7179+6o8vmPuuXpypUrp4jIvRlsIbAYMYKCYJsoeG8cLkljpBFVYl6+atX1QPg8IhrVtiXG6IcAGojB1b8pKzukti2BEDWn2StXPvgzBPZqTMgxwgUCZDMRtq5YYb9SbVsCIRpmZlyxyv47ALgvbAMiQlxcXGuCLb7bFp8woDcY/FqNVgQC8Pl8OOh2abp7e0w93b22vr6+NKKoOyuJSDQajdeWkNCaYLP1Wi0Wt16vFzQ8RyIQeNwezukc0Pb09Zl6urpSBlyu+DB+7gIgfXfd6tXPhGvAUIhoMS9btowbN37CYwD4AyXHsSUkNE+ZMqWmqKiQUpKTU7RabQ4A6ANs7vZ6vQ1dXd1tp6pP08EDB7LbOjryYgIfHo7nxYL8MScmTSruzMvNM1itlgyO44JJft8/ODhY39bW3nPs+HHt4SNHxzocjkTFDAYAJPqftWtX/1nJMaQQsWK22+3MJ8BTiHCH3H0jIuTk5hxfeunijtycnFye52U9TBMEobWxsfHk1u3brSdOVE2JCfsMWq12cNYlMw/PmTUL4+LiShhjsrrher3equOVla3l5Vvy2tvbc+Ts+xx+tW5N2e8V6lsSESnmM8XU6Z8A+D05+9XpdK4rLlu6d+bMGdk8z+fL2fdQCILQfPz4iZPvvPdeicPhVHTmiFTS09Nrr7n6qubMzMypjLGwnHkMDg4eqdiyxbF9x65LBEGQ+wr2vnVryh6WuU/JRKKYcfkq+x8R4F65OtTr9c4brrtuX3Hx+KkAECdXv0HiaWho3PPyxlcLent70lWyIazkZOecKl12Q298fPxMtWwQRbFlx86d1R98+PEcwe+XLWaZAO56aE3Z43L1JwcRJ+YVq+y/BIDfydEXx3HCV6+8Ytvs2ZdMYowlyNGnDHhPnare+dKGjdPdbnek1FiSlfj4uI47vvmNU8nJyRHj1CMIQuM77/23Zc+evbPk2PYQkcgAl61dW/aaDObJQkSJ+YGV9lKG8LIcfeVk51Te+e1vgkajUaYot0REUex4//0PT23fuWPuaNlTM8bg61d9deusmTNnyL0flguHw/Hpk089ndrZ1SW50iQRuUHExQ89VLZbDtukEjFiXr7cPhMYbUHEQE+RLwhjjG5edlPFxInFCyAK3FU7u7t3Pf74E0UulytebVukYEtIaP3hXT/oNBoNJWrbEgCuzeXlBz76ePM8qV+kRNSq4XBWWVlZo0y2hUxEiNlutyf5BNqPiJKyPVgs5q57fvTDBrPZPFUu28KBIAjN/3762f7aurrxatsSCtOmTNl/443XjwH1ziNCorOze+ff//nPKR6PR9Iqggh2aThYVFZW5pXLtlBQfeay2+3ML8CriDhdSj8ZGRnVP/3x3Zxerx8rl23hgjFmmT59mtXj9e5uaGjIVtueQEFEuPaaq7dcfvlll0Dg9/IRg9FoyJo3d07toSNHvO5Bd8h55BAhSyCI31JR/p6c9gWL6mJesOjS+wDhh1L6mDB+/ME77/hmFsdx0Xz1wxWOLci2JSSUHz9Rmae2MSOBiHDnHd/aVjJx4gKIkBVeKHAclzh71qzBkyerWx0Ohy3UfhBg9sLFi/Zuqag4Kad9waCqmFeuXDmJAF9CxJDtKCkp3n/bLTdPGC0+22lpaXkZ6enlh48czVPblqFARLjr+9/fnpubMypSNjHGTLNmzmDV1dUNfX39oU8IBJcvXXLps+Xl5QMymhcwqonZbrfzIuF7iBjyqeL4onGHbrv1liKIwiXecCQlJeWlJCeXHzl6LE9tW84HEeH7371ze3Z21jy1bZEZ/Yzp09mJE5WtDqczpGtMRDQJIuRsqSh/RW7jAkG1qCmvQD8DxJAPqjLSM6pvu/WWMTBKM3OWlExcfNllS7aqbcf5lC67cUtOTs5oE/JZEu666/vGuDhryDHMiHDzypX2q+U0KlBUmZl/ZbfnMIJXEVETSnuLxdz10x/fDRzHJcltWySRn5eX0dLSerizszMi8oLPnztv9/z5c0erkAEAgCGaZ82c0bR9x06LKIoheozRvKVLLv1neXm5X17rhkeVmZkXaV2oe1zGGP3knrubgoywiVb4W28pzTSbzZ1qG5KZkVn9ta9dOUltO8KBVqst+sH3vrMv5A4Q8/wi/I+MJgVE2Gfm5Xb7dCT8W6jtl914Y0VWVuZsOW0aDkEQqLOjo6Otvb2zs6OzR/D7fRqNRsvxfFg+O0Q0Tpk8qXL7jp2q+XNrNBrvz356j5PjuORwjdnf3+9oqK9vqauvb21va+vyeDxug8Gg58P0uVsslmyv17uzvqEhJN8HIpqzdMml/yovLw9bAffwF8sSaU2oNxn5Y/KPTZ5cslBmi77E8WPHqv/48MPNJ6tOprs9nmwESDnvEeJ4vj41NbXl0iWXeq+7/voxOTk5iq0ULBbLtCsuv2zLB5s+VPxvvxDfvP223RqNZoGSYxARvP7667ufeeopbO/oyCeRkgDg/Ltf4ni+Pic7q/HyK66g62+4odiWmKiYz/2VV1xefPjIkY6+vv6gv8QQ0ewT6BcA8IACpl2QsM7MK1eunAbIQgod4zhO+PHdP+wPxz45OTnZVjhunP/TfXvbe3t7LxQqiSSKcQ6HI+vwocO5GzdssL780suHiMTqiRMnZnAcJ/v2JTs7K2HP3n0Or9cb1iu4/Py8qsuWLpkKCt8lIyKMHz8+MzU9vWPXjp0ur9d7/hcowGefe29vb/an+z7Nef6557XvvP3O3rS09M7cvNw0RHlNRERd8YTxR3fs3BXSFzUiTps/b+4/t27dOiirYUMQVjEvXHzpnwFwYihtr77661tzc7IleYkFQ3Jysu2mZcuy0zMy9laUl1sAQDfc816vJ3Xvnj3Zzz79TDMiOzJl6pRsOV8uRNSNLSjYv3vPXqWC7i80Jtxzz90dfJiW14gI+fn5ad/41jdTGhsayqurq/NGeJ45nc7MDzdtStv48sbDE4ondGVkZspqq8FgyOzs7trf1tYeyjZHi4zr3VJRHpZbibCJ2W63Z4iE/4IQDt0MBmPfzctuTEfEYQWlBOPGjcuYNn3a6XffeccEACOevhORdd/evdkbXn758Lz58902m022AAqz2Zx94kTVaYczdE+lYFg4f97O8UXjwu7njoiwZOnSvP7+/i1Hjx4NKAuMx+NJffedd5N379q15bIrLk/RaDQh3ZRciKJx41wVW7YmEFEo384TJowv+uu+fftEuewZirCdZvsE+j6E+OVx0w3XHWCMqVY/d8bMmRN++KO7DwTTxuFwTPrmbbcnP/P009tlNAVvvWVZl4z9DQnjOPGyy5aqWub05//7i4X5+XlBfX6HDh1a+JUrrmw9WXWyRi47eJ4vmD93zq5Q2iJiRkpK+tflsmU4wiVmBMSQcnkZDMa+oqJxs+Q2KFjuuPOOeVZr3OFg2hCR8e9/e2zer+67r1yumOWEhIRLUpJT6mTpbBgWzpu3i+d51WsW//Wxx4oAIKgTYZ/Xm//N229PKt9cflAuO5YuXZIa6rZJRLpTLjuGIyxiXr7cPhsBQsq59ZUrLzsAAKr7XSMi/PCeH4V0kFG+uXzx3T/6UYVcgr7u2qsVFTMiwuLFCyPCIScpKSlxQnHxpyE0tfzyvvvGb/pg03457NBoNPlTJk8OxQ4Agqvuv/9+xTPdhGdm5qA0lGaITJw2dWqhHCbIIaSrrrpqCgCEFLO6f9+ni1atXFku2QgAyMrKmqnVahU7Ic3Pzzuu1Wpl+dzloPTm0pBcdhFAt2rFiqJPP/30hBx2XHnFZSHtexGRR16n+FI7LGJGoq+F0q54QtEhjuMkV3ncuWPHkVMnT0neQ+n1ep1erwt5Vvzwg02L3/7P23ul2sEYM86aNTOoPXwwXHHZUln25S88//wOOfqZMWOGlBhv449/dE9CZ2en5L/JarVOt1qtHaG0RSTFaz8rLuZf2e05gBhSBo2FCxc4pY7v9/vFX973S11zc3O/1L4AAPR6gySPnrVrVo/t6OiQ7J45f95c2U5rz4UxRpmZmcVS+zl+/Hj1X/78l+kej0dy9o34+HhJS1RRFFLvvOPbNTKsztjCBfNCmuURcIndbldUb4qLmSdaHEo7xhhlZWaGdCd9Lk89+dQOr8dTWFlZKfmLAQDA7fFIC7ckiP/pPT+ukmqH1WKZpNFo3FL7OZ+xY8ccY4xJuvoSRRHu+dHdHgTQtbW1hTSTncuAyyU5PrijvX2mHCuFyZMmhZoaKdELoGh+NOWX2SJcEkqznOysSgCQ9I3s8/mEZ/79dB4AwO7duyTf83k9Ht+gyyXZaaOmpmbegf0HKiV2oyueWHxEqi3nM23q1B6pfTz37LPbXQMDxQAAJ44fl1wS9ejhw/VS+wAAeOzRv+W73W6PlD5MJlOxLsTzChRC00KgKC5mAgzpWmnqlCntUsd++aWXdwuCPxMA4MSx4/lSl1kffLDpICLKEj+9uqysV2of0yZPlt2Jf0x+vqT7fFEU4YnH//X5OcemTZscUm16af1Lkj8rAABRFNP+8dhjUtPi8uPHFx0PqSWCog44SosZESGk/fLYsQWSs4c8+/QznyeZ9/v9WVLvHf/+2N9k+7yam5pmSd07Z2ZmyHrdgYhgMBgkJUT86MOP9vt8vryz/96xbUeeIAghf4v29/c79u3dK5sIXtn4ao4oSlukFU8sDnHLRlMkDTwCior5/vvvt0GI6VfNZrOkgPzGxsbm/v6+L8Tfrl1dxof6Yr322mu7uzq75PQNZ88982xo3/CfYTAYChGZbG6CKclJtVJrQf37yae+sAT1+325Tz7+r22h9vfz//mfAwQgm/ef3+/L3bVjh6TtSXZmpimUdgioaH0zZU/XmC4k4zUajZvneUkpZ19ev/7U+T9zOgcm/vx/7t0S7HL78KFDVb//zW8nSLHnQnzw/n9DTu/6GXqbzdYsizEAUDCmoFVKe0EQ6HRN9ZdOwp988skZWysqDgXb32OPPrr1yOEjsod97tixU9K5gMlkCvW6NMNut2uljD0cCov5S3HAAZGclNwEEkPuyjdvvuDedtfOnYvu+Oa3tjmdzoBOSDdu2LDr+9/9XgZ8ObZWMj09vSUul0uS80dmRprks4WzZGSkSzocOnbs2Ckg+FJgCSIa/vcX/zvhqSefDGiG9vl8wq/uu6/82WeeVSSGurauVtLhCcdx6RqNJpSUQAhfjo2XDUXFTIxCCkdLTk6UdOBBRNDe0TGkB1NVZeX8Ky+7vP9fjz++bXBw8EvXO6IowscffXTg6q99bd8f//DwbABQpMAbIvKHDx8+LaWP9PQM2dK6JiTYJL0PO7bvGO6LRfP4P/45/5qrr967a+fOoxdaHblcrsGnn3p6+9JLl9SXby4P6UozENpa2iTf0dsSEkJaEQmCoJhbp6KZRojQEsr0mpScLGm2amlpaQWCYffcoiimP/mvJ9KfePxfg/Hx8YeSkpOdCETd3T3G7p7ufCBlTx7Pcujgwd7Zs0PPgmS1mGXbM1utZkkhpieOHRVGeqa9rX3mz37yU+AYa7clJdXHx8V7fH4f6+zosDiczkIEUDxhYF9fr2Rf//i4OEdbe/CLIiIuOsUMIc78FpNJ0gt66uTJdoDhxXwWRDT09fVN7uvrkzJkyNTX1UvK4Gi2mGXLgMDzvKT3obW1PeD2giimdLS3p3ScI4hwlcVwD7olXy+aLeZQtySKaU7pq6mQ+uc1vKQ9TXNzc9iSqEnF6ZR2DavVamXTAMdxkpafAwMDiriYyo1P8Eu+9tRp9aG6qSqWpEBRMSNSSPs5DS/tnXA4HCMu9yIFvyBETJ0mlJjnSCQxYv6W4UAi6bMjUkjaEZmo2LupqJhFEUNau/p8PknjMpkTuymJ2WSWWCBYJkMAwO/3S/rgtVptVHyJkgyzo8/nCy3lFmOKZYpR9mqKoDuUdgODg5LUaI2LU726ZaBkZmRI+j9wDbpkW7ZJFXNCQryq9YkDheN5ybHgbrc7tP83rzc6xSzwUBtKuwGnQ9IyaPyECVFT2rVowgRJ115OpyzBYAAAMOBySRJjfl6+jOsE5TAbjZI/tL7+/lC80nxarTY6xawDqCeioGeOtrZ2SS94cXHxWECQxTlfaWbMmJ4npX1vT69sp6PdXT2SlskzZs0Myc0x3KSmp0u+m+/q7gk6rRIBnC4rK1Os/pSiYi4rK/MCYtAZPlpa21KljMtxHOZk50jyew4HGo2mVmpFhobGxlDja79ER0fgV0sXYu68eWNB1l28MkydNlWSjaIoulwDAyF87qRoIXbFQyCRIOgkaA6HI1UURUnXSzeVlqpWrjZQJk2eLDlOt7W1TbayOKfr6iQlJYiLi4szmkwR/yV65Ve+IikVldfrrQ8lnBYBZUkuOBRhiGemoKvpERG4PR5J32LXXnfttEhfan/nu9+RlAFTEIRW58CAbB5FzU3NYwBA0lL7K1deqXrFyuHgeb5h/PjxBVL66OjoCGnfSyCGlHs7UBQXs4hUEUq7xqYmSULU6XTaS2bPDjpSJ1xodbqTM2bOlJRrq6+vr1YmcwAAwOfz6bxeryRf8e/94AclEGIG03CwZOnS01LLBlVVVYfUTsNYdItZx9geAAjazenIoSOSD1MeWL68CCL0xfr2nXd2SH6pTp6U/W9raGxskdI+MSnRNnHiRKnZPBQBEV33/vzeyVL7OXj4cNAJHAhgX1lZmaKrFsXFXFZW5iegj4Jtd+TYsYkgUYjp6emp02fM2CmlDyXQajWnv3XHt+ZI7Wfv3v2yV5z49MBByUEIax5aN5aIZE82KJVFixftkXrg6Pf767u7u4I+oEWA/0oZNxDCkzcb4bVg23i9XoPD4ZCcsO43v/vtFIYYkvOKUqyy/7qP53lJn70gCI1t7W1j5LLpLMePHZ8IQZaDOZ+MjIy0pZddpuiSMlg4jmux//rXkssc1dTWhpQ3nYH4ptSxRx4jDPg9nreIKOhZdtfuPZI9deLi4uJ+eu//SE5tKxfjioq2XXHlFdOk9nOqurparnI35+L1eg2dnZ2SazT9enXZXJ1O96VsL2qxZt3aNqPJJHnVUVGxNehZmQCq16xZI7n4wUiERcy/+93v+gDhrWDb7di5axpInCUAAG659dY5RUVFYamROxw6na76H4//U5Y8Yh9vrpBc6WMotm7fLtkdVqfTaZ946ikOEGVLnhAqiy9dXL70ssskx6f7/f7a2rq6ccG2Q4AXIQz372G7iyWgx4Nt4/F4jE0tLbLczT3+5BOXBFvFUU4Qsf2Fl9YbjEaj5Fhat9t9tKmxUbFaUPv3H5whCIKkfGAAAIXjCvN/XfbrE0SkmNfTSGTn5Oz8ze9+J0vWkn2f7m8MYTVEIPqflGP8kQibmLWMfUQAQZ/pv/nGfyRl6TyLTqfTvvL6q3lGgzHsTg2I2P7vZ59xZmVlyTKbVmzZomgmBUEQuCNHjkpN0g8AAF/92tdm/OK++/apIei09PTdL6x/cSZj0l9zURRdH338cfCzO8Hb69atU7wEL0AYxVxWViaiSI8E2665pbmg3+GQZb9htVotb737do7Nlhhaac4Q0Go1p1/a8LJ3/PjxshxWCYLQtG37ztDzDAXIe/99fzLIsMUBACi9uXT2mnXrDkEIV5ShMr54wtZXXnt1plarlcV3vaambp/LNRh8zADBn+QYPxDC6vLI8/hvIgr6rm3jK6/K5sBvNptNb73zn6kLFy0qB4X3MTk5OTve+e9/U3Lz8mS7Qtq6bVuNIAiKh3g6BwYSKquq9sjV35VfuXL6Cy+t79YbDLLM+ENBRO5v3fGtrf9++ukFUm8MzsH9ymuvhVD3jHauW1f2iUw2jEhYxVxWVuYCgN8H266mpnZCR2enbPfFPM+zP/zx4cV//dvfjut0utDceYYBEdt/8rOf7nj5lY1zLRaLbJk9fT5fzYcfbVY84d1ZXn39zcmiKMoWY1lQUJD7wYebCr7yla+UE5Hs9aWtcXEHX1j/YuvdP/7xAqkOOedy9PjxPQ6HI2i/dSRcA2EMPAl7MMLggONRIgo6TekLz6/PAgBZHRFmXTKr+KPNn+R/9/vf28bzGsn7GmSs6+tf/3r5h598bL79G9+YK+cLBQDw+htv9hCJYfs/cw0MJOzes0fWLYlWq+XL1q5Z/Obb/+kvmTxpixzOJQaD4cQDK5bveX/TB1PGFhbmyWDm54ii2Prqq6/PDLYdAW1eu7bsPTltGQlV8ussX2n/DiIEfcJ3/XXXlM+YPl2RfMqiKMKHmz789Llnn3VVnzxZLBIF+k3syM7JPrqs9Ga87vrrZsi1Rzufjs7OnX/+y6OSvcaCBZGJD658oFqj0Shyet7X19f37yefPPTuO+/F9/f3TYQAJxhk2Dl+/IQTd/3wrvjZc+aUyP3FeZY33/rPvj17980Ith0D8ZI1a9bItk0JBFXEbLfbmU+A7YgQ1EEOIhNXPPDLKr1eH1IxukAhIqg+dap2z549rUePHvW0t7XjwMAATyKB0WwUkpOSxQnFEzTTZ8xInjBhwliO4xT9HEVR7Pz9H/7IyRkhFQw5OTmVP/jedwpA4dTMDofDuXPHzpOf7t3rOH26Bnt7e3mf38c4jpHBYBRSklP8xSXF/Nx589KKiooK5DilHtGHgO4AACAASURBVI7Ozs5df/rLoyEcNtJT69as/q78Fg2Papnvltvt00GgPYgY1P9ISkpK3Y/v/mESYywqslrIwcbXXt978MDBoJd6cnLTDdeXT506RbEqE5GGIAitv/39w6bBwcFgyxJ18QzGKx1UcSFUS3y3pby8ZeGixSZEnB9Mu4GBgXi32/PpuMKxsgcZRCInTlSWb9r0YdgOvYa0o7Iqd+aM6ft1Ol262raEAd8zzz3f1N7eEfw7hvTDNatXqxLco2o2Dg2HdiA6Fmy7HTt3zqmsPBlSnHQ00d/fv/eF9S/LXgUxFERRxL88+thYv99fq7YtSvPxJ5v3VlefDj7WnOD1datXP6+ASQGhqpjLysrcxOHtABB0qY/nX3xxUUdH5w4FzIoI3G73iT/95dHicJ5ej8Tg4KD1sb8/jqIoKpZhUm2Onzix5eNPNs8Nth0RtfIc/BBUzIGmen7pLeXlrQsXX9qJAFcH23bfp5+mTZ0yeb9er1cs6EANfD7fyT8+8udUt9stexlZqQy4BuJPVp1snjlzBgKAZD/zSKK2tnb7s8+9EHQZWSISkfCaNWvKjiphV6CoLmYAgC0V5fsWLV5cAIBBZYEQRZHbuXtPytQpk/caDAbZEtupidfrrfzjI39OcrlcqpxcB0K/w2E7dep0/bRpUxARJYcVRgI1NTVbn3r62fkhJepDXL5ubZlqy+uzRISYAQCWLrn0PUGEKxAhqEMHImK79+xNKxxbsN1qteYoZV84cDqdB/74yJ/zBgcHZUufqxR9/X1Jhw4f7Z41c3oPY+xLBdajiQMHDm558aWXF4YiZCJY/9Dasp8rYFbQRFRRJrvdnuYXaAcg5gXbFhHh61d9tWLO7NkLQOWzgFBoaGjc8sRT/543kt91YUrLEZ7zC4KfZwIwJgIiAAEDAIaiiEwkDkDkgETG+4lDEBmKhIwICAAQgEREn8g4n1/DuQVe4/ZqDQMencnp0dlE4oK6SzaaTD0//tFdp61Wa9COFRGA65133juyY9euS0JpTAS7Bgf6lzzyyCOyu6aGQkSJGQBg5cqVhSKwrYiYEkr7cePGHr791lsTOY6Lin20KIoD72/68NC2bdsDOnS5Z/F/t6XH9wV1nRcUBL1HmrIPvrRvXsB3yogI1197bfn06VMXQASt9obD6/VWP/7EU3xra2tuSB0QneA5XKjGffJQRNwHX1FR0b140cKPAFkphHDA0tXVnbpz1y4YVzhur9lsjuhlt9PpPPD3vz/OKquqAo7IEQnbJqQ3K3c+gADP7lpkcvu0QR2+HT9xIu90be3JyZNKHIyxiN3vA4BQWVm59bF//muSo78/pKT/BNAgcLh0XVmZpEymchNxM/NZVq5cOU0E9iEihlxlYVzhuMO33HyTTqvVBp3qRUkEQWj/+JPNpyq2bJ0X7D6N50Tfg1e90scYSUqgPxTHWjLLX9y9IGRPL47n/ddf+/+2T50yZRZE2Gm30+k8+NzzL8Y3NTeHNhvDGSGj6F+ybt062aPtpBKxYgYAeOKJp37W2Ny8wufzJYfaB2OMFi6Yt2PJpZdm8zyfLad9IdBz8OChQ2/+5+1ZXq835FPg66fuqpiRW7tITsMAAESC9nXv3mD2+DWST6jj4uK6bim96Xh2dvZsANDIYF7IeL3eqjf/8/bAoUOHp0lJgqjVapuQhK88+OCDql5BDUXEivmVV17J9RM7QqLQe+rkSdHt8UhaMnMcJ8y55JLdl122JE6r1UqqJBEsfr+/fu/efbWbPvxohsfrlexTruEEz8qrXu3iGMl6LvDR8YnbPqkqkXU/Hhcf33nN//v68aLCwhIACOvy2+FwHnj/g03iwUOHpkvNZGo0mioLxhbYEPClm5fd8FOZTJSViBQzEeGGja9/AAiXf/bvrurq6k6Xa6BIjv6zMrOqLr98SeuY/PxCxpgivsaiKPa3t7cf/mRzuen4icopoijK+lnPy6/cedXkA7KFRPr8XNWad28sFEmZWEKe532zZs48MH/eHIiPj58MADolxvH7/XUnqqoaPv54c057e7ssZybW+Lj9udm54xDRBAAgAvy/W5fd8LYcfctJRIp5w4bXf0BI/zz3Z0Q00NjQeLynt1u26CFEhMzMzKpZM2a0FhYWGK1W61gACPXO1O1yuaoaGhp79u7dF1916lSJkul9EAGWf/XVIwatv0SO/l7aM3//keYsyfm8A0Gr1XpKSiYemTJpsiszOzNZr9UWQIhLcUEQOvr7+2uOV1b69u3dn9Xe0Z4rZz7xlJTUbampqbMR8ZwrO+oUfHzJbbdd2ybbQDIQcWJ+9dVX030CVCLil05TiYh6u3sqGpsbFyuRAB4RwWK1tudkZzalp6UNJCelCCaTiRmNBp7nOQYAIAgCeTwev8s1KHZ1d0FbW7u+tq4htbOzMzvcftT5ye3HvjvvE8lbhv5B497ff/D/VAux5Hjen5qc0piZmdGRnpbqTkhIQLPZhLxGw3NngpbJ6/eLnsFBn8PppI72Dk1La6uxobEpx+l0Jij0Lgj5eWO2mS3mC55NENGGW0pvvFn2gSUQcWJ+aeNrzyLAN4d7ZtDt3nHq5MlpRKI+XHZFKj9b+t6OZEt/0IEBn0MgPrb5yprm/gRJZU5HExzH9xSNK6rjNfywqXWR6NrS0huDLu6gFBHlKbV+4+vzRhIyAIBBr587sbi4waDT1SpvVWTz3M4FuRBC6Z+zNPYlbI8J+f8wmy1Hi4uLB0cSMgAAIfz9uefetYbDrkCIGDFv2LCBY0SPBvo847jCsePGpSSnJG9X0q5Ip9tlyTjZnh5iMDy5Xti1MKLu4NUCESk7O7s8f8yY8YgY4C0BZmh07uXKWhY4ESNmQv4OQAjqAAaRGdPTMuaNKyzaxjhOtpSw0caGT+dOBYCeYNsdaczZ43AbQnKbHU1oeE37hAkTDiQk2BZjsF6RCPdu2PBm0PWalSAixPzuu+/qAOjXobbXG/TzJxaXOKzxcbLUpYo2Br1a686asUHV0RIJ2l87OEtyidNoBhEhJTVl2/jiYh3Pa0I6yUcALYH/YbltC4WIELNjYPAuAJTknYUI6Xk5edPGFhZuZchUrzwYbt49PHWeX8CGQJ/fXDmxyiuDp1e0wvN82/iiCXvTUtPnI4C0kFPEa1969dWwp0E+H9XF/Oyz75uIcIVc/RkNxgUTSyY6k5MSdyiVSzkSEYnj3z8+tSmQZ30Cd2pz1UTlIq8iGhQzMzIrJkyYYNRoNfJdx4m4Tra+QkR1Mev1A3cjgqz7NkSWmp6RNXfChAn7L6YT752nx81x+zQjJkh8/cDMfqU8vSIZi9V8uKRkYnViUtIiRCZrSiYEWLp+4+uXydlnsKgq5nfffVcnAtyrVP88r5lWWDQ+My9/TAXH871KjRMpEAFs2DdPGO4Zh1u3/3BTniwF36MFnVbXWDiuaEd+XsEkxjjF6lozElcq1XdA46s5eL9z8DZEUDoPs8ZqsSwqnlDMsjKyKhhjQWcCjSaq2tIm9QyYdl3wlwT04q4FZgUcpiISjuN7xowZU1E0fnyqQa8P3bEmUBAv3bDhtZCylsiBamImIgSE/w3XeIhotSUlLpo4cVJ3elr6FsaYL1xjh5vndi5MA/hycfOWvoRtDb1Jis1MkQLj+P7cnLzy4uIJvNlsWQRhDMEkoF+Ga6zzUW3ftH7ja19jAO+qNT6R2NbV1V3Z2toyWxRFRSJ41OQ78z+pGJPUfo5fMbl+//41zn63cdTeK3Mc35OdlX3IYjVPl3tPHChERAz4gtLSa2vCPbZqMzMjulutsQHOHJIlJSUtmlhS0p+dnVvOcXzQTheRzEt75k0Ggs/PCY425ewZrULWa7WNY8aMqSgunqCzxlkXqyVkAABERBGEu1QZW41B169/PZvxVAsRcJp+Dm7XwMDepqbGzEG3O19tY+TgqpJPt8wrOLlQEKF93Xs3mEfTvTIigtlkPpKZmTmg1elmQUS9S9TpcvZn33nnnbLWEx8JRUt0DgVy9B2IqA8fAAD0RpNpQeG4IvD7/YfaO9qdnR2dMwFIq7ZhofL+sWnzZuVWn644OaHF69eMintlxvH9qanJBxNtiWmMcbLEcssPJhlM1hsB4IWwjhrOwQDOBFSIwNcGm+xeHajX6Rw41NbWkuJyDY5XIm5WaTITuk629NrGRvO9MiKSxWo9mJqa6jLoDdMBIOJDXwlg0y3LbrgynGOG/T94/cbXrmQA74d7XKmIJNY4evvrW9tbx3g8HrUTA456EBEMBmNlSmpqm8VsKkJkqWrbFAxnDsKE7NLS0oC88uQg7MtsJLoZonCSYMjy4xLi8+MS4kEQhCqnw9nS3tGW4Xa7C6Nxxo5EEJHMJvPRpJSULpPJmM+QFQGALHnfwg0iIhB/GwD8IWxjhmsgAIANGzZoReDaEDGqaxOdiyCKDW7XYE13d5exr79/oigKEZUrOtLheL43IS7+RILNJuj1+iJEVCQfuCoQfHpz6Q1hK9sTVjGv3/ja1QzgP+EcM5wQgFfw+485HM6+3r4u24DTNV4URVVzRkcaiMwVZ7WeiIuPd5jN5mTG2AQcxRExSNyYcN05h3WZjQCl4Rwv3CCAluf5qQkJ8ZCQEA8A4Bb8/qMDAwN9fX39JoezP9/v9yeqbWe4QETQavhmsyWu3mK1ek1GYxLjuCIEuGh8w0Xw3QAAfwzHWGH7Rjxzis21IeJF8zJfCCJq9ni9DYODA26nc8Dgcg5keLyeKDjZHwkUdXp9ndlkajObzR6DwWDSaDR5o2rZHAoE224uvSHoAu6hEEYxvzaXEC7qfF1DIRI5dRrNpxaLxe3o7+f6+x2GPmdvgqPfmeh2e5KJ5E2gHyqMMcFoMLRZrZYuk8nUazKZB3R6g+hxezIEUZiAiKPOLVYGRL9Xm3T77Vcr7mEYtmW2iPR1jLzMvhEBQzQn2BIw0Wa7MjX1fI9LEkSBOkUSur0+34DP4/UMDA4KHo+H3B4P8wy6eY/XrfF5fVqfz6vx+gSdKPg0ggicSKJGFERGAAwRCAiIcUzkGPoZop/xWo9Gw/m0PO/TaHVenVbn0xl0fr1eLxp0BtTrtbxOq9NptDozxzEbACR9luzuCwnvmpqa9vc7nDEhXxjGab2XA8BGpQcKm5iR8KqYlodGp9MNcb+FHOMwlQFL5XkNgMEIcfGRdRmg1esGwHHR5lMcEQT4GoRBzGFxqXzhhbeSgs28ebGh1WiidmbT63TDJkSIQUvCMUpYxKzR+BaGY5xohuP4yJpug4DXaGLXb8OCeRs2bJCliN1whEXMhCh7LeHRBmMsU20bQkXDaVQLOYweWMgF7AMeQekBAAAIKDYzDwPHuC5EMKttR6jwPBdVftNqIAIqrgHFxfzGG29YEDC2Xx4GvUHborYNEklhjA2qbUQkg4CK5wZTXMxerzg9HONEMzq9oV9tG6Si1Wia1bYhkiGEkrfeekvR5BDhEFnYHM2jFaPBEPXJBQ0GQ5faNkQyCMC5vF5FV6iKi1nEmJhHQqfVRnyw/UgY9LrYMnsEmMiiW8wAFBPzCPA8F/X+6lqdXpUUVNGECDRZyf4VFfNbb71lBIJY/d9hIAJCZFGfuUSj0URM0fFIBQEnKdm/omJ2+XyFozlWVQ50ek39aAhQYBwbBZFfCoM0iYgU04OiYkYRozLlSzgxGkxtatsgBwwxgeO4TrXtiGzQtH79m4qVY1J4z0wxMY+A0WgYNQdHRoOxUW0bIh2eF5UrXKdUxwAABDheyf5HAwadLmrzcp+P0RT99+VKQ6jcGZKyy2yiPCX7Hw3wWu2ocYU06vUx56ARIIICpfpW9sNHiPpTWmVBDwLkqW2FXGi1WpvaNkQ8CmpCMTFv2LCBI8CMkZ+8eDEadDWIOGpmM2RsDACIatsR2ZBioZBKvkhpCMAp2H/UYzSbR9XpLyLqdTpdndp2RDYYfWL2ozZ27zgCZqNp1JXCMBuNrWrbEOGkKXXXrJiYGV48+aFDRavVjLo0tCaTOeqDRpQEAbRvvPFGnBJ9KyZmJBY7DBkGRPRxHDdWbTvkRm/QR236o3DhdpMiRe8V3DNTTMzDYDDoqgFg1OXO4jgshNgh2LBwHESbmCEm5mGwWCztatugDGjQG/TValsRyQgIiqxeFBMzgTIGjxZMBrMiszIRiUQ04swYyDPnI4qiJ5DnLGbzqPA3VwqmkDaUnJljpU2HQafXBOQ8QEQBHygREbW1tW8N8O5a6OzsCrhckGvAddzpHDgayLMmk2nU3J0rARElKNGvcgdggFGfPUMpOI2mHQADvLoj1tzcUh7Ik3X1jVt5LR+QrzciagZcLn93T8/ukZ4ddA2ebGhqJIvFHFCmDINep3iO6OiGKTLRxWZmFbBazAHvKREZJ4gC1DXUVwz3XHNTc/ngoCsnMcEWcBbIlOSUvNbWthLXgOv4UM94vZ7G2vr6BFuirSfw2HTM4nk+ttQeAkRRkawsyomZKDYzD0Gc2ewP5vm01JSigYHB+U1NzRecoTu7unb2ORyLk5OSmoJxDzUYdDk6reZIfWNDks/n+1K6X0EQ+k7X1PoRwZFkS5wbjM1xFsvpYJ6/mEDCKBMzYMyVcwh0Ol1QPusajTZNr9Xt6nc4Fre2tm0593cDroET7e0d0wigJjHRFpTgAADS09OsRJBcfbrWIYrkOvtzIvKfqqmpJYK8lOTUtmB9yC1WS6z+1BCIChVsVPKeOXbXeAE4nu9iHBd0GFxWVnoWAQjdPT0Lurt7dgIA+H2+7vr6pjhE1KWlpbaHkqLJaDSN12r43UTiuNO1NYeJzniY1jbU7xD9whQEPJGQEDcn2H51el1esG0uIhSZ6JS7mkKMifkCxFssVaG002p1OXq9bgciYmt7+3THgPNQTW1dHQClc4wdtcXHzw7VpszMzGQCEHxe3+zm5qbyjs7ObW6XeyEAQEZGhieUNG4MWZZGo20K1aZRDVJQ26xAUdCdk0ZdEIEcWK1xIX/J5WRljQeAAQTQNtQ3FvsFYRoAQEaGtEhTvV6fbzTotwMA9DsGFnd2dl0CAMDz/F6r1Twl1H7j4i01kgwbrRAq4r+u5Gl2bM90AXQ6bcj+2DzPJ8VZLPsAABDPHKJoNdodZrNpolS7srKyJgFAz2f/1BCAkJOdKSlYJs5iHXXuqnKAGLjvQDAoJ2bEUZOoTi70Bv1JZCgpTVB6RvpcAKwDACAiT1ZWlix3ujzHxSfabJ87hRgN+u06nT5fSp8ajaYYEWNf6ueB0TYzE9CAUn1HK/HxcZKLqyGiJjMjvQsAwGI27tLpNLLVdU5OTlrAEI4RQF9WZlaJ1P4Q0WIymo7IYdtoQlRIGwreM2NMzOdhsVhkifG2Wi3TjUZjRXp6xnQ5+jsLIkJObo7GlhB/kOc5WVwO4xLi++ToZzSBiIpkMVWsPhAiDQDEilmchTGuh0MmeW97ltyc7EVy9XUuBr2h0KA3yJbb2WIy5srV12gBiRQRs4Kn2cp8+0QrtsSEoxdjqR5EzNXrdLGQyHMQGTmU6FcxMYtAoypZnVQS4qwXrXurzWaLVbo4B5GoV4l+ldszMxYT82cwhg6e14R8XxvtmM3mNLVtiCh8WkWCUBS8mhI7FOs7ykhISDgMozBFUKBwHCvS6bS1atsRIYg871FkolPuasqLMTF/hi0+PupLtkolKTEplk8bAIigs7S0VJG7d8XEbDLxXwqpuxjhOdbNa/ipatuhNhazKU9tGyICJMXivBUT8zXXXOOC2CEY2BITj8bCQQGQsVyjUX9CbTvUBglqlepb2VxNhPWK9h8FxMfHx4oBfEZKcvJFv/UiQMWCT5Qutn5Ri1lv0J/kGCtW245IwWAwTAHAgDJ8jl4oOsVMCCeV7D/SSUlJjp0bfAG02hIS9qlthZoQRunMzIhVKtl/JMMY85oMxskX+p3T6Qwq+CAyQsODs6HP4ThwoZ8nJSWYZDEnSuGIKTbBKb3MvmjFHJ8QvxeGSHY+6Hb39fX37Q2kHyKijs7OgPNbK0V7W+e2QBPnd/f07Pa43a4L/Y7j+CkXsXunr6enLTrFzPMwZArX0U6SLWHI8jyJNtuMpubW9EGPe9iXmoigpq52u1ajVd3hhNdpNDW1tTtGWiV4PO6a9vaOnKTExCGv49LSUiSHgkYlBJV33XWXYlUyFRXzDTfc0EUEF51frsloPMpx/Pihfs8Y01vMllN1tfU6v8/XPdRz9Y2NFV6PNyMuzjpLGUsDJyEubpbX682sb2gcMn+3IPgdp2vqmd6or2KMGYd6zmAwzmAMFQk2iGQIIaCKIKGifBkRhIOKjxFhpKWmjBgxlp6aPEkkSqw+XdMsioL3/N+3tbdvcQ24FtkSk1oiIdgKETEpKanZ5XItam1t+ZKgiUisrqmrIqCs9JT0kVIjGVOTk/crZGrkQqBoooYw1ASiCx6EjFY0Gm2TRqsdMVMmr9HYTCbjHpGopKamft+5y9f+/v5Pu7t75gNgXXKiLeg0t0qRaLPNQYSa7p6+hefv+esa6rcJfv8MvU67U6fTjJhhMC4+bhwAKJKlMlIhhBFLAUlBcTEzUvYPiDQy0tKqA00Yn5meMQmAHF6fd25jU1M5AIDH421obG4pAACWnJLUHEzyeVEUPcGcfBMREAWe9hURWUrqmfzczc0tRe5BTx0AQGtrW8XgmdS8vqzMjICSESCytCRb4q6AjR0FcOQP6NAzVBQXM8fBTqXHiBR4jnUbjPqAaz3xPJcQF2fdDwDgdA4sbm1tq6ipq3UjQBxDdjwxISGoChWIqG1paSkPRNBEBC0treUQZLYZW3z8bMaxIwBoqa2r87e2tm3p6e1dBABgNBl2aLW6AAviASQmJ6ZHwhYiHBDBydLS0iHPR+RAcTHfeOON7URwUdQdSktPP4wYXPXL9LT/y7bZ09u7iEQqBADIyMjwBfuiIyIyxrHa+rotIz1bV1+/hTHGQhFTVmYGAwAgoIKe3t6Fn43enhlkTjKGOCbear04Vm4Ie5QeIjx1dBG2hWUcFWGM6zGbTEGfOiOiJiMjrefcn2k1mp0Wi+mCDicjkZKSPNM96Cmpa2gY8tS5obGpwjXonpySkjwjlDFMRlOxTqv7wt13akpyDc/z5qDtTU22XRSzM9GwVTzlICxiZoQfh2McNcnKSDuEiENexwxHnNU6VafXbwMAIIDBnJzskJPgMcYMcVbrIdeAa9H5ReYAANo7Orc6nc5FFovpwHDXRyORlZUxlkh0AZz58rHZEkIqj8MYNzYhPm7Ub8VIwE+UHiM8YmaC4n+ImnA832UymwLeK1+InKzMKQDQHG+17tZoNOlS+joz41Jvd0/Pgt7e/s+Xd339/Qc6u7rmEomu9NT0kGb+s2i12pT4uPg9ANiSl5c7QUpfSckpqURB+otGFdR8yy3XKx6nEBYx33TTTXUANGpd+LIz048BoKTi8jzPm3Nyc5xpaSlBl2W9UF9xcdZDiIjNLU0TB13uao/H29DU3JKPAJzZYtkjR17s9PS0eXk52U6O4+Kk9MMxzE9Otqnusqoc+AkiKv5lFZ49MwAQ4X/DNVY40Wp1dQaDYZ4cfZkMhnGMcVo5+kpLTbsEEVsRmbG2vk5bU1vrRYA4IurJTEsLaa98PoioMRjlybGdlJhUiIgX9OceBWwKxyBhEzMDejtcY4WT7Kys9kjMJMIY0yenJJ29RcgmogIAgMRE2xEuhIMqpUHElIz0dMVPfFVA9Hv5d8IxUNjEPDDQv5mIRtU3r8Vq+VSr5VX3mx4KW3zCPIb4uQshY1iZkpw8X02bhsNqNV/C87xiObJUgWjb7bdfE5b0WWET85133ukGxPfDNZ7SIKIvMz1tyMioSAARIScnS/+Zl5eYlZUlBONRFn7QkJOdNbp8EhDeCtdQ4f2PJdoQ1vEUJDUtbTsiy1PbjpEwGIxjbYm2HQm2hG0mozHiUxjpdLq5FrNl1PjzI/FvhGssxQrHXQgGwtsi8IMIIOnkV220Wr4x3moJ6V5VDdJSUhaqbUMwZGamJ5yodHoAKKrzjRPQ7ptLrz0VrvHCOjOXlpY6ESDqD8JycnI7gnXbjBE4iJiblZUR9Y4kjPDFsI4XzsEAAESAZ8M9ppwkJyZu1fD8NLXtGO1YzKYFRr0xmtNOiQD+l8M5YNjFnJaU8F8CaA33uHKg0WhaEpMSL9oCcOEFueycDI4x9qXEDVEBwabS0tKwvudhF/OSJUv8QPBMuMeVCiJCbk5uGyJa1LblYoExbmx6RnQutxHon+EeU5VrCgbcE2qMK4W01OQKjYa76GtGhRuLybgw2k63CaApOdn2n3CPq4qYS0uvPQUE76oxdigYjMbj8fHBJQqIIQ+IiJmZ6Rk8xxQN7JcTRvD4kiVLwp4SSTUHAgT6q1pjBwNjrD8vJ8sCF3F95QGnS9GskiOBiCn5+Xm10RBZRUR+v5+psvJUTcxHjx76gCI8ST4iQn5efiUABpwKJxB6e/uC8kHu7u5RNVeWx+919vYFZzORKGsNYp7XTM/KzlQ8wF8qiPjcbbddp0pecNXEXFZWJjJiv1Vr/EDISE8vV8L32u12u7u7ewM62Olo79jq83pVPdFNiIu7pLW1LW7QNXzS/rO0tbZtAZA/fYjVbF4cZ42L2GAMIiLRD39Qa3xV/XR7etpfIICIrBSZEB+3y2q1LFai7+TkxKmt7a3jBlwDw9Yr7nc49nd2d09MTEoOKreW3CAi2my29tr6Op3fL/QM92xzS0uFVxBEpXzA09NTiyO2vA3iG7feeoNqVVxUFfNdd93lQ6Dfq2nDhTAajcdSU1MVu0/mON5iNBqO1tc32Xw+7wXvIt1ub11TU3OByWg8xPNM9WJryUmJcwgAT5+uqRuq5lRXZ9f2vr7+uanJSZIyjwwHIppyc3MNGg0fcbWeGYGqK03VI2gsJsMTkTQ7a/Xa+pyszDSlTHWp0gAADjtJREFU3TUz09LHEVB8dU2tw+/3O8/9neD3O2vraogANBkZaSVK2hEoiMgnJyXWCqIwta6xYev5v+/vdx5s7+ycpdXpd2u12hQlbWEMM8bk53cxFjnJDAjg9dLSG1TNNKq6mK+66ioPAjyoth0AAJxG056fm8uQMcVDGzVabarRqN9FIhVW19RUi6LoATiTz/p0bd0JIsgzG027eV6TqLQtgZKUmDgXAOsGBwYXdXV2f55x1eNx1zY1N+UDgCYjNTUtHLYwxsYXjBlTiYiKFWILApH8sEJtI1QXMwAAkv95IGWLao0EY1zP2DH5ToZM1pPr4cjKyCgGgAFREKdUn645Ioqip7G5qdzv988EoN7MzPSgnFREUXSJoqjY9Q0istTPCsi3dXbMGnAOHBMEoa+mto4BgFWj1ewyGPUFSo1/PjzPTxuTn78fEWU9OQ+Bp9TcK58lIsRcWloqEBN/odb4jHE9hYVjOhnimHCOy/OaxDiLZR8AgN/vn1FVdarR6RhYDABgi7cdCjZRHiJqm5qbtgRS0UIUxUGv1xP09sZmS5jDGHcMAbQNTY3Jp06friWCHCKijIyM5GD7k4pWq7kkPz9vDwAEVDtabojIxTMqU2Ps84kIMQMA3HLTTe8D0ZvhHpfj+a7CsfldDJksiemCJT3j/ypaEJzJ04WI1SmpSUGn90FEniEPtXV1W4cTtN/vd56qrj7OGBfSdiIjLU0AACCCZFEQpwAAGAz6bUa9PqxfhmfRabVzCsbk7wEVCtEhwuobb7wxIsoWR4yYAQAQ+HuJyBOu8TQabdPYMfkDjHEjlSBVDETUZGSmf+G6Jz0j3YHIQkoSmJaWMnXQ7Zk6VB1lv18cqD59ul6r0TlDqUABAGCxmidpNfy5hz392VmZip1gB4JWq51dWDDmIGNsMHyj0nEk4ZHwjTc8ESXm0tJraxjgmnCMZdQbK8cW5GsYYznhGG844iyWqXq9bisAgFar3RFnsYQc0MFxnNVqNn/qcrkWNTU1l5/7O1EUPdU11acEkYoyMlIlzaLZ2VkZAOAGAEi02Q5FwkEdr9HMKCwYc5rjuWHvwuVCBHZ3aWlpxIRoRpSYAQB6ejp+TwrXdI6zxu3JzcvOBgBFr1CCITsrZxoCVuXkZEteJaSnp04DgJ5+h2Nxe3vHVoAzp+Q1tbUHREGcYtDrgqrWeCG0Wl1WWlraEZ1Otz05OWmBVJvlgnHcxLFjCpw6nbZWyXEI6Olbl12/WckxgiUiK3a9uHHjNAbcHgSQNR81IkJGelq51WpVxLNLKqIouhljstxvt7a2VXxWalXMSE/b3+/oH3A6XYsIwDs2P79Tq9OOWBA9uqH+5ua2qr7+vpmy9wxQz8g/ubS0tE/uvqUQkWIGAHhpw2t2RPi1XP1xPNeTl5tbrdVoZP/PjUSIyFdZVdVCBDkE8HkSRZPRWJ6Tkx2RX2ZyQ0TkcDgrGpuaFyHK964TiktvuemmiKufFnHL7LOkJiesI6AveRqFAsfxuwoLClwXi5ABzhyspaaktQEAnBUyInRkZGTIUpomGkBEtFoti/PzczbIlaqKCB6JRCEDRLCYlyxZ4mck3E5EvRK6EYlgTWKCZQGCeB0RHJTNwCggISFuFse4/Wf/nZiUWMXzXMSVplESAvijyaD/luDlJxHA6xI72zs40LdcJtNkJ2KX2WfZsOHVawgx6PtnAqoEBt++5cYbPw813Lt3r0ar1d8PiA9CmHOGq8Wg211TU1uXwzN2dNy4QkllXKOMHhHEO6ZOmvR5+h4iwo0bX71VBPwLIgZ1+k5EXTyjGWcqmkYmES9mgOD2z2fuqfE3gwN9v7vzzjvdF3rmyJEjU0WCZwFwkqyGRih1DQ0VKckpWQa9ThWnjqAhgQr8K7fpxeqxAOB34YSaes0vpghotQbUnGA7x+jWkpKSC3q4bdiwIZmQfxgAvhVYf0SE+NVbl93wQeB/RPiJCjHb7XZWPHHya4B47bAPEr3KMfrlTTfdNGK9oqqqKp3b7V1NAPchBhpIT5Dsf2N7ov8/Rg4HzV5Ib6/l7y/wcSmpgbVXByKCgP/ECCDd99TWJPGdL1x3icA1ntQ+ynkxZchC9ERECPAbr9f965kzZ44YgPHSK6/MR5H9CRBGOEuh+25eduPDgdqvFlHzP/zGG29YPF5xMyB8KVCfADaJwFbdtuy6oNPrHDp0bDEBPYsIIziPiFDo+d/teqib98Wfak8d1T5fAMhFzWcZ6Ux031zH0J97/s8F0p48rns6l1B3gRrWVEMifnvKlIlBpRay2+2suGTKTQS0GgGLvtQr0KO3LLvxJ8H0qRZR9QJu2LAhjZDbAYB5AABA9B8R2W9vXXb9din97t1bHafRDT6KgN8Y6pkc/yPlccLWC17p1PK/POjgZseS4weBTXh/T7y41d3LFuu7uaWzzp7Faqi7a7z3+0PuZ/tgVkW97v5FZ/9NZ5Ydf+OQHigpKXEO1W4kNmzYwBHyNwLBfZ/P1ESvpiTbblEj02YoRJWYAQDWr39tHHJwD8/Ev990003Dpt0JlkOHji4jgH8gwhcCELRiU0OR7ydpAHjBDJ293OLyBv6nnwvdIFSdTBLea/awFK6DXzaHgL8oDtsCJcn/9s504d9zzv7bh3H7qzR/HSeiyWQWDx3N95VNHLIxgadS91iPF1PTiGCPyOjH00pKZEsKcOaQ7PU5AkLiiSMH3y0rK1MlGisUok7MSnPs2LF0n58eR4Srz/6s0PPzLy2vz2UACree1v12AQBApu+vFTZh80L4zEnBjZk7T2r/PCf2UZ8ByeMt8X7DASB+Yfb1g/ngCd2TE+P82w9mC38e9i7cxca8f0r7+2cmT5z4MiJGjdiUJmLvmdWiuLi4ZfKk4msI6dsA0KsRW1v0UDds+VYeerQAABm+f1TYxM2L4BxvIz01zbEKu6KqIoNUdGJDfYH3ga1jvMu3msWDx879Xby4/dD5QgYA4ME5ZYzvwe0cOEY8uDIK1ZdM7rhnY0zIXyQm5guAiDSlpOQZnsPiXP8ftsIIPuI8DJhs/v/uShQ2XbAOcqp//RfC8hg5Hdm+P1WM89y9O9n/+g4ZTVcdRk7HWO/POSNVLTBR5YJ83+riDN8/tpz9fTxtHxiqrVGsXJQibhy5djdiAljaLhpvvkCJiXkYiouLWwxUM2KcLgeDBZn+x6fBEP6/emj6PJWOlhobJ3ju7I8XtyzSQdslacLzc23Cu6omgpOTPOHh/QzFzHN/lihuWpjsf307wP9v715io6riOI5//6dDnyKwqIggpIQybWhNsGNjcCOJK6KuFIyJLkiMCxKNURfGx4KYGDduCGII0Q0JJsbEjYmERQWqidAGqFhmyiOVCgkVEdoqbWfm/lx0bAPzLFzaznA+yWzuuXfOmcz8Z86ce875w6L0UH2h6yMaLXEgUZ132sZK5YO5AHVHFyPLPxgzoxazHLdLpp/poYj+vlrF2Ejz5NvB7R/2Fckvm4zkQtiY7q4YqXRD+nTOtdgPp/c/Xh8MnFvEjaWhVCaybiPd73wwF1Ktlny/trPVoDND6ybfPeNIZd3PdqbGJekjZT9vvDYYOA/KN0urtin5YY1jYmWe8tkxWzBr0RcKH8yFuPB26lyV3LW4WsN5B9KWqDfvf8lyUafBgotiHKlHwQp2s2ehQE/o/uSDuRALQssk4ZgsuINItf4MdSOG+VBlE3M5ueKOJ4hUKh/MBbk5y5gQBEHZvxdpNYSZ9nZP4WINhVhXRSj7D9A9JZ0tcsIJpFA2j5Orm++N3O/aOKtKWtVUEgUHEV/lP8GO5i+7P/lgLqQj8RviUp7SG5B+ESOUrYGTaiz7CRDjVWtXo5A2o3dMUOfeAJ3IKpP6GV1+MJR6KogP5gLMCLBcWSqVBLZa7Nx5FE4wj7vVYXZR50VAzRVcpIQ0LfqleNDbVWvrH2Oy6hnQ9zOXchnZNtt8uCwWP8wlH8zFXEjsBn03c0BXgOcsFp9aqG5cK3i9GCylmpR78GfQEak8BnYkCfQr0j6k7emUa3qsva2JIHmg+MX0AZ8VKBdKngWwTf3XLJZ4loB2gmALdS5qnfHTob2QCuJn/5dAPR2L0NhTyEVIjf5km/6Ynp6p49GvMduW58oh4D2w/UWqOE9HvNkMSXJ9ffFmuVSbk7WBtclYb7AOCOu2zqxIXMOUsKnkfqckO1Vd7U62traOZp17onklaTcIln+lmNjL2M03eaCuGyPXoopui8VzTo318vNL80pgsd4k8GPuUncIlCOYlQK9jFxd8a9M7TFDAJnFA4nM49vpMyQ7eXLgkUhkck2aqtVOwRpgBbBc2HJgmZmWAsvAGijy3koKzGxEYsRMI8iGQcMyhh02JHFRsovJGncu1tJytdgr+J9tPHtJPdEDwCv5T9J12/z7uHqjzyO6wNbf2jh2llqfN8MH892y+gPwz/tA0/QxESC33TrPdOtY60asUFZG/cU4e4tWYybgUuZRdDOGrq6uSGNjYy1Q7Zyzf50zgAZpIp1OT2xo25DMPGf4qviINC+Q2eI3m011oTsSl9XX/iQTk5+CvYoxigVvWWzg0D1pV4Xz3ewQ6Fg0irNvgHZED+Id64wfhsz87hq7juUdn9hhsfjnc9fauaHj0dcx+yK7ABHRWtuYGLzlcE9HPbU3U9bWv2ByN5UbH8whkXD0rl1ssQtZKUvU03IUyM7HJA4Si28xm5/cwveajkc/wG5PBKh9Fku8Nj8tqmx+NDskZgS5AjkjR2ZLHSad2lqpgQxgTyQ+JuBpxA9AAmkntVU75rtdlcr/Ms8RHWt5CeMTpoJ3FzTszgyseZ5XbiRM8l+gnud5nud5nud5nud5nud5s/YfXfFmAB5yHpUAAAAASUVORK5CYII=;" vertex="1" parent="1">
          <mxGeometry x="463.96" y="532.56" width="38.72" height="42.38" as="geometry" />
        </mxCell>
        <mxCell id="dvIQoBZ7N12mjhmRUmld-644" value="&lt;font style=&quot;font-size: 14px;&quot;&gt;Monitoring&lt;/font&gt;" style="text;html=1;align=center;verticalAlign=middle;resizable=0;points=[];autosize=1;strokeColor=none;fillColor=none;fontFamily=Architects Daughter;fontSource=https%3A%2F%2Ffonts.googleapis.com%2Fcss%3Ffamily%3DArchitects%2BDaughter;" vertex="1" parent="1">
          <mxGeometry x="340" y="500" width="90" height="30" as="geometry" />
        </mxCell>
      </root>
    </mxGraphModel>
  </diagram>
</mxfile>
